<?xml version="1.0" encoding="UTF-8" standalone="no"?>
<!DOCTYPE svg PUBLIC "-//W3C//DTD SVG 1.1//EN"
 "http://www.w3.org/Graphics/SVG/1.1/DTD/svg11.dtd">
<!-- Generated by graphviz version 2.26.3 (20100126.1600)
 -->
<!-- Title: G Pages: 1 -->
<svg width="824pt" height="1484pt"
 viewBox="0.00 0.00 824.00 1484.00" xmlns="http://www.w3.org/2000/svg" xmlns:xlink="http://www.w3.org/1999/xlink">
<g id="graph1" class="graph" transform="scale(1 1) rotate(0) translate(4 1480)">
<title>G</title>
<polygon fill="white" stroke="white" points="-4,5 -4,-1480 821,-1480 821,5 -4,5"/>
<g id="graph2" class="cluster"><title>cluster_Global</title>
<polyline fill="none" stroke="gray" points="328,-476 796,-476 "/>
<path fill="none" stroke="gray" d="M796,-476C802,-476 808,-482 808,-488"/>
<polyline fill="none" stroke="gray" points="808,-488 808,-1456 "/>
<path fill="none" stroke="gray" d="M808,-1456C808,-1462 802,-1468 796,-1468"/>
<polyline fill="none" stroke="gray" points="796,-1468 328,-1468 "/>
<path fill="none" stroke="gray" d="M328,-1468C322,-1468 316,-1462 316,-1456"/>
<polyline fill="none" stroke="gray" points="316,-1456 316,-488 "/>
<path fill="none" stroke="gray" d="M316,-488C316,-482 322,-476 328,-476"/>
<text text-anchor="middle" x="562" y="-1454.1" font-family="Times Roman,serif" font-size="11.00" fill="gray">Global</text>
</g>
<!-- \\AuditLogAppModel -->
<g id="node2" class="node"><title>\\AuditLogAppModel</title>
<polygon fill="none" stroke="black" points="783,-1384 659,-1384 659,-1348 783,-1348 783,-1384"/>
<text text-anchor="middle" x="721" y="-1363.1" font-family="Courier,monospace" font-size="11.00">AuditLogAppModel</text>
</g>
<!-- \\AppModel -->
<g id="node22" class="node"><title>\\AppModel</title>
<ellipse fill="none" stroke="black" cx="403" cy="-450" rx="62.2254" ry="18.3848"/>
<text text-anchor="middle" x="403" y="-446.4" font-family="Times Roman,serif" font-size="14.00" fill="gray">\AppModel</text>
</g>
<!-- \\AuditLogAppModel&#45;&gt;\\AppModel -->
<g id="edge3" class="edge"><title>\\AuditLogAppModel&#45;&gt;\\AppModel</title>
<path fill="none" stroke="black" d="M658.14,-1352.58C651.956,-1349.05 646.367,-1344.6 642,-1339 523.136,-1186.53 703.376,-611.955 570,-472 544.293,-445.025 502.803,-439.453 467.611,-440.66"/>
<polygon fill="none" stroke="black" points="467.195,-437.177 457.394,-441.202 467.566,-444.167 467.195,-437.177"/>
</g>
<!-- \\AuditDelta -->
<g id="node3" class="node"><title>\\AuditDelta</title>
<polygon fill="none" stroke="black" points="763,-1276 679,-1276 679,-1240 763,-1240 763,-1276"/>
<text text-anchor="middle" x="721" y="-1255.1" font-family="Courier,monospace" font-size="11.00">AuditDelta</text>
</g>
<!-- \\CakeTestModel -->
<g id="node24" class="node"><title>\\CakeTestModel</title>
<ellipse fill="none" stroke="black" cx="403" cy="-396" rx="86.9741" ry="18.3848"/>
<text text-anchor="middle" x="403" y="-392.4" font-family="Times Roman,serif" font-size="14.00" fill="gray">\CakeTestModel</text>
</g>
<!-- \\AuditDelta&#45;&gt;\\CakeTestModel -->
<g id="edge5" class="edge"><title>\\AuditDelta&#45;&gt;\\CakeTestModel</title>
<path fill="none" stroke="black" d="M678.711,-1252.85C664.957,-1249.02 650.946,-1242.4 642,-1231 530.74,-1089.16 692.836,-554.937 570,-423 550.75,-402.324 522.39,-393.374 494.483,-390.256"/>
<polygon fill="none" stroke="black" points="494.506,-386.745 484.239,-389.361 493.896,-393.718 494.506,-386.745"/>
</g>
<!-- \\Audit -->
<g id="node4" class="node"><title>\\Audit</title>
<polygon fill="none" stroke="black" points="748,-1222 694,-1222 694,-1186 748,-1186 748,-1222"/>
<text text-anchor="middle" x="721" y="-1201.1" font-family="Courier,monospace" font-size="11.00">Audit</text>
</g>
<!-- \\Audit&#45;&gt;\\CakeTestModel -->
<g id="edge7" class="edge"><title>\\Audit&#45;&gt;\\CakeTestModel</title>
<path fill="none" stroke="black" d="M693.636,-1202.02C676.065,-1199.22 654.305,-1192.58 642,-1177 537.697,-1044.9 685.083,-545.828 570,-423 550.685,-402.385 522.308,-393.45 494.406,-390.328"/>
<polygon fill="none" stroke="black" points="494.433,-386.817 484.166,-389.429 493.822,-393.79 494.433,-386.817"/>
</g>
<!-- \\AuditableBehavior -->
<g id="node5" class="node"><title>\\AuditableBehavior</title>
<polygon fill="none" stroke="black" points="786,-1060 656,-1060 656,-1024 786,-1024 786,-1060"/>
<text text-anchor="middle" x="721" y="-1039.1" font-family="Courier,monospace" font-size="11.00">AuditableBehavior</text>
</g>
<!-- \\ModelBehavior -->
<g id="node27" class="node"><title>\\ModelBehavior</title>
<ellipse fill="none" stroke="black" cx="403" cy="-342" rx="86.9741" ry="18.3848"/>
<text text-anchor="middle" x="403" y="-338.4" font-family="Times Roman,serif" font-size="14.00" fill="gray">\ModelBehavior</text>
</g>
<!-- \\AuditableBehavior&#45;&gt;\\ModelBehavior -->
<g id="edge9" class="edge"><title>\\AuditableBehavior&#45;&gt;\\ModelBehavior</title>
<path fill="none" stroke="black" d="M655.3,-1026.66C650.274,-1023.48 645.719,-1019.63 642,-1015 461.196,-789.685 769.179,-578.247 570,-369 550.613,-348.633 522.369,-339.724 494.604,-336.551"/>
<polygon fill="none" stroke="black" points="494.688,-333.044 484.414,-335.63 494.059,-340.016 494.688,-333.044"/>
</g>
<!-- \\AuditLogSchema -->
<g id="node6" class="node"><title>\\AuditLogSchema</title>
<polygon fill="none" stroke="black" points="776,-1006 666,-1006 666,-970 776,-970 776,-1006"/>
<text text-anchor="middle" x="721" y="-985.1" font-family="Courier,monospace" font-size="11.00">AuditLogSchema</text>
</g>
<!-- \\CakeSchema -->
<g id="node29" class="node"><title>\\CakeSchema</title>
<ellipse fill="none" stroke="black" cx="403" cy="-288" rx="77.0746" ry="18.3848"/>
<text text-anchor="middle" x="403" y="-284.4" font-family="Times Roman,serif" font-size="14.00" fill="gray">\CakeSchema</text>
</g>
<!-- \\AuditLogSchema&#45;&gt;\\CakeSchema -->
<g id="edge11" class="edge"><title>\\AuditLogSchema&#45;&gt;\\CakeSchema</title>
<path fill="none" stroke="black" d="M665.34,-977.965C656.385,-974.033 648.078,-968.574 642,-961 461.196,-735.685 769.179,-524.247 570,-315 548.351,-292.256 515.657,-283.8 484.919,-281.665"/>
<polygon fill="none" stroke="black" points="484.744,-278.153 474.589,-281.172 484.41,-285.145 484.744,-278.153"/>
</g>
<!-- \\AuditLogAppController -->
<g id="node7" class="node"><title>\\AuditLogAppController</title>
<polygon fill="none" stroke="black" points="482,-1438 324,-1438 324,-1402 482,-1402 482,-1438"/>
<text text-anchor="middle" x="403" y="-1417.1" font-family="Courier,monospace" font-size="11.00">AuditLogAppController</text>
</g>
<!-- \\AppController -->
<g id="node31" class="node"><title>\\AppController</title>
<ellipse fill="none" stroke="black" cx="82" cy="-1420" rx="82.0244" ry="18.3848"/>
<text text-anchor="middle" x="82" y="-1416.4" font-family="Times Roman,serif" font-size="14.00" fill="gray">\AppController</text>
</g>
<!-- \\AuditLogAppController&#45;&gt;\\AppController -->
<g id="edge13" class="edge"><title>\\AuditLogAppController&#45;&gt;\\AppController</title>
<path fill="none" stroke="black" d="M323.652,-1420C278.421,-1420 221.521,-1420 174.298,-1420"/>
<polygon fill="none" stroke="black" points="174.068,-1416.5 164.068,-1420 174.068,-1423.5 174.068,-1416.5"/>
</g>
<!-- \\AuditController -->
<g id="node8" class="node"><title>\\AuditController</title>
<polygon fill="none" stroke="black" points="780,-1438 662,-1438 662,-1402 780,-1402 780,-1438"/>
<text text-anchor="middle" x="721" y="-1417.1" font-family="Courier,monospace" font-size="11.00">AuditController</text>
</g>
<!-- \\AuditController&#45;&gt;\\AuditLogAppController -->
<g id="edge15" class="edge"><title>\\AuditController&#45;&gt;\\AuditLogAppController</title>
<path fill="none" stroke="black" d="M661.932,-1420C614.347,-1420 546.681,-1420 492.454,-1420"/>
<polygon fill="none" stroke="black" points="492.146,-1416.5 482.146,-1420 492.146,-1423.5 492.146,-1416.5"/>
</g>
<!-- \\AuditHelper -->
<g id="node9" class="node"><title>\\AuditHelper</title>
<polygon fill="none" stroke="black" points="766,-952 676,-952 676,-916 766,-916 766,-952"/>
<text text-anchor="middle" x="721" y="-931.1" font-family="Courier,monospace" font-size="11.00">AuditHelper</text>
</g>
<!-- \\AppHelper -->
<g id="node34" class="node"><title>\\AppHelper</title>
<ellipse fill="none" stroke="black" cx="403" cy="-234" rx="65.0538" ry="18.3848"/>
<text text-anchor="middle" x="403" y="-230.4" font-family="Times Roman,serif" font-size="14.00" fill="gray">\AppHelper</text>
</g>
<!-- \\AuditHelper&#45;&gt;\\AppHelper -->
<g id="edge17" class="edge"><title>\\AuditHelper&#45;&gt;\\AppHelper</title>
<path fill="none" stroke="black" d="M675.138,-927.63C662.623,-923.672 650.255,-917.287 642,-907 461.196,-681.685 769.179,-470.247 570,-261 545.685,-235.456 507.438,-227.935 473.678,-227.149"/>
<polygon fill="none" stroke="black" points="473.379,-223.648 463.366,-227.109 473.352,-230.648 473.379,-223.648"/>
</g>
<!-- \\Article -->
<g id="node10" class="node"><title>\\Article</title>
<polygon fill="none" stroke="black" points="753,-1168 689,-1168 689,-1132 753,-1132 753,-1168"/>
<text text-anchor="middle" x="721" y="-1147.1" font-family="Courier,monospace" font-size="11.00">Article</text>
</g>
<!-- \\Article&#45;&gt;\\CakeTestModel -->
<g id="edge19" class="edge"><title>\\Article&#45;&gt;\\CakeTestModel</title>
<path fill="none" stroke="black" d="M688.972,-1147.16C672.378,-1143.95 653.279,-1137.18 642,-1123 544.65,-1000.62 677.334,-536.723 570,-423 550.7,-402.551 522.477,-393.621 494.706,-390.454"/>
<polygon fill="none" stroke="black" points="494.785,-386.947 484.512,-389.537 494.159,-393.919 494.785,-386.947"/>
</g>
<!-- \\Author -->
<g id="node11" class="node"><title>\\Author</title>
<polygon fill="none" stroke="black" points="749,-1114 693,-1114 693,-1078 749,-1078 749,-1114"/>
<text text-anchor="middle" x="721" y="-1093.1" font-family="Courier,monospace" font-size="11.00">Author</text>
</g>
<!-- \\Author&#45;&gt;\\CakeTestModel -->
<g id="edge21" class="edge"><title>\\Author&#45;&gt;\\CakeTestModel</title>
<path fill="none" stroke="black" d="M692.169,-1093.7C674.917,-1090.74 654.065,-1084.04 642,-1069 461.196,-843.685 769.179,-632.247 570,-423 550.613,-402.633 522.369,-393.724 494.604,-390.551"/>
<polygon fill="none" stroke="black" points="494.688,-387.044 484.414,-389.63 494.059,-394.016 494.688,-387.044"/>
</g>
<!-- \\AuditableBehaviorTest -->
<g id="node12" class="node"><title>\\AuditableBehaviorTest</title>
<polygon fill="none" stroke="black" points="800,-898 642,-898 642,-862 800,-862 800,-898"/>
<text text-anchor="middle" x="721" y="-877.1" font-family="Courier,monospace" font-size="11.00">AuditableBehaviorTest</text>
</g>
<!-- \\CakeTestCase -->
<g id="node38" class="node"><title>\\CakeTestCase</title>
<ellipse fill="none" stroke="black" cx="403" cy="-180" rx="82.0244" ry="18.3848"/>
<text text-anchor="middle" x="403" y="-176.4" font-family="Times Roman,serif" font-size="14.00" fill="gray">\CakeTestCase</text>
</g>
<!-- \\AuditableBehaviorTest&#45;&gt;\\CakeTestCase -->
<g id="edge23" class="edge"><title>\\AuditableBehaviorTest&#45;&gt;\\CakeTestCase</title>
<path fill="none" stroke="black" d="M651.363,-861.955C647.89,-859.359 644.721,-856.391 642,-853 461.196,-627.685 769.179,-416.247 570,-207 549.441,-185.402 518.922,-176.688 489.577,-174.037"/>
<polygon fill="none" stroke="black" points="489.477,-170.522 479.264,-173.34 489.006,-177.506 489.477,-170.522"/>
</g>
<!-- \\User -->
<g id="node13" class="node"><title>\\User</title>
<polygon fill="none" stroke="black" points="748,-1330 694,-1330 694,-1294 748,-1294 748,-1330"/>
<text text-anchor="middle" x="721" y="-1309.1" font-family="Courier,monospace" font-size="11.00">User</text>
</g>
<!-- \\User&#45;&gt;\\AppModel -->
<g id="edge25" class="edge"><title>\\User&#45;&gt;\\AppModel</title>
<path fill="none" stroke="black" d="M693.985,-1310.11C676.333,-1307.36 654.341,-1300.74 642,-1285 530.096,-1142.26 695.487,-602.956 570,-472 544.219,-445.095 502.729,-439.523 467.555,-440.713"/>
<polygon fill="none" stroke="black" points="467.147,-437.23 457.345,-441.249 467.514,-444.22 467.147,-437.23"/>
</g>
<!-- \\AuditControllerTest -->
<g id="node14" class="node"><title>\\AuditControllerTest</title>
<polygon fill="none" stroke="black" points="793,-790 649,-790 649,-754 793,-754 793,-790"/>
<text text-anchor="middle" x="721" y="-769.1" font-family="Courier,monospace" font-size="11.00">AuditControllerTest</text>
</g>
<!-- \\ControllerTestCase -->
<g id="node41" class="node"><title>\\ControllerTestCase</title>
<ellipse fill="none" stroke="black" cx="403" cy="-126" rx="106.773" ry="18.3848"/>
<text text-anchor="middle" x="403" y="-122.4" font-family="Times Roman,serif" font-size="14.00" fill="gray">\ControllerTestCase</text>
</g>
<!-- \\AuditControllerTest&#45;&gt;\\ControllerTestCase -->
<g id="edge27" class="edge"><title>\\AuditControllerTest&#45;&gt;\\ControllerTestCase</title>
<path fill="none" stroke="black" d="M651.403,-753.923C647.92,-751.334 644.738,-748.378 642,-745 475.081,-539.113 753.703,-344.061 570,-153 556.156,-138.602 537.882,-129.948 518.507,-125.003"/>
<polygon fill="none" stroke="black" points="519.131,-121.556 508.61,-122.804 517.613,-128.389 519.131,-121.556"/>
</g>
<!-- \\AuditHelperTest -->
<g id="node15" class="node"><title>\\AuditHelperTest</title>
<polygon fill="none" stroke="black" points="780,-844 662,-844 662,-808 780,-808 780,-844"/>
<text text-anchor="middle" x="721" y="-823.1" font-family="Courier,monospace" font-size="11.00">AuditHelperTest</text>
</g>
<!-- \\AuditHelperTest&#45;&gt;\\CakeTestCase -->
<g id="edge29" class="edge"><title>\\AuditHelperTest&#45;&gt;\\CakeTestCase</title>
<path fill="none" stroke="black" d="M661.829,-814.249C654.245,-810.487 647.294,-805.53 642,-799 475.081,-593.113 753.703,-398.061 570,-207 549.424,-185.6 519.06,-176.89 489.846,-174.185"/>
<polygon fill="none" stroke="black" points="489.798,-170.673 479.579,-173.468 489.311,-177.656 489.798,-170.673"/>
</g>
<!-- \\AllAuditLogTest -->
<g id="node16" class="node"><title>\\AllAuditLogTest</title>
<polygon fill="none" stroke="black" points="780,-736 662,-736 662,-700 780,-700 780,-736"/>
<text text-anchor="middle" x="721" y="-715.1" font-family="Courier,monospace" font-size="11.00">AllAuditLogTest</text>
</g>
<!-- \\PHPUnit_Framework_TestSuite -->
<g id="node44" class="node"><title>\\PHPUnit_Framework_TestSuite</title>
<ellipse fill="none" stroke="black" cx="403" cy="-72" rx="166.877" ry="18.3848"/>
<text text-anchor="middle" x="403" y="-68.4" font-family="Times Roman,serif" font-size="14.00" fill="gray">\PHPUnit_Framework_TestSuite</text>
</g>
<!-- \\AllAuditLogTest&#45;&gt;\\PHPUnit_Framework_TestSuite -->
<g id="edge31" class="edge"><title>\\AllAuditLogTest&#45;&gt;\\PHPUnit_Framework_TestSuite</title>
<path fill="none" stroke="black" d="M661.829,-706.249C654.245,-702.487 647.294,-697.53 642,-691 475.081,-485.113 753.703,-290.061 570,-99 565.458,-94.2762 560.439,-90.1707 555.061,-86.6117"/>
<polygon fill="none" stroke="black" points="556.722,-83.5278 546.331,-81.4584 553.164,-89.5559 556.722,-83.5278"/>
</g>
<!-- \\AuditFixture -->
<g id="node17" class="node"><title>\\AuditFixture</title>
<polygon fill="none" stroke="black" points="770,-682 672,-682 672,-646 770,-646 770,-682"/>
<text text-anchor="middle" x="721" y="-661.1" font-family="Courier,monospace" font-size="11.00">AuditFixture</text>
</g>
<!-- \\CakeTestFixture -->
<g id="node46" class="node"><title>\\CakeTestFixture</title>
<ellipse fill="none" stroke="black" cx="403" cy="-18" rx="92.1303" ry="18.3848"/>
<text text-anchor="middle" x="403" y="-14.4" font-family="Times Roman,serif" font-size="14.00" fill="gray">\CakeTestFixture</text>
</g>
<!-- \\AuditFixture&#45;&gt;\\CakeTestFixture -->
<g id="edge33" class="edge"><title>\\AuditFixture&#45;&gt;\\CakeTestFixture</title>
<path fill="none" stroke="black" d="M671.908,-656.477C660.544,-652.468 649.576,-646.345 642,-637 475.081,-431.113 753.703,-236.061 570,-45 552.03,-26.3099 526.594,-17.2995 500.978,-13.5153"/>
<polygon fill="none" stroke="black" points="501.135,-10.0086 490.785,-12.2742 500.288,-16.9573 501.135,-10.0086"/>
</g>
<!-- \\AuditDeltaFixture -->
<g id="node18" class="node"><title>\\AuditDeltaFixture</title>
<polygon fill="none" stroke="black" points="786,-628 656,-628 656,-592 786,-592 786,-628"/>
<text text-anchor="middle" x="721" y="-607.1" font-family="Courier,monospace" font-size="11.00">AuditDeltaFixture</text>
</g>
<!-- \\AuditDeltaFixture&#45;&gt;\\CakeTestFixture -->
<g id="edge35" class="edge"><title>\\AuditDeltaFixture&#45;&gt;\\CakeTestFixture</title>
<path fill="none" stroke="black" d="M655.408,-594.576C650.359,-591.408 645.77,-587.594 642,-583 488.951,-396.521 738.244,-217.893 570,-45 552.008,-26.5111 526.702,-17.5313 501.218,-13.7119"/>
<polygon fill="none" stroke="black" points="501.432,-10.2117 491.077,-12.4535 500.57,-17.1584 501.432,-10.2117"/>
</g>
<!-- \\ArticleFixture -->
<g id="node19" class="node"><title>\\ArticleFixture</title>
<polygon fill="none" stroke="black" points="776,-574 666,-574 666,-538 776,-538 776,-574"/>
<text text-anchor="middle" x="721" y="-553.1" font-family="Courier,monospace" font-size="11.00">ArticleFixture</text>
</g>
<!-- \\ArticleFixture&#45;&gt;\\CakeTestFixture -->
<g id="edge37" class="edge"><title>\\ArticleFixture&#45;&gt;\\CakeTestFixture</title>
<path fill="none" stroke="black" d="M665.164,-545.604C656.34,-541.705 648.123,-536.35 642,-529 502.801,-361.906 722.808,-199.747 570,-45 552.056,-26.8278 527.033,-17.8856 501.812,-13.9998"/>
<polygon fill="none" stroke="black" points="502.138,-10.513 491.774,-12.7099 501.246,-17.4559 502.138,-10.513"/>
</g>
<!-- \\AuthorFixture -->
<g id="node20" class="node"><title>\\AuthorFixture</title>
<polygon fill="none" stroke="black" points="773,-520 669,-520 669,-484 773,-484 773,-520"/>
<text text-anchor="middle" x="721" y="-499.1" font-family="Courier,monospace" font-size="11.00">AuthorFixture</text>
</g>
<!-- \\AuthorFixture&#45;&gt;\\CakeTestFixture -->
<g id="edge39" class="edge"><title>\\AuthorFixture&#45;&gt;\\CakeTestFixture</title>
<path fill="none" stroke="black" d="M717.604,-483.93C702.719,-406.681 640.819,-105.378 570,-45 551.813,-29.4945 528.314,-21.1183 504.718,-16.9058"/>
<polygon fill="none" stroke="black" points="505.032,-13.4129 494.615,-15.3467 503.964,-20.331 505.032,-13.4129"/>
</g>
</g>
</svg>
