<?xml version="1.0" encoding="UTF-8" standalone="no"?>
<!DOCTYPE svg PUBLIC "-//W3C//DTD SVG 1.1//EN"
 "http://www.w3.org/Graphics/SVG/1.1/DTD/svg11.dtd">
<!-- Generated by graphviz version 2.26.3 (20100126.1600)
 -->
<!-- Title: G Pages: 1 -->
<svg width="824pt" height="1414pt"
 viewBox="0.00 0.00 824.00 1414.00" xmlns="http://www.w3.org/2000/svg" xmlns:xlink="http://www.w3.org/1999/xlink">
<g id="graph1" class="graph" transform="scale(1 1) rotate(0) translate(4 1410)">
<title>G</title>
<polygon fill="white" stroke="white" points="-4,5 -4,-1410 821,-1410 821,5 -4,5"/>
<g id="graph2" class="cluster"><title>cluster_Global</title>
<polyline fill="none" stroke="gray" points="328,-460 796,-460 "/>
<path fill="none" stroke="gray" d="M796,-460C802,-460 808,-466 808,-472"/>
<polyline fill="none" stroke="gray" points="808,-472 808,-1386 "/>
<path fill="none" stroke="gray" d="M808,-1386C808,-1392 802,-1398 796,-1398"/>
<polyline fill="none" stroke="gray" points="796,-1398 328,-1398 "/>
<path fill="none" stroke="gray" d="M328,-1398C322,-1398 316,-1392 316,-1386"/>
<polyline fill="none" stroke="gray" points="316,-1386 316,-472 "/>
<path fill="none" stroke="gray" d="M316,-472C316,-466 322,-460 328,-460"/>
<text text-anchor="middle" x="562" y="-1384.1" font-family="Times Roman,serif" font-size="11.00" fill="gray">Global</text>
</g>
<!-- \\AuditHelper -->
<g id="node2" class="node"><title>\\AuditHelper</title>
<polygon fill="none" stroke="black" points="766,-1206 676,-1206 676,-1170 766,-1170 766,-1206"/>
<text text-anchor="middle" x="721" y="-1185.1" font-family="Courier,monospace" font-size="11.00">AuditHelper</text>
</g>
<!-- \\AppHelper -->
<g id="node22" class="node"><title>\\AppHelper</title>
<ellipse fill="none" stroke="black" cx="403" cy="-434" rx="65.0538" ry="18.3848"/>
<text text-anchor="middle" x="403" y="-430.4" font-family="Times Roman,serif" font-size="14.00" fill="gray">\AppHelper</text>
</g>
<!-- \\AuditHelper&#45;&gt;\\AppHelper -->
<g id="edge3" class="edge"><title>\\AuditHelper&#45;&gt;\\AppHelper</title>
<path fill="none" stroke="black" d="M675.491,-1181.81C662.834,-1177.86 650.298,-1171.44 642,-1161 544.006,-1037.72 679.718,-568.971 570,-456 544.688,-429.938 504.613,-423.99 470.065,-424.772"/>
<polygon fill="none" stroke="black" points="469.862,-421.277 460.015,-425.187 470.151,-428.271 469.862,-421.277"/>
</g>
<!-- \\AuditHelperTest -->
<g id="node3" class="node"><title>\\AuditHelperTest</title>
<polygon fill="none" stroke="black" points="780,-1098 662,-1098 662,-1062 780,-1062 780,-1098"/>
<text text-anchor="middle" x="721" y="-1077.1" font-family="Courier,monospace" font-size="11.00">AuditHelperTest</text>
</g>
<!-- \\CakeTestCase -->
<g id="node24" class="node"><title>\\CakeTestCase</title>
<ellipse fill="none" stroke="black" cx="403" cy="-380" rx="82.0244" ry="18.3848"/>
<text text-anchor="middle" x="403" y="-376.4" font-family="Times Roman,serif" font-size="14.00" fill="gray">\CakeTestCase</text>
</g>
<!-- \\AuditHelperTest&#45;&gt;\\CakeTestCase -->
<g id="edge5" class="edge"><title>\\AuditHelperTest&#45;&gt;\\CakeTestCase</title>
<path fill="none" stroke="black" d="M661.77,-1068.3C654.194,-1064.53 647.261,-1059.56 642,-1053 461.196,-827.685 769.179,-616.247 570,-407 549.441,-385.402 518.922,-376.688 489.577,-374.037"/>
<polygon fill="none" stroke="black" points="489.477,-370.522 479.264,-373.34 489.006,-377.506 489.477,-370.522"/>
</g>
<!-- \\Article -->
<g id="node4" class="node"><title>\\Article</title>
<polygon fill="none" stroke="black" points="753,-990 689,-990 689,-954 753,-954 753,-990"/>
<text text-anchor="middle" x="721" y="-969.1" font-family="Courier,monospace" font-size="11.00">Article</text>
</g>
<!-- \\CakeTestModel -->
<g id="node26" class="node"><title>\\CakeTestModel</title>
<ellipse fill="none" stroke="black" cx="403" cy="-326" rx="86.9741" ry="18.3848"/>
<text text-anchor="middle" x="403" y="-322.4" font-family="Times Roman,serif" font-size="14.00" fill="gray">\CakeTestModel</text>
</g>
<!-- \\Article&#45;&gt;\\CakeTestModel -->
<g id="edge7" class="edge"><title>\\Article&#45;&gt;\\CakeTestModel</title>
<path fill="none" stroke="black" d="M688.677,-969.003C672.207,-965.732 653.319,-958.961 642,-945 475.081,-739.113 753.703,-544.061 570,-353 550.602,-332.825 522.504,-323.929 494.872,-320.71"/>
<polygon fill="none" stroke="black" points="495.009,-317.208 484.729,-319.771 494.364,-324.178 495.009,-317.208"/>
</g>
<!-- \\Author -->
<g id="node5" class="node"><title>\\Author</title>
<polygon fill="none" stroke="black" points="749,-1044 693,-1044 693,-1008 749,-1008 749,-1044"/>
<text text-anchor="middle" x="721" y="-1023.1" font-family="Courier,monospace" font-size="11.00">Author</text>
</g>
<!-- \\Author&#45;&gt;\\CakeTestModel -->
<g id="edge9" class="edge"><title>\\Author&#45;&gt;\\CakeTestModel</title>
<path fill="none" stroke="black" d="M692.169,-1023.7C674.917,-1020.74 654.065,-1014.04 642,-999 461.196,-773.685 769.179,-562.247 570,-353 550.613,-332.633 522.369,-323.724 494.604,-320.551"/>
<polygon fill="none" stroke="black" points="494.688,-317.044 484.414,-319.63 494.059,-324.016 494.688,-317.044"/>
</g>
<!-- \\Audit -->
<g id="node6" class="node"><title>\\Audit</title>
<polygon fill="none" stroke="black" points="748,-1314 694,-1314 694,-1278 748,-1278 748,-1314"/>
<text text-anchor="middle" x="721" y="-1293.1" font-family="Courier,monospace" font-size="11.00">Audit</text>
</g>
<!-- \\AuditLogAppModel -->
<g id="node16" class="node"><title>\\AuditLogAppModel</title>
<polygon fill="none" stroke="black" points="465,-1260 341,-1260 341,-1224 465,-1224 465,-1260"/>
<text text-anchor="middle" x="403" y="-1239.1" font-family="Courier,monospace" font-size="11.00">AuditLogAppModel</text>
</g>
<!-- \\Audit&#45;&gt;\\AuditLogAppModel -->
<g id="edge11" class="edge"><title>\\Audit&#45;&gt;\\AuditLogAppModel</title>
<path fill="none" stroke="black" d="M693.887,-1291.4C646.001,-1283.26 544.961,-1266.11 475.531,-1254.32"/>
<polygon fill="none" stroke="black" points="475.972,-1250.84 465.527,-1252.62 474.8,-1257.74 475.972,-1250.84"/>
</g>
<!-- \\AuditDelta -->
<g id="node7" class="node"><title>\\AuditDelta</title>
<polygon fill="none" stroke="black" points="763,-1260 679,-1260 679,-1224 763,-1224 763,-1260"/>
<text text-anchor="middle" x="721" y="-1239.1" font-family="Courier,monospace" font-size="11.00">AuditDelta</text>
</g>
<!-- \\AuditDelta&#45;&gt;\\AuditLogAppModel -->
<g id="edge13" class="edge"><title>\\AuditDelta&#45;&gt;\\AuditLogAppModel</title>
<path fill="none" stroke="black" d="M678.772,-1242C627.079,-1242 538.686,-1242 475.917,-1242"/>
<polygon fill="none" stroke="black" points="475.683,-1238.5 465.683,-1242 475.683,-1245.5 475.683,-1238.5"/>
</g>
<!-- \\AuditableBehaviorTest -->
<g id="node8" class="node"><title>\\AuditableBehaviorTest</title>
<polygon fill="none" stroke="black" points="800,-1152 642,-1152 642,-1116 800,-1116 800,-1152"/>
<text text-anchor="middle" x="721" y="-1131.1" font-family="Courier,monospace" font-size="11.00">AuditableBehaviorTest</text>
</g>
<!-- \\AuditableBehaviorTest&#45;&gt;\\CakeTestCase -->
<g id="edge15" class="edge"><title>\\AuditableBehaviorTest&#45;&gt;\\CakeTestCase</title>
<path fill="none" stroke="black" d="M651.33,-1115.98C647.864,-1113.38 644.707,-1110.4 642,-1107 544.65,-984.622 677.334,-520.723 570,-407 549.533,-385.315 519.033,-376.583 489.677,-373.942"/>
<polygon fill="none" stroke="black" points="489.571,-370.427 479.36,-373.25 489.103,-377.411 489.571,-370.427"/>
</g>
<!-- \\AllAuditLogTest -->
<g id="node9" class="node"><title>\\AllAuditLogTest</title>
<polygon fill="none" stroke="black" points="780,-936 662,-936 662,-900 780,-900 780,-936"/>
<text text-anchor="middle" x="721" y="-915.1" font-family="Courier,monospace" font-size="11.00">AllAuditLogTest</text>
</g>
<!-- \\PHPUnit_Framework_TestSuite -->
<g id="node32" class="node"><title>\\PHPUnit_Framework_TestSuite</title>
<ellipse fill="none" stroke="black" cx="403" cy="-272" rx="166.877" ry="18.3848"/>
<text text-anchor="middle" x="403" y="-268.4" font-family="Times Roman,serif" font-size="14.00" fill="gray">\PHPUnit_Framework_TestSuite</text>
</g>
<!-- \\AllAuditLogTest&#45;&gt;\\PHPUnit_Framework_TestSuite -->
<g id="edge17" class="edge"><title>\\AllAuditLogTest&#45;&gt;\\PHPUnit_Framework_TestSuite</title>
<path fill="none" stroke="black" d="M661.829,-906.249C654.245,-902.487 647.294,-897.53 642,-891 475.081,-685.113 753.703,-490.061 570,-299 565.458,-294.276 560.439,-290.171 555.061,-286.612"/>
<polygon fill="none" stroke="black" points="556.722,-283.528 546.331,-281.458 553.164,-289.556 556.722,-283.528"/>
</g>
<!-- \\User -->
<g id="node10" class="node"><title>\\User</title>
<polygon fill="none" stroke="black" points="748,-882 694,-882 694,-846 748,-846 748,-882"/>
<text text-anchor="middle" x="721" y="-861.1" font-family="Courier,monospace" font-size="11.00">User</text>
</g>
<!-- \\AppModel -->
<g id="node34" class="node"><title>\\AppModel</title>
<ellipse fill="none" stroke="black" cx="82" cy="-734" rx="62.2254" ry="18.3848"/>
<text text-anchor="middle" x="82" y="-730.4" font-family="Times Roman,serif" font-size="14.00" fill="gray">\AppModel</text>
</g>
<!-- \\User&#45;&gt;\\AppModel -->
<g id="edge19" class="edge"><title>\\User&#45;&gt;\\AppModel</title>
<path fill="none" stroke="black" d="M693.766,-861.92C676.251,-859.073 654.505,-852.425 642,-837 475.081,-631.113 768.41,-420.741 570,-245 514.439,-195.787 295.849,-201.102 236,-245 158.601,-301.772 102.306,-609.999 86.4957,-705.665"/>
<polygon fill="none" stroke="black" points="83.006,-705.319 84.8493,-715.752 89.9146,-706.446 83.006,-705.319"/>
</g>
<!-- \\AuditControllerTest -->
<g id="node11" class="node"><title>\\AuditControllerTest</title>
<polygon fill="none" stroke="black" points="793,-828 649,-828 649,-792 793,-792 793,-828"/>
<text text-anchor="middle" x="721" y="-807.1" font-family="Courier,monospace" font-size="11.00">AuditControllerTest</text>
</g>
<!-- \\ControllerTestCase -->
<g id="node36" class="node"><title>\\ControllerTestCase</title>
<ellipse fill="none" stroke="black" cx="403" cy="-180" rx="106.773" ry="18.3848"/>
<text text-anchor="middle" x="403" y="-176.4" font-family="Times Roman,serif" font-size="14.00" fill="gray">\ControllerTestCase</text>
</g>
<!-- \\AuditControllerTest&#45;&gt;\\ControllerTestCase -->
<g id="edge21" class="edge"><title>\\AuditControllerTest&#45;&gt;\\ControllerTestCase</title>
<path fill="none" stroke="black" d="M651.42,-791.909C647.933,-789.324 644.746,-786.372 642,-783 480.477,-584.663 745,-398.553 570,-212 556.523,-197.634 538.726,-188.582 519.777,-183.052"/>
<polygon fill="none" stroke="black" points="520.647,-179.662 510.089,-180.541 518.891,-186.438 520.647,-179.662"/>
</g>
<!-- \\AuthorFixture -->
<g id="node12" class="node"><title>\\AuthorFixture</title>
<polygon fill="none" stroke="black" points="773,-720 669,-720 669,-684 773,-684 773,-720"/>
<text text-anchor="middle" x="721" y="-699.1" font-family="Courier,monospace" font-size="11.00">AuthorFixture</text>
</g>
<!-- \\CakeTestFixture -->
<g id="node38" class="node"><title>\\CakeTestFixture</title>
<ellipse fill="none" stroke="black" cx="403" cy="-126" rx="92.1303" ry="18.3848"/>
<text text-anchor="middle" x="403" y="-122.4" font-family="Times Roman,serif" font-size="14.00" fill="gray">\CakeTestFixture</text>
</g>
<!-- \\AuthorFixture&#45;&gt;\\CakeTestFixture -->
<g id="edge23" class="edge"><title>\\AuthorFixture&#45;&gt;\\CakeTestFixture</title>
<path fill="none" stroke="black" d="M668.737,-693.175C658.557,-689.18 648.913,-683.389 642,-675 493.057,-494.268 733.668,-320.514 570,-153 552.062,-134.64 526.907,-125.669 501.554,-121.817"/>
<polygon fill="none" stroke="black" points="501.824,-118.323 491.464,-120.543 500.947,-125.268 501.824,-118.323"/>
</g>
<!-- \\AuditFixture -->
<g id="node13" class="node"><title>\\AuditFixture</title>
<polygon fill="none" stroke="black" points="770,-666 672,-666 672,-630 770,-630 770,-666"/>
<text text-anchor="middle" x="721" y="-645.1" font-family="Courier,monospace" font-size="11.00">AuditFixture</text>
</g>
<!-- \\AuditFixture&#45;&gt;\\CakeTestFixture -->
<g id="edge25" class="edge"><title>\\AuditFixture&#45;&gt;\\CakeTestFixture</title>
<path fill="none" stroke="black" d="M671.698,-640.166C660.477,-636.158 649.63,-630.113 642,-621 506.9,-459.643 718.239,-302.376 570,-153 552.01,-134.872 526.974,-125.945 501.753,-122.058"/>
<polygon fill="none" stroke="black" points="502.08,-118.572 491.716,-120.767 501.187,-125.514 502.08,-118.572"/>
</g>
<!-- \\AuditDeltaFixture -->
<g id="node14" class="node"><title>\\AuditDeltaFixture</title>
<polygon fill="none" stroke="black" points="786,-612 656,-612 656,-576 786,-576 786,-612"/>
<text text-anchor="middle" x="721" y="-591.1" font-family="Courier,monospace" font-size="11.00">AuditDeltaFixture</text>
</g>
<!-- \\AuditDeltaFixture&#45;&gt;\\CakeTestFixture -->
<g id="edge27" class="edge"><title>\\AuditDeltaFixture&#45;&gt;\\CakeTestFixture</title>
<path fill="none" stroke="black" d="M655.225,-578.187C650.282,-575.099 645.765,-571.409 642,-567 520.712,-424.982 702.844,-284.272 570,-153 551.926,-135.14 526.995,-126.268 501.906,-122.349"/>
<polygon fill="none" stroke="black" points="502.292,-118.87 491.922,-121.04 501.383,-125.81 502.292,-118.87"/>
</g>
<!-- \\ArticleFixture -->
<g id="node15" class="node"><title>\\ArticleFixture</title>
<polygon fill="none" stroke="black" points="776,-774 666,-774 666,-738 776,-738 776,-774"/>
<text text-anchor="middle" x="721" y="-753.1" font-family="Courier,monospace" font-size="11.00">ArticleFixture</text>
</g>
<!-- \\ArticleFixture&#45;&gt;\\CakeTestFixture -->
<g id="edge29" class="edge"><title>\\ArticleFixture&#45;&gt;\\CakeTestFixture</title>
<path fill="none" stroke="black" d="M665.422,-745.898C656.46,-741.973 648.128,-736.533 642,-729 479.193,-528.866 749.121,-338.676 570,-153 552.089,-134.433 526.807,-125.429 501.322,-121.611"/>
<polygon fill="none" stroke="black" points="501.534,-118.111 491.18,-120.354 500.673,-125.057 501.534,-118.111"/>
</g>
<!-- \\AuditLogAppModel&#45;&gt;\\AppModel -->
<g id="edge31" class="edge"><title>\\AuditLogAppModel&#45;&gt;\\AppModel</title>
<path fill="none" stroke="black" d="M340.206,-1249.04C305.789,-1249.45 264.466,-1243.85 236,-1220 162.92,-1158.76 103.773,-856.378 86.8675,-762.113"/>
<polygon fill="none" stroke="black" points="90.2961,-761.402 85.1027,-752.167 83.4037,-762.625 90.2961,-761.402"/>
</g>
<!-- \\AuditableBehavior -->
<g id="node17" class="node"><title>\\AuditableBehavior</title>
<polygon fill="none" stroke="black" points="786,-558 656,-558 656,-522 786,-522 786,-558"/>
<text text-anchor="middle" x="721" y="-537.1" font-family="Courier,monospace" font-size="11.00">AuditableBehavior</text>
</g>
<!-- \\ModelBehavior -->
<g id="node44" class="node"><title>\\ModelBehavior</title>
<ellipse fill="none" stroke="black" cx="403" cy="-72" rx="86.9741" ry="18.3848"/>
<text text-anchor="middle" x="403" y="-68.4" font-family="Times Roman,serif" font-size="14.00" fill="gray">\ModelBehavior</text>
</g>
<!-- \\AuditableBehavior&#45;&gt;\\ModelBehavior -->
<g id="edge33" class="edge"><title>\\AuditableBehavior&#45;&gt;\\ModelBehavior</title>
<path fill="none" stroke="black" d="M655.225,-524.187C650.282,-521.099 645.765,-517.409 642,-513 520.712,-370.982 702.844,-230.272 570,-99 550.55,-79.7798 523.158,-70.9688 496.174,-67.5377"/>
<polygon fill="none" stroke="black" points="496.175,-64.0194 485.869,-66.4756 495.457,-70.9825 496.175,-64.0194"/>
</g>
<!-- \\AuditLogSchema -->
<g id="node18" class="node"><title>\\AuditLogSchema</title>
<polygon fill="none" stroke="black" points="776,-504 666,-504 666,-468 776,-468 776,-504"/>
<text text-anchor="middle" x="721" y="-483.1" font-family="Courier,monospace" font-size="11.00">AuditLogSchema</text>
</g>
<!-- \\CakeSchema -->
<g id="node46" class="node"><title>\\CakeSchema</title>
<ellipse fill="none" stroke="black" cx="403" cy="-18" rx="77.0746" ry="18.3848"/>
<text text-anchor="middle" x="403" y="-14.4" font-family="Times Roman,serif" font-size="14.00" fill="gray">\CakeSchema</text>
</g>
<!-- \\AuditLogSchema&#45;&gt;\\CakeSchema -->
<g id="edge35" class="edge"><title>\\AuditLogSchema&#45;&gt;\\CakeSchema</title>
<path fill="none" stroke="black" d="M717.351,-467.794C701.795,-392.021 638.67,-102.91 570,-45 547.506,-26.0307 517.041,-17.7736 488.288,-14.7495"/>
<polygon fill="none" stroke="black" points="488.467,-11.2521 478.206,-13.8891 487.872,-18.2268 488.467,-11.2521"/>
</g>
<!-- \\AuditLogAppController -->
<g id="node19" class="node"><title>\\AuditLogAppController</title>
<polygon fill="none" stroke="black" points="482,-1368 324,-1368 324,-1332 482,-1332 482,-1368"/>
<text text-anchor="middle" x="403" y="-1347.1" font-family="Courier,monospace" font-size="11.00">AuditLogAppController</text>
</g>
<!-- \\AppController -->
<g id="node48" class="node"><title>\\AppController</title>
<ellipse fill="none" stroke="black" cx="82" cy="-1350" rx="82.0244" ry="18.3848"/>
<text text-anchor="middle" x="82" y="-1346.4" font-family="Times Roman,serif" font-size="14.00" fill="gray">\AppController</text>
</g>
<!-- \\AuditLogAppController&#45;&gt;\\AppController -->
<g id="edge37" class="edge"><title>\\AuditLogAppController&#45;&gt;\\AppController</title>
<path fill="none" stroke="black" d="M323.652,-1350C278.421,-1350 221.521,-1350 174.298,-1350"/>
<polygon fill="none" stroke="black" points="174.068,-1346.5 164.068,-1350 174.068,-1353.5 174.068,-1346.5"/>
</g>
<!-- \\AuditController -->
<g id="node20" class="node"><title>\\AuditController</title>
<polygon fill="none" stroke="black" points="780,-1368 662,-1368 662,-1332 780,-1332 780,-1368"/>
<text text-anchor="middle" x="721" y="-1347.1" font-family="Courier,monospace" font-size="11.00">AuditController</text>
</g>
<!-- \\AuditController&#45;&gt;\\AuditLogAppController -->
<g id="edge39" class="edge"><title>\\AuditController&#45;&gt;\\AuditLogAppController</title>
<path fill="none" stroke="black" d="M661.932,-1350C614.347,-1350 546.681,-1350 492.454,-1350"/>
<polygon fill="none" stroke="black" points="492.146,-1346.5 482.146,-1350 492.146,-1353.5 492.146,-1346.5"/>
</g>
</g>
</svg>
