<?xml version="1.0" encoding="UTF-8" standalone="no"?>
<!DOCTYPE svg PUBLIC "-//W3C//DTD SVG 1.1//EN"
 "http://www.w3.org/Graphics/SVG/1.1/DTD/svg11.dtd">
<!-- Generated by graphviz version 2.26.3 (20100126.1600)
 -->
<!-- Title: G Pages: 1 -->
<svg width="824pt" height="1484pt"
 viewBox="0.00 0.00 824.00 1484.00" xmlns="http://www.w3.org/2000/svg" xmlns:xlink="http://www.w3.org/1999/xlink">
<g id="graph1" class="graph" transform="scale(1 1) rotate(0) translate(4 1480)">
<title>G</title>
<polygon fill="white" stroke="white" points="-4,5 -4,-1480 821,-1480 821,5 -4,5"/>
<g id="graph2" class="cluster"><title>cluster_Global</title>
<polyline fill="none" stroke="gray" points="328,-476 796,-476 "/>
<path fill="none" stroke="gray" d="M796,-476C802,-476 808,-482 808,-488"/>
<polyline fill="none" stroke="gray" points="808,-488 808,-1456 "/>
<path fill="none" stroke="gray" d="M808,-1456C808,-1462 802,-1468 796,-1468"/>
<polyline fill="none" stroke="gray" points="796,-1468 328,-1468 "/>
<path fill="none" stroke="gray" d="M328,-1468C322,-1468 316,-1462 316,-1456"/>
<polyline fill="none" stroke="gray" points="316,-1456 316,-488 "/>
<path fill="none" stroke="gray" d="M316,-488C316,-482 322,-476 328,-476"/>
<text text-anchor="middle" x="562" y="-1454.1" font-family="Times Roman,serif" font-size="11.00" fill="gray">Global</text>
</g>
<!-- \\AuditLogSchema -->
<g id="node2" class="node"><title>\\AuditLogSchema</title>
<polygon fill="none" stroke="black" points="776,-1384 666,-1384 666,-1348 776,-1348 776,-1384"/>
<text text-anchor="middle" x="721" y="-1363.1" font-family="Courier,monospace" font-size="11.00">AuditLogSchema</text>
</g>
<!-- \\CakeSchema -->
<g id="node22" class="node"><title>\\CakeSchema</title>
<ellipse fill="none" stroke="black" cx="403" cy="-450" rx="77.0746" ry="18.3848"/>
<text text-anchor="middle" x="403" y="-446.4" font-family="Times Roman,serif" font-size="14.00" fill="gray">\CakeSchema</text>
</g>
<!-- \\AuditLogSchema&#45;&gt;\\CakeSchema -->
<g id="edge3" class="edge"><title>\\AuditLogSchema&#45;&gt;\\CakeSchema</title>
<path fill="none" stroke="black" d="M665.164,-1356.1C656.227,-1352.16 647.971,-1346.66 642,-1339 523.136,-1186.53 703.376,-611.955 570,-472 547.062,-447.931 511.559,-440.902 479.176,-440.524"/>
<polygon fill="none" stroke="black" points="478.758,-437.028 468.791,-440.622 478.824,-444.028 478.758,-437.028"/>
</g>
<!-- \\AuditLogAppController -->
<g id="node3" class="node"><title>\\AuditLogAppController</title>
<polygon fill="none" stroke="black" points="482,-1438 324,-1438 324,-1402 482,-1402 482,-1438"/>
<text text-anchor="middle" x="403" y="-1417.1" font-family="Courier,monospace" font-size="11.00">AuditLogAppController</text>
</g>
<!-- \\AppController -->
<g id="node24" class="node"><title>\\AppController</title>
<ellipse fill="none" stroke="black" cx="82" cy="-1420" rx="82.0244" ry="18.3848"/>
<text text-anchor="middle" x="82" y="-1416.4" font-family="Times Roman,serif" font-size="14.00" fill="gray">\AppController</text>
</g>
<!-- \\AuditLogAppController&#45;&gt;\\AppController -->
<g id="edge5" class="edge"><title>\\AuditLogAppController&#45;&gt;\\AppController</title>
<path fill="none" stroke="black" d="M323.652,-1420C278.421,-1420 221.521,-1420 174.298,-1420"/>
<polygon fill="none" stroke="black" points="174.068,-1416.5 164.068,-1420 174.068,-1423.5 174.068,-1416.5"/>
</g>
<!-- \\AuditController -->
<g id="node4" class="node"><title>\\AuditController</title>
<polygon fill="none" stroke="black" points="780,-1438 662,-1438 662,-1402 780,-1402 780,-1438"/>
<text text-anchor="middle" x="721" y="-1417.1" font-family="Courier,monospace" font-size="11.00">AuditController</text>
</g>
<!-- \\AuditController&#45;&gt;\\AuditLogAppController -->
<g id="edge7" class="edge"><title>\\AuditController&#45;&gt;\\AuditLogAppController</title>
<path fill="none" stroke="black" d="M661.932,-1420C614.347,-1420 546.681,-1420 492.454,-1420"/>
<polygon fill="none" stroke="black" points="492.146,-1416.5 482.146,-1420 492.146,-1423.5 492.146,-1416.5"/>
</g>
<!-- \\Audit -->
<g id="node5" class="node"><title>\\Audit</title>
<polygon fill="none" stroke="black" points="748,-1330 694,-1330 694,-1294 748,-1294 748,-1330"/>
<text text-anchor="middle" x="721" y="-1309.1" font-family="Courier,monospace" font-size="11.00">Audit</text>
</g>
<!-- \\CakeTestModel -->
<g id="node27" class="node"><title>\\CakeTestModel</title>
<ellipse fill="none" stroke="black" cx="403" cy="-396" rx="86.9741" ry="18.3848"/>
<text text-anchor="middle" x="403" y="-392.4" font-family="Times Roman,serif" font-size="14.00" fill="gray">\CakeTestModel</text>
</g>
<!-- \\Audit&#45;&gt;\\CakeTestModel -->
<g id="edge9" class="edge"><title>\\Audit&#45;&gt;\\CakeTestModel</title>
<path fill="none" stroke="black" d="M693.96,-1310.13C676.297,-1307.39 654.301,-1300.77 642,-1285 523.781,-1133.43 700.593,-564.05 570,-423 550.719,-402.175 522.199,-393.224 494.162,-390.151"/>
<polygon fill="none" stroke="black" points="494.134,-386.636 483.873,-389.274 493.539,-393.611 494.134,-386.636"/>
</g>
<!-- \\AuditableBehavior -->
<g id="node6" class="node"><title>\\AuditableBehavior</title>
<polygon fill="none" stroke="black" points="786,-1114 656,-1114 656,-1078 786,-1078 786,-1114"/>
<text text-anchor="middle" x="721" y="-1093.1" font-family="Courier,monospace" font-size="11.00">AuditableBehavior</text>
</g>
<!-- \\ModelBehavior -->
<g id="node29" class="node"><title>\\ModelBehavior</title>
<ellipse fill="none" stroke="black" cx="403" cy="-342" rx="86.9741" ry="18.3848"/>
<text text-anchor="middle" x="403" y="-338.4" font-family="Times Roman,serif" font-size="14.00" fill="gray">\ModelBehavior</text>
</g>
<!-- \\AuditableBehavior&#45;&gt;\\ModelBehavior -->
<g id="edge11" class="edge"><title>\\AuditableBehavior&#45;&gt;\\ModelBehavior</title>
<path fill="none" stroke="black" d="M655.258,-1080.7C650.24,-1077.5 645.7,-1073.65 642,-1069 544.65,-946.622 677.334,-482.723 570,-369 550.7,-348.551 522.477,-339.621 494.706,-336.454"/>
<polygon fill="none" stroke="black" points="494.785,-332.947 484.512,-335.537 494.159,-339.919 494.785,-332.947"/>
</g>
<!-- \\AuditDelta -->
<g id="node7" class="node"><title>\\AuditDelta</title>
<polygon fill="none" stroke="black" points="763,-1276 679,-1276 679,-1240 763,-1240 763,-1276"/>
<text text-anchor="middle" x="721" y="-1255.1" font-family="Courier,monospace" font-size="11.00">AuditDelta</text>
</g>
<!-- \\AuditDelta&#45;&gt;\\CakeTestModel -->
<g id="edge13" class="edge"><title>\\AuditDelta&#45;&gt;\\CakeTestModel</title>
<path fill="none" stroke="black" d="M678.711,-1252.85C664.957,-1249.02 650.946,-1242.4 642,-1231 530.74,-1089.16 692.836,-554.937 570,-423 550.75,-402.324 522.39,-393.374 494.483,-390.256"/>
<polygon fill="none" stroke="black" points="494.506,-386.745 484.239,-389.361 493.896,-393.718 494.506,-386.745"/>
</g>
<!-- \\AuditLogAppModel -->
<g id="node8" class="node"><title>\\AuditLogAppModel</title>
<polygon fill="none" stroke="black" points="783,-1060 659,-1060 659,-1024 783,-1024 783,-1060"/>
<text text-anchor="middle" x="721" y="-1039.1" font-family="Courier,monospace" font-size="11.00">AuditLogAppModel</text>
</g>
<!-- \\AppModel -->
<g id="node32" class="node"><title>\\AppModel</title>
<ellipse fill="none" stroke="black" cx="403" cy="-288" rx="62.2254" ry="18.3848"/>
<text text-anchor="middle" x="403" y="-284.4" font-family="Times Roman,serif" font-size="14.00" fill="gray">\AppModel</text>
</g>
<!-- \\AuditLogAppModel&#45;&gt;\\AppModel -->
<g id="edge15" class="edge"><title>\\AuditLogAppModel&#45;&gt;\\AppModel</title>
<path fill="none" stroke="black" d="M658.247,-1028.49C652.044,-1024.98 646.421,-1020.56 642,-1015 544.65,-892.622 677.334,-428.723 570,-315 545.047,-288.562 505.182,-281.378 470.658,-281.01"/>
<polygon fill="none" stroke="black" points="470.583,-277.51 460.61,-281.088 470.637,-284.51 470.583,-277.51"/>
</g>
<!-- \\User -->
<g id="node9" class="node"><title>\\User</title>
<polygon fill="none" stroke="black" points="748,-1006 694,-1006 694,-970 748,-970 748,-1006"/>
<text text-anchor="middle" x="721" y="-985.1" font-family="Courier,monospace" font-size="11.00">User</text>
</g>
<!-- \\User&#45;&gt;\\AppModel -->
<g id="edge17" class="edge"><title>\\User&#45;&gt;\\AppModel</title>
<path fill="none" stroke="black" d="M693.715,-985.961C676.179,-983.131 654.428,-976.487 642,-961 461.196,-735.685 769.179,-524.247 570,-315 544.935,-288.668 505.066,-281.488 470.568,-281.095"/>
<polygon fill="none" stroke="black" points="470.504,-277.595 460.529,-281.165 470.553,-284.595 470.504,-277.595"/>
</g>
<!-- \\AuditControllerTest -->
<g id="node10" class="node"><title>\\AuditControllerTest</title>
<polygon fill="none" stroke="black" points="793,-952 649,-952 649,-916 793,-916 793,-952"/>
<text text-anchor="middle" x="721" y="-931.1" font-family="Courier,monospace" font-size="11.00">AuditControllerTest</text>
</g>
<!-- \\ControllerTestCase -->
<g id="node35" class="node"><title>\\ControllerTestCase</title>
<ellipse fill="none" stroke="black" cx="403" cy="-234" rx="106.773" ry="18.3848"/>
<text text-anchor="middle" x="403" y="-230.4" font-family="Times Roman,serif" font-size="14.00" fill="gray">\ControllerTestCase</text>
</g>
<!-- \\AuditControllerTest&#45;&gt;\\ControllerTestCase -->
<g id="edge19" class="edge"><title>\\AuditControllerTest&#45;&gt;\\ControllerTestCase</title>
<path fill="none" stroke="black" d="M651.363,-915.955C647.89,-913.359 644.721,-910.391 642,-907 461.196,-681.685 769.179,-470.247 570,-261 556.142,-246.441 537.758,-237.737 518.259,-232.798"/>
<polygon fill="none" stroke="black" points="518.815,-229.336 508.297,-230.606 517.311,-236.173 518.815,-229.336"/>
</g>
<!-- \\Article -->
<g id="node11" class="node"><title>\\Article</title>
<polygon fill="none" stroke="black" points="753,-1222 689,-1222 689,-1186 753,-1186 753,-1222"/>
<text text-anchor="middle" x="721" y="-1201.1" font-family="Courier,monospace" font-size="11.00">Article</text>
</g>
<!-- \\Article&#45;&gt;\\CakeTestModel -->
<g id="edge21" class="edge"><title>\\Article&#45;&gt;\\CakeTestModel</title>
<path fill="none" stroke="black" d="M688.931,-1201.2C672.325,-1197.99 653.227,-1191.22 642,-1177 537.697,-1044.9 685.083,-545.828 570,-423 550.685,-402.385 522.308,-393.45 494.406,-390.328"/>
<polygon fill="none" stroke="black" points="494.433,-386.817 484.166,-389.429 493.822,-393.79 494.433,-386.817"/>
</g>
<!-- \\Author -->
<g id="node12" class="node"><title>\\Author</title>
<polygon fill="none" stroke="black" points="749,-1168 693,-1168 693,-1132 749,-1132 749,-1168"/>
<text text-anchor="middle" x="721" y="-1147.1" font-family="Courier,monospace" font-size="11.00">Author</text>
</g>
<!-- \\Author&#45;&gt;\\CakeTestModel -->
<g id="edge23" class="edge"><title>\\Author&#45;&gt;\\CakeTestModel</title>
<path fill="none" stroke="black" d="M692.124,-1147.74C674.855,-1144.78 654.001,-1138.09 642,-1123 544.65,-1000.62 677.334,-536.723 570,-423 550.7,-402.551 522.477,-393.621 494.706,-390.454"/>
<polygon fill="none" stroke="black" points="494.785,-386.947 484.512,-389.537 494.159,-393.919 494.785,-386.947"/>
</g>
<!-- \\AuditableBehaviorTest -->
<g id="node13" class="node"><title>\\AuditableBehaviorTest</title>
<polygon fill="none" stroke="black" points="800,-898 642,-898 642,-862 800,-862 800,-898"/>
<text text-anchor="middle" x="721" y="-877.1" font-family="Courier,monospace" font-size="11.00">AuditableBehaviorTest</text>
</g>
<!-- \\CakeTestCase -->
<g id="node39" class="node"><title>\\CakeTestCase</title>
<ellipse fill="none" stroke="black" cx="403" cy="-180" rx="82.0244" ry="18.3848"/>
<text text-anchor="middle" x="403" y="-176.4" font-family="Times Roman,serif" font-size="14.00" fill="gray">\CakeTestCase</text>
</g>
<!-- \\AuditableBehaviorTest&#45;&gt;\\CakeTestCase -->
<g id="edge25" class="edge"><title>\\AuditableBehaviorTest&#45;&gt;\\CakeTestCase</title>
<path fill="none" stroke="black" d="M651.363,-861.955C647.89,-859.359 644.721,-856.391 642,-853 461.196,-627.685 769.179,-416.247 570,-207 549.441,-185.402 518.922,-176.688 489.577,-174.037"/>
<polygon fill="none" stroke="black" points="489.477,-170.522 479.264,-173.34 489.006,-177.506 489.477,-170.522"/>
</g>
<!-- \\AllAuditLogTest -->
<g id="node14" class="node"><title>\\AllAuditLogTest</title>
<polygon fill="none" stroke="black" points="780,-790 662,-790 662,-754 780,-754 780,-790"/>
<text text-anchor="middle" x="721" y="-769.1" font-family="Courier,monospace" font-size="11.00">AllAuditLogTest</text>
</g>
<!-- \\PHPUnit_Framework_TestSuite -->
<g id="node41" class="node"><title>\\PHPUnit_Framework_TestSuite</title>
<ellipse fill="none" stroke="black" cx="403" cy="-126" rx="166.877" ry="18.3848"/>
<text text-anchor="middle" x="403" y="-122.4" font-family="Times Roman,serif" font-size="14.00" fill="gray">\PHPUnit_Framework_TestSuite</text>
</g>
<!-- \\AllAuditLogTest&#45;&gt;\\PHPUnit_Framework_TestSuite -->
<g id="edge27" class="edge"><title>\\AllAuditLogTest&#45;&gt;\\PHPUnit_Framework_TestSuite</title>
<path fill="none" stroke="black" d="M661.829,-760.249C654.245,-756.487 647.294,-751.53 642,-745 475.081,-539.113 753.703,-344.061 570,-153 565.458,-148.276 560.439,-144.171 555.061,-140.612"/>
<polygon fill="none" stroke="black" points="556.722,-137.528 546.331,-135.458 553.164,-143.556 556.722,-137.528"/>
</g>
<!-- \\AuditHelperTest -->
<g id="node15" class="node"><title>\\AuditHelperTest</title>
<polygon fill="none" stroke="black" points="780,-844 662,-844 662,-808 780,-808 780,-844"/>
<text text-anchor="middle" x="721" y="-823.1" font-family="Courier,monospace" font-size="11.00">AuditHelperTest</text>
</g>
<!-- \\AuditHelperTest&#45;&gt;\\CakeTestCase -->
<g id="edge29" class="edge"><title>\\AuditHelperTest&#45;&gt;\\CakeTestCase</title>
<path fill="none" stroke="black" d="M661.829,-814.249C654.245,-810.487 647.294,-805.53 642,-799 475.081,-593.113 753.703,-398.061 570,-207 549.424,-185.6 519.06,-176.89 489.846,-174.185"/>
<polygon fill="none" stroke="black" points="489.798,-170.673 479.579,-173.468 489.311,-177.656 489.798,-170.673"/>
</g>
<!-- \\AuditFixture -->
<g id="node16" class="node"><title>\\AuditFixture</title>
<polygon fill="none" stroke="black" points="770,-736 672,-736 672,-700 770,-700 770,-736"/>
<text text-anchor="middle" x="721" y="-715.1" font-family="Courier,monospace" font-size="11.00">AuditFixture</text>
</g>
<!-- \\CakeTestFixture -->
<g id="node44" class="node"><title>\\CakeTestFixture</title>
<ellipse fill="none" stroke="black" cx="403" cy="-72" rx="92.1303" ry="18.3848"/>
<text text-anchor="middle" x="403" y="-68.4" font-family="Times Roman,serif" font-size="14.00" fill="gray">\CakeTestFixture</text>
</g>
<!-- \\AuditFixture&#45;&gt;\\CakeTestFixture -->
<g id="edge31" class="edge"><title>\\AuditFixture&#45;&gt;\\CakeTestFixture</title>
<path fill="none" stroke="black" d="M671.908,-710.477C660.544,-706.468 649.576,-700.345 642,-691 475.081,-485.113 753.703,-290.061 570,-99 552.03,-80.3099 526.594,-71.2995 500.978,-67.5153"/>
<polygon fill="none" stroke="black" points="501.135,-64.0086 490.785,-66.2742 500.288,-70.9573 501.135,-64.0086"/>
</g>
<!-- \\ArticleFixture -->
<g id="node17" class="node"><title>\\ArticleFixture</title>
<polygon fill="none" stroke="black" points="776,-682 666,-682 666,-646 776,-646 776,-682"/>
<text text-anchor="middle" x="721" y="-661.1" font-family="Courier,monospace" font-size="11.00">ArticleFixture</text>
</g>
<!-- \\ArticleFixture&#45;&gt;\\CakeTestFixture -->
<g id="edge33" class="edge"><title>\\ArticleFixture&#45;&gt;\\CakeTestFixture</title>
<path fill="none" stroke="black" d="M665.475,-653.855C656.508,-649.933 648.161,-644.507 642,-637 488.951,-450.521 738.244,-271.893 570,-99 552.008,-80.5111 526.702,-71.5313 501.218,-67.7119"/>
<polygon fill="none" stroke="black" points="501.432,-64.2117 491.077,-66.4535 500.57,-71.1584 501.432,-64.2117"/>
</g>
<!-- \\AuthorFixture -->
<g id="node18" class="node"><title>\\AuthorFixture</title>
<polygon fill="none" stroke="black" points="773,-628 669,-628 669,-592 773,-592 773,-628"/>
<text text-anchor="middle" x="721" y="-607.1" font-family="Courier,monospace" font-size="11.00">AuthorFixture</text>
</g>
<!-- \\AuthorFixture&#45;&gt;\\CakeTestFixture -->
<g id="edge35" class="edge"><title>\\AuthorFixture&#45;&gt;\\CakeTestFixture</title>
<path fill="none" stroke="black" d="M668.803,-601.12C658.619,-597.128 648.958,-591.352 642,-583 502.801,-415.906 722.808,-253.747 570,-99 552.056,-80.8278 527.033,-71.8856 501.812,-67.9998"/>
<polygon fill="none" stroke="black" points="502.138,-64.513 491.774,-66.7099 501.246,-71.4559 502.138,-64.513"/>
</g>
<!-- \\AuditDeltaFixture -->
<g id="node19" class="node"><title>\\AuditDeltaFixture</title>
<polygon fill="none" stroke="black" points="786,-574 656,-574 656,-538 786,-538 786,-574"/>
<text text-anchor="middle" x="721" y="-553.1" font-family="Courier,monospace" font-size="11.00">AuditDeltaFixture</text>
</g>
<!-- \\AuditDeltaFixture&#45;&gt;\\CakeTestFixture -->
<g id="edge37" class="edge"><title>\\AuditDeltaFixture&#45;&gt;\\CakeTestFixture</title>
<path fill="none" stroke="black" d="M655.195,-540.213C650.259,-537.119 645.751,-533.421 642,-529 516.623,-381.256 707.401,-235.632 570,-99 551.983,-81.0834 527.07,-72.193 501.98,-68.2743"/>
<polygon fill="none" stroke="black" points="502.365,-64.7948 491.995,-66.967 501.456,-71.7356 502.365,-64.7948"/>
</g>
<!-- \\AuditHelper -->
<g id="node20" class="node"><title>\\AuditHelper</title>
<polygon fill="none" stroke="black" points="766,-520 676,-520 676,-484 766,-484 766,-520"/>
<text text-anchor="middle" x="721" y="-499.1" font-family="Courier,monospace" font-size="11.00">AuditHelper</text>
</g>
<!-- \\AppHelper -->
<g id="node49" class="node"><title>\\AppHelper</title>
<ellipse fill="none" stroke="black" cx="403" cy="-18" rx="65.0538" ry="18.3848"/>
<text text-anchor="middle" x="403" y="-14.4" font-family="Times Roman,serif" font-size="14.00" fill="gray">\AppHelper</text>
</g>
<!-- \\AuditHelper&#45;&gt;\\AppHelper -->
<g id="edge39" class="edge"><title>\\AuditHelper&#45;&gt;\\AppHelper</title>
<path fill="none" stroke="black" d="M717.604,-483.93C702.719,-406.681 640.819,-105.378 570,-45 544.388,-23.1641 508.242,-15.4673 476.124,-13.6266"/>
<polygon fill="none" stroke="black" points="475.986,-10.1185 465.857,-13.2242 475.712,-17.1132 475.986,-10.1185"/>
</g>
</g>
</svg>
