<?xml version="1.0" encoding="UTF-8" standalone="no"?>
<!DOCTYPE svg PUBLIC "-//W3C//DTD SVG 1.1//EN"
 "http://www.w3.org/Graphics/SVG/1.1/DTD/svg11.dtd">
<!-- Generated by graphviz version 2.26.3 (20100126.1600)
 -->
<!-- Title: G Pages: 1 -->
<svg width="588pt" height="692pt"
 viewBox="0.00 0.00 588.00 692.00" xmlns="http://www.w3.org/2000/svg" xmlns:xlink="http://www.w3.org/1999/xlink">
<g id="graph1" class="graph" transform="scale(1 1) rotate(0) translate(4 688)">
<title>G</title>
<polygon fill="white" stroke="white" points="-4,5 -4,-688 585,-688 585,5 -4,5"/>
<g id="graph2" class="cluster"><title>cluster_Global</title>
<polyline fill="none" stroke="gray" points="410,-8 560,-8 "/>
<path fill="none" stroke="gray" d="M560,-8C566,-8 572,-14 572,-20"/>
<polyline fill="none" stroke="gray" points="572,-20 572,-664 "/>
<path fill="none" stroke="gray" d="M572,-664C572,-670 566,-676 560,-676"/>
<polyline fill="none" stroke="gray" points="560,-676 410,-676 "/>
<path fill="none" stroke="gray" d="M410,-676C404,-676 398,-670 398,-664"/>
<polyline fill="none" stroke="gray" points="398,-664 398,-20 "/>
<path fill="none" stroke="gray" d="M398,-20C398,-14 404,-8 410,-8"/>
<text text-anchor="middle" x="485" y="-662.1" font-family="Times Roman,serif" font-size="11.00" fill="gray">Global</text>
</g>
<!-- \\AuditLogSchema -->
<g id="node2" class="node"><title>\\AuditLogSchema</title>
<polygon fill="none" stroke="black" points="540,-646 430,-646 430,-610 540,-610 540,-646"/>
<text text-anchor="middle" x="485" y="-625.1" font-family="Courier,monospace" font-size="11.00">AuditLogSchema</text>
</g>
<!-- \\CakeSchema -->
<g id="node15" class="node"><title>\\CakeSchema</title>
<ellipse fill="none" stroke="black" cx="167" cy="-628" rx="77.0746" ry="18.3848"/>
<text text-anchor="middle" x="167" y="-624.4" font-family="Times Roman,serif" font-size="14.00" fill="gray">\CakeSchema</text>
</g>
<!-- \\AuditLogSchema&#45;&gt;\\CakeSchema -->
<g id="edge3" class="edge"><title>\\AuditLogSchema&#45;&gt;\\CakeSchema</title>
<path fill="none" stroke="black" d="M429.245,-628C380.95,-628 310.266,-628 254.448,-628"/>
<polygon fill="none" stroke="black" points="254.207,-624.5 244.207,-628 254.207,-631.5 254.207,-624.5"/>
</g>
<!-- \\ArticleFixture -->
<g id="node3" class="node"><title>\\ArticleFixture</title>
<polygon fill="none" stroke="black" points="540,-592 430,-592 430,-556 540,-556 540,-592"/>
<text text-anchor="middle" x="485" y="-571.1" font-family="Courier,monospace" font-size="11.00">ArticleFixture</text>
</g>
<!-- \\CakeTestFixture -->
<g id="node17" class="node"><title>\\CakeTestFixture</title>
<ellipse fill="none" stroke="black" cx="167" cy="-493" rx="92.1303" ry="18.3848"/>
<text text-anchor="middle" x="167" y="-489.4" font-family="Times Roman,serif" font-size="14.00" fill="gray">\CakeTestFixture</text>
</g>
<!-- \\ArticleFixture&#45;&gt;\\CakeTestFixture -->
<g id="edge5" class="edge"><title>\\ArticleFixture&#45;&gt;\\CakeTestFixture</title>
<path fill="none" stroke="black" d="M429.245,-559.798C374.519,-545.859 291.046,-524.597 233.029,-509.819"/>
<polygon fill="none" stroke="black" points="233.781,-506.399 223.226,-507.322 232.053,-513.182 233.781,-506.399"/>
</g>
<!-- \\AuditDeltaFixture -->
<g id="node4" class="node"><title>\\AuditDeltaFixture</title>
<polygon fill="none" stroke="black" points="550,-538 420,-538 420,-502 550,-502 550,-538"/>
<text text-anchor="middle" x="485" y="-517.1" font-family="Courier,monospace" font-size="11.00">AuditDeltaFixture</text>
</g>
<!-- \\AuditDeltaFixture&#45;&gt;\\CakeTestFixture -->
<g id="edge7" class="edge"><title>\\AuditDeltaFixture&#45;&gt;\\CakeTestFixture</title>
<path fill="none" stroke="black" d="M419.496,-514.438C374.07,-510.581 312.853,-505.384 262.073,-501.072"/>
<polygon fill="none" stroke="black" points="262.325,-497.581 252.064,-500.222 261.732,-504.556 262.325,-497.581"/>
</g>
<!-- \\AuthorFixture -->
<g id="node5" class="node"><title>\\AuthorFixture</title>
<polygon fill="none" stroke="black" points="537,-484 433,-484 433,-448 537,-448 537,-484"/>
<text text-anchor="middle" x="485" y="-463.1" font-family="Courier,monospace" font-size="11.00">AuthorFixture</text>
</g>
<!-- \\AuthorFixture&#45;&gt;\\CakeTestFixture -->
<g id="edge9" class="edge"><title>\\AuthorFixture&#45;&gt;\\CakeTestFixture</title>
<path fill="none" stroke="black" d="M432.845,-470.428C386.648,-474.351 318.054,-480.175 262.114,-484.924"/>
<polygon fill="none" stroke="black" points="261.492,-481.464 251.824,-485.798 262.085,-488.439 261.492,-481.464"/>
</g>
<!-- \\AuditFixture -->
<g id="node6" class="node"><title>\\AuditFixture</title>
<polygon fill="none" stroke="black" points="534,-430 436,-430 436,-394 534,-394 534,-430"/>
<text text-anchor="middle" x="485" y="-409.1" font-family="Courier,monospace" font-size="11.00">AuditFixture</text>
</g>
<!-- \\AuditFixture&#45;&gt;\\CakeTestFixture -->
<g id="edge11" class="edge"><title>\\AuditFixture&#45;&gt;\\CakeTestFixture</title>
<path fill="none" stroke="black" d="M435.661,-424.567C381.21,-438.437 293.304,-460.828 232.969,-476.197"/>
<polygon fill="none" stroke="black" points="231.986,-472.835 223.159,-478.695 233.713,-479.619 231.986,-472.835"/>
</g>
<!-- \\Article -->
<g id="node7" class="node"><title>\\Article</title>
<polygon fill="none" stroke="black" points="517,-376 453,-376 453,-340 517,-340 517,-376"/>
<text text-anchor="middle" x="485" y="-355.1" font-family="Courier,monospace" font-size="11.00">Article</text>
</g>
<!-- \\CakeTestModel -->
<g id="node22" class="node"><title>\\CakeTestModel</title>
<ellipse fill="none" stroke="black" cx="167" cy="-277" rx="86.9741" ry="18.3848"/>
<text text-anchor="middle" x="167" y="-273.4" font-family="Times Roman,serif" font-size="14.00" fill="gray">\CakeTestModel</text>
</g>
<!-- \\Article&#45;&gt;\\CakeTestModel -->
<g id="edge13" class="edge"><title>\\Article&#45;&gt;\\CakeTestModel</title>
<path fill="none" stroke="black" d="M452.758,-349.788C401.168,-336.647 299.054,-310.636 231.908,-293.533"/>
<polygon fill="none" stroke="black" points="232.409,-290.049 221.855,-290.972 230.682,-296.833 232.409,-290.049"/>
</g>
<!-- \\Author -->
<g id="node8" class="node"><title>\\Author</title>
<polygon fill="none" stroke="black" points="513,-322 457,-322 457,-286 513,-286 513,-322"/>
<text text-anchor="middle" x="485" y="-301.1" font-family="Courier,monospace" font-size="11.00">Author</text>
</g>
<!-- \\Author&#45;&gt;\\CakeTestModel -->
<g id="edge15" class="edge"><title>\\Author&#45;&gt;\\CakeTestModel</title>
<path fill="none" stroke="black" d="M456.5,-301.58C412.201,-297.819 324.935,-290.41 257.743,-284.705"/>
<polygon fill="none" stroke="black" points="257.823,-281.199 247.562,-283.84 257.23,-288.174 257.823,-281.199"/>
</g>
<!-- \\Audit -->
<g id="node9" class="node"><title>\\Audit</title>
<polygon fill="none" stroke="black" points="512,-268 458,-268 458,-232 512,-232 512,-268"/>
<text text-anchor="middle" x="485" y="-247.1" font-family="Courier,monospace" font-size="11.00">Audit</text>
</g>
<!-- \\Audit&#45;&gt;\\CakeTestModel -->
<g id="edge17" class="edge"><title>\\Audit&#45;&gt;\\CakeTestModel</title>
<path fill="none" stroke="black" d="M457.887,-252.302C414.1,-256.02 325.866,-263.511 257.999,-269.274"/>
<polygon fill="none" stroke="black" points="257.385,-265.813 247.717,-270.147 257.977,-272.788 257.385,-265.813"/>
</g>
<!-- \\AuditDelta -->
<g id="node10" class="node"><title>\\AuditDelta</title>
<polygon fill="none" stroke="black" points="527,-214 443,-214 443,-178 527,-178 527,-214"/>
<text text-anchor="middle" x="485" y="-193.1" font-family="Courier,monospace" font-size="11.00">AuditDelta</text>
</g>
<!-- \\AuditDelta&#45;&gt;\\CakeTestModel -->
<g id="edge19" class="edge"><title>\\AuditDelta&#45;&gt;\\CakeTestModel</title>
<path fill="none" stroke="black" d="M442.772,-206.756C388.807,-220.502 294.847,-244.435 231.796,-260.495"/>
<polygon fill="none" stroke="black" points="230.779,-257.143 221.953,-263.003 232.507,-263.926 230.779,-257.143"/>
</g>
<!-- \\AuditableBehaviorTest -->
<g id="node11" class="node"><title>\\AuditableBehaviorTest</title>
<polygon fill="none" stroke="black" points="564,-160 406,-160 406,-124 564,-124 564,-160"/>
<text text-anchor="middle" x="485" y="-139.1" font-family="Courier,monospace" font-size="11.00">AuditableBehaviorTest</text>
</g>
<!-- \\CakeTestCase -->
<g id="node27" class="node"><title>\\CakeTestCase</title>
<ellipse fill="none" stroke="black" cx="167" cy="-142" rx="82.0244" ry="18.3848"/>
<text text-anchor="middle" x="167" y="-138.4" font-family="Times Roman,serif" font-size="14.00" fill="gray">\CakeTestCase</text>
</g>
<!-- \\AuditableBehaviorTest&#45;&gt;\\CakeTestCase -->
<g id="edge21" class="edge"><title>\\AuditableBehaviorTest&#45;&gt;\\CakeTestCase</title>
<path fill="none" stroke="black" d="M405.985,-142C361.514,-142 305.756,-142 259.285,-142"/>
<polygon fill="none" stroke="black" points="259.214,-138.5 249.214,-142 259.214,-145.5 259.214,-138.5"/>
</g>
<!-- \\AllAuditLogTest -->
<g id="node12" class="node"><title>\\AllAuditLogTest</title>
<polygon fill="none" stroke="black" points="544,-106 426,-106 426,-70 544,-70 544,-106"/>
<text text-anchor="middle" x="485" y="-85.1" font-family="Courier,monospace" font-size="11.00">AllAuditLogTest</text>
</g>
<!-- \\PHPUnit_Framework_TestSuite -->
<g id="node29" class="node"><title>\\PHPUnit_Framework_TestSuite</title>
<ellipse fill="none" stroke="black" cx="167" cy="-88" rx="166.877" ry="18.3848"/>
<text text-anchor="middle" x="167" y="-84.4" font-family="Times Roman,serif" font-size="14.00" fill="gray">\PHPUnit_Framework_TestSuite</text>
</g>
<!-- \\AllAuditLogTest&#45;&gt;\\PHPUnit_Framework_TestSuite -->
<g id="edge23" class="edge"><title>\\AllAuditLogTest&#45;&gt;\\PHPUnit_Framework_TestSuite</title>
<path fill="none" stroke="black" d="M425.932,-88C402.291,-88 373.693,-88 344.249,-88"/>
<polygon fill="none" stroke="black" points="344.237,-84.5001 334.237,-88 344.237,-91.5001 344.237,-84.5001"/>
</g>
<!-- \\AuditableBehavior -->
<g id="node13" class="node"><title>\\AuditableBehavior</title>
<polygon fill="none" stroke="black" points="550,-52 420,-52 420,-16 550,-16 550,-52"/>
<text text-anchor="middle" x="485" y="-31.1" font-family="Courier,monospace" font-size="11.00">AuditableBehavior</text>
</g>
<!-- \\ModelBehavior -->
<g id="node31" class="node"><title>\\ModelBehavior</title>
<ellipse fill="none" stroke="black" cx="167" cy="-34" rx="86.9741" ry="18.3848"/>
<text text-anchor="middle" x="167" y="-30.4" font-family="Times Roman,serif" font-size="14.00" fill="gray">\ModelBehavior</text>
</g>
<!-- \\AuditableBehavior&#45;&gt;\\ModelBehavior -->
<g id="edge25" class="edge"><title>\\AuditableBehavior&#45;&gt;\\ModelBehavior</title>
<path fill="none" stroke="black" d="M419.496,-34C374.76,-34 314.709,-34 264.394,-34"/>
<polygon fill="none" stroke="black" points="264.142,-30.5001 254.142,-34 264.142,-37.5001 264.142,-30.5001"/>
</g>
</g>
</svg>
