<?xml version="1.0" encoding="UTF-8" standalone="no"?>
<!DOCTYPE svg PUBLIC "-//W3C//DTD SVG 1.1//EN"
 "http://www.w3.org/Graphics/SVG/1.1/DTD/svg11.dtd">
<!-- Generated by graphviz version 2.26.3 (20100126.1600)
 -->
<!-- Title: G Pages: 1 -->
<svg width="824pt" height="1484pt"
 viewBox="0.00 0.00 824.00 1484.00" xmlns="http://www.w3.org/2000/svg" xmlns:xlink="http://www.w3.org/1999/xlink">
<g id="graph1" class="graph" transform="scale(1 1) rotate(0) translate(4 1480)">
<title>G</title>
<polygon fill="white" stroke="white" points="-4,5 -4,-1480 821,-1480 821,5 -4,5"/>
<g id="graph2" class="cluster"><title>cluster_Global</title>
<polyline fill="none" stroke="gray" points="328,-476 796,-476 "/>
<path fill="none" stroke="gray" d="M796,-476C802,-476 808,-482 808,-488"/>
<polyline fill="none" stroke="gray" points="808,-488 808,-1456 "/>
<path fill="none" stroke="gray" d="M808,-1456C808,-1462 802,-1468 796,-1468"/>
<polyline fill="none" stroke="gray" points="796,-1468 328,-1468 "/>
<path fill="none" stroke="gray" d="M328,-1468C322,-1468 316,-1462 316,-1456"/>
<polyline fill="none" stroke="gray" points="316,-1456 316,-488 "/>
<path fill="none" stroke="gray" d="M316,-488C316,-482 322,-476 328,-476"/>
<text text-anchor="middle" x="562" y="-1454.1" font-family="Times Roman,serif" font-size="11.00" fill="gray">Global</text>
</g>
<!-- \\Audit -->
<g id="node2" class="node"><title>\\Audit</title>
<polygon fill="none" stroke="black" points="748,-1384 694,-1384 694,-1348 748,-1348 748,-1384"/>
<text text-anchor="middle" x="721" y="-1363.1" font-family="Courier,monospace" font-size="11.00">Audit</text>
</g>
<!-- \\CakeTestModel -->
<g id="node22" class="node"><title>\\CakeTestModel</title>
<ellipse fill="none" stroke="black" cx="403" cy="-450" rx="86.9741" ry="18.3848"/>
<text text-anchor="middle" x="403" y="-446.4" font-family="Times Roman,serif" font-size="14.00" fill="gray">\CakeTestModel</text>
</g>
<!-- \\Audit&#45;&gt;\\CakeTestModel -->
<g id="edge3" class="edge"><title>\\Audit&#45;&gt;\\CakeTestModel</title>
<path fill="none" stroke="black" d="M693.958,-1364.13C676.293,-1361.39 654.298,-1354.77 642,-1339 523.136,-1186.53 703.376,-611.955 570,-472 548.974,-449.937 517.39,-442.192 487.329,-440.763"/>
<polygon fill="none" stroke="black" points="487.295,-437.261 477.21,-440.509 487.119,-444.259 487.295,-437.261"/>
</g>
<!-- \\AuditDelta -->
<g id="node3" class="node"><title>\\AuditDelta</title>
<polygon fill="none" stroke="black" points="763,-1330 679,-1330 679,-1294 763,-1294 763,-1330"/>
<text text-anchor="middle" x="721" y="-1309.1" font-family="Courier,monospace" font-size="11.00">AuditDelta</text>
</g>
<!-- \\AuditDelta&#45;&gt;\\CakeTestModel -->
<g id="edge5" class="edge"><title>\\AuditDelta&#45;&gt;\\CakeTestModel</title>
<path fill="none" stroke="black" d="M678.708,-1306.85C664.953,-1303.02 650.943,-1296.41 642,-1285 530.096,-1142.26 695.487,-602.956 570,-472 548.914,-449.995 517.319,-442.26 487.266,-440.824"/>
<polygon fill="none" stroke="black" points="487.236,-437.322 477.15,-440.567 487.058,-444.32 487.236,-437.322"/>
</g>
<!-- \\AuditableBehavior -->
<g id="node4" class="node"><title>\\AuditableBehavior</title>
<polygon fill="none" stroke="black" points="786,-1168 656,-1168 656,-1132 786,-1132 786,-1168"/>
<text text-anchor="middle" x="721" y="-1147.1" font-family="Courier,monospace" font-size="11.00">AuditableBehavior</text>
</g>
<!-- \\ModelBehavior -->
<g id="node25" class="node"><title>\\ModelBehavior</title>
<ellipse fill="none" stroke="black" cx="403" cy="-396" rx="86.9741" ry="18.3848"/>
<text text-anchor="middle" x="403" y="-392.4" font-family="Times Roman,serif" font-size="14.00" fill="gray">\ModelBehavior</text>
</g>
<!-- \\AuditableBehavior&#45;&gt;\\ModelBehavior -->
<g id="edge7" class="edge"><title>\\AuditableBehavior&#45;&gt;\\ModelBehavior</title>
<path fill="none" stroke="black" d="M655.258,-1134.7C650.24,-1131.5 645.7,-1127.65 642,-1123 544.65,-1000.62 677.334,-536.723 570,-423 550.7,-402.551 522.477,-393.621 494.706,-390.454"/>
<polygon fill="none" stroke="black" points="494.785,-386.947 484.512,-389.537 494.159,-393.919 494.785,-386.947"/>
</g>
<!-- \\AuditLogAppModel -->
<g id="node5" class="node"><title>\\AuditLogAppModel</title>
<polygon fill="none" stroke="black" points="783,-1114 659,-1114 659,-1078 783,-1078 783,-1114"/>
<text text-anchor="middle" x="721" y="-1093.1" font-family="Courier,monospace" font-size="11.00">AuditLogAppModel</text>
</g>
<!-- \\AppModel -->
<g id="node27" class="node"><title>\\AppModel</title>
<ellipse fill="none" stroke="black" cx="403" cy="-342" rx="62.2254" ry="18.3848"/>
<text text-anchor="middle" x="403" y="-338.4" font-family="Times Roman,serif" font-size="14.00" fill="gray">\AppModel</text>
</g>
<!-- \\AuditLogAppModel&#45;&gt;\\AppModel -->
<g id="edge9" class="edge"><title>\\AuditLogAppModel&#45;&gt;\\AppModel</title>
<path fill="none" stroke="black" d="M658.247,-1082.49C652.044,-1078.98 646.421,-1074.56 642,-1069 544.65,-946.622 677.334,-482.723 570,-369 545.047,-342.562 505.182,-335.378 470.658,-335.01"/>
<polygon fill="none" stroke="black" points="470.583,-331.51 460.61,-335.088 470.637,-338.51 470.583,-331.51"/>
</g>
<!-- \\AuditHelper -->
<g id="node6" class="node"><title>\\AuditHelper</title>
<polygon fill="none" stroke="black" points="766,-1006 676,-1006 676,-970 766,-970 766,-1006"/>
<text text-anchor="middle" x="721" y="-985.1" font-family="Courier,monospace" font-size="11.00">AuditHelper</text>
</g>
<!-- \\AppHelper -->
<g id="node29" class="node"><title>\\AppHelper</title>
<ellipse fill="none" stroke="black" cx="403" cy="-288" rx="65.0538" ry="18.3848"/>
<text text-anchor="middle" x="403" y="-284.4" font-family="Times Roman,serif" font-size="14.00" fill="gray">\AppHelper</text>
</g>
<!-- \\AuditHelper&#45;&gt;\\AppHelper -->
<g id="edge11" class="edge"><title>\\AuditHelper&#45;&gt;\\AppHelper</title>
<path fill="none" stroke="black" d="M675.138,-981.63C662.623,-977.672 650.255,-971.287 642,-961 461.196,-735.685 769.179,-524.247 570,-315 545.685,-289.456 507.438,-281.935 473.678,-281.149"/>
<polygon fill="none" stroke="black" points="473.379,-277.648 463.366,-281.109 473.352,-284.648 473.379,-277.648"/>
</g>
<!-- \\AuditDeltaFixture -->
<g id="node7" class="node"><title>\\AuditDeltaFixture</title>
<polygon fill="none" stroke="black" points="786,-952 656,-952 656,-916 786,-916 786,-952"/>
<text text-anchor="middle" x="721" y="-931.1" font-family="Courier,monospace" font-size="11.00">AuditDeltaFixture</text>
</g>
<!-- \\CakeTestFixture -->
<g id="node31" class="node"><title>\\CakeTestFixture</title>
<ellipse fill="none" stroke="black" cx="403" cy="-234" rx="92.1303" ry="18.3848"/>
<text text-anchor="middle" x="403" y="-230.4" font-family="Times Roman,serif" font-size="14.00" fill="gray">\CakeTestFixture</text>
</g>
<!-- \\AuditDeltaFixture&#45;&gt;\\CakeTestFixture -->
<g id="edge13" class="edge"><title>\\AuditDeltaFixture&#45;&gt;\\CakeTestFixture</title>
<path fill="none" stroke="black" d="M655.3,-918.663C650.274,-915.478 645.719,-911.635 642,-907 461.196,-681.685 769.179,-470.247 570,-261 552.034,-242.126 526.463,-233.092 500.715,-229.343"/>
<polygon fill="none" stroke="black" points="500.814,-225.83 490.469,-228.119 499.984,-232.781 500.814,-225.83"/>
</g>
<!-- \\AuthorFixture -->
<g id="node8" class="node"><title>\\AuthorFixture</title>
<polygon fill="none" stroke="black" points="773,-898 669,-898 669,-862 773,-862 773,-898"/>
<text text-anchor="middle" x="721" y="-877.1" font-family="Courier,monospace" font-size="11.00">AuthorFixture</text>
</g>
<!-- \\AuthorFixture&#45;&gt;\\CakeTestFixture -->
<g id="edge15" class="edge"><title>\\AuthorFixture&#45;&gt;\\CakeTestFixture</title>
<path fill="none" stroke="black" d="M668.636,-871.258C658.461,-867.258 648.846,-861.444 642,-853 475.081,-647.113 753.703,-452.061 570,-261 552.03,-242.31 526.594,-233.299 500.978,-229.515"/>
<polygon fill="none" stroke="black" points="501.135,-226.009 490.785,-228.274 500.288,-232.957 501.135,-226.009"/>
</g>
<!-- \\AuditFixture -->
<g id="node9" class="node"><title>\\AuditFixture</title>
<polygon fill="none" stroke="black" points="770,-844 672,-844 672,-808 770,-808 770,-844"/>
<text text-anchor="middle" x="721" y="-823.1" font-family="Courier,monospace" font-size="11.00">AuditFixture</text>
</g>
<!-- \\AuditFixture&#45;&gt;\\CakeTestFixture -->
<g id="edge17" class="edge"><title>\\AuditFixture&#45;&gt;\\CakeTestFixture</title>
<path fill="none" stroke="black" d="M671.984,-818.414C660.62,-814.407 649.632,-808.299 642,-799 488.951,-612.521 738.244,-433.893 570,-261 552.008,-242.511 526.702,-233.531 501.218,-229.712"/>
<polygon fill="none" stroke="black" points="501.432,-226.212 491.077,-228.453 500.57,-233.158 501.432,-226.212"/>
</g>
<!-- \\ArticleFixture -->
<g id="node10" class="node"><title>\\ArticleFixture</title>
<polygon fill="none" stroke="black" points="776,-790 666,-790 666,-754 776,-754 776,-790"/>
<text text-anchor="middle" x="721" y="-769.1" font-family="Courier,monospace" font-size="11.00">ArticleFixture</text>
</g>
<!-- \\ArticleFixture&#45;&gt;\\CakeTestFixture -->
<g id="edge19" class="edge"><title>\\ArticleFixture&#45;&gt;\\CakeTestFixture</title>
<path fill="none" stroke="black" d="M665.164,-761.604C656.34,-757.705 648.123,-752.35 642,-745 502.801,-577.906 722.808,-415.747 570,-261 552.056,-242.828 527.033,-233.886 501.812,-230"/>
<polygon fill="none" stroke="black" points="502.138,-226.513 491.774,-228.71 501.246,-233.456 502.138,-226.513"/>
</g>
<!-- \\Article -->
<g id="node11" class="node"><title>\\Article</title>
<polygon fill="none" stroke="black" points="753,-1276 689,-1276 689,-1240 753,-1240 753,-1276"/>
<text text-anchor="middle" x="721" y="-1255.1" font-family="Courier,monospace" font-size="11.00">Article</text>
</g>
<!-- \\Article&#45;&gt;\\CakeTestModel -->
<g id="edge21" class="edge"><title>\\Article&#45;&gt;\\CakeTestModel</title>
<path fill="none" stroke="black" d="M688.928,-1255.2C672.321,-1251.99 653.223,-1245.22 642,-1231 537.053,-1097.99 687.6,-593.961 570,-472 548.936,-450.155 517.509,-442.405 487.582,-440.913"/>
<polygon fill="none" stroke="black" points="487.6,-437.412 477.507,-440.635 487.407,-444.409 487.6,-437.412"/>
</g>
<!-- \\Author -->
<g id="node12" class="node"><title>\\Author</title>
<polygon fill="none" stroke="black" points="749,-1222 693,-1222 693,-1186 749,-1186 749,-1222"/>
<text text-anchor="middle" x="721" y="-1201.1" font-family="Courier,monospace" font-size="11.00">Author</text>
</g>
<!-- \\Author&#45;&gt;\\CakeTestModel -->
<g id="edge23" class="edge"><title>\\Author&#45;&gt;\\CakeTestModel</title>
<path fill="none" stroke="black" d="M692.121,-1201.74C674.85,-1198.79 653.995,-1192.09 642,-1177 544.006,-1053.72 679.718,-584.971 570,-472 548.949,-450.325 517.688,-442.563 487.887,-441.013"/>
<polygon fill="none" stroke="black" points="487.953,-437.514 477.854,-440.715 487.745,-444.51 487.953,-437.514"/>
</g>
<!-- \\AuditableBehaviorTest -->
<g id="node13" class="node"><title>\\AuditableBehaviorTest</title>
<polygon fill="none" stroke="black" points="800,-736 642,-736 642,-700 800,-700 800,-736"/>
<text text-anchor="middle" x="721" y="-715.1" font-family="Courier,monospace" font-size="11.00">AuditableBehaviorTest</text>
</g>
<!-- \\CakeTestCase -->
<g id="node38" class="node"><title>\\CakeTestCase</title>
<ellipse fill="none" stroke="black" cx="403" cy="-180" rx="82.0244" ry="18.3848"/>
<text text-anchor="middle" x="403" y="-176.4" font-family="Times Roman,serif" font-size="14.00" fill="gray">\CakeTestCase</text>
</g>
<!-- \\AuditableBehaviorTest&#45;&gt;\\CakeTestCase -->
<g id="edge25" class="edge"><title>\\AuditableBehaviorTest&#45;&gt;\\CakeTestCase</title>
<path fill="none" stroke="black" d="M651.508,-699.837C647.999,-697.27 644.783,-694.341 642,-691 502.801,-523.906 722.808,-361.747 570,-207 549.325,-186.063 519.255,-177.378 490.31,-174.563"/>
<polygon fill="none" stroke="black" points="490.369,-171.057 480.136,-173.801 489.847,-178.038 490.369,-171.057"/>
</g>
<!-- \\AllAuditLogTest -->
<g id="node14" class="node"><title>\\AllAuditLogTest</title>
<polygon fill="none" stroke="black" points="780,-628 662,-628 662,-592 780,-592 780,-628"/>
<text text-anchor="middle" x="721" y="-607.1" font-family="Courier,monospace" font-size="11.00">AllAuditLogTest</text>
</g>
<!-- \\PHPUnit_Framework_TestSuite -->
<g id="node40" class="node"><title>\\PHPUnit_Framework_TestSuite</title>
<ellipse fill="none" stroke="black" cx="403" cy="-126" rx="166.877" ry="18.3848"/>
<text text-anchor="middle" x="403" y="-122.4" font-family="Times Roman,serif" font-size="14.00" fill="gray">\PHPUnit_Framework_TestSuite</text>
</g>
<!-- \\AllAuditLogTest&#45;&gt;\\PHPUnit_Framework_TestSuite -->
<g id="edge27" class="edge"><title>\\AllAuditLogTest&#45;&gt;\\PHPUnit_Framework_TestSuite</title>
<path fill="none" stroke="black" d="M661.696,-597.839C654.227,-594.132 647.346,-589.299 642,-583 516.623,-435.256 707.401,-289.632 570,-153 565.285,-148.311 560.098,-144.241 554.559,-140.716"/>
<polygon fill="none" stroke="black" points="556.006,-137.512 545.582,-135.615 552.547,-143.599 556.006,-137.512"/>
</g>
<!-- \\AuditHelperTest -->
<g id="node15" class="node"><title>\\AuditHelperTest</title>
<polygon fill="none" stroke="black" points="780,-682 662,-682 662,-646 780,-646 780,-682"/>
<text text-anchor="middle" x="721" y="-661.1" font-family="Courier,monospace" font-size="11.00">AuditHelperTest</text>
</g>
<!-- \\AuditHelperTest&#45;&gt;\\CakeTestCase -->
<g id="edge29" class="edge"><title>\\AuditHelperTest&#45;&gt;\\CakeTestCase</title>
<path fill="none" stroke="black" d="M661.696,-651.839C654.227,-648.132 647.346,-643.299 642,-637 516.623,-489.256 707.401,-343.632 570,-207 549.228,-186.345 519.293,-177.686 490.486,-174.811"/>
<polygon fill="none" stroke="black" points="490.602,-171.31 480.361,-174.025 490.061,-178.289 490.602,-171.31"/>
</g>
<!-- \\User -->
<g id="node16" class="node"><title>\\User</title>
<polygon fill="none" stroke="black" points="748,-1060 694,-1060 694,-1024 748,-1024 748,-1060"/>
<text text-anchor="middle" x="721" y="-1039.1" font-family="Courier,monospace" font-size="11.00">User</text>
</g>
<!-- \\User&#45;&gt;\\AppModel -->
<g id="edge31" class="edge"><title>\\User&#45;&gt;\\AppModel</title>
<path fill="none" stroke="black" d="M693.715,-1039.96C676.179,-1037.13 654.428,-1030.49 642,-1015 461.196,-789.685 769.179,-578.247 570,-369 544.935,-342.668 505.066,-335.488 470.568,-335.095"/>
<polygon fill="none" stroke="black" points="470.504,-331.595 460.529,-335.165 470.553,-338.595 470.504,-331.595"/>
</g>
<!-- \\AuditControllerTest -->
<g id="node17" class="node"><title>\\AuditControllerTest</title>
<polygon fill="none" stroke="black" points="793,-574 649,-574 649,-538 793,-538 793,-574"/>
<text text-anchor="middle" x="721" y="-553.1" font-family="Courier,monospace" font-size="11.00">AuditControllerTest</text>
</g>
<!-- \\ControllerTestCase -->
<g id="node44" class="node"><title>\\ControllerTestCase</title>
<ellipse fill="none" stroke="black" cx="403" cy="-72" rx="106.773" ry="18.3848"/>
<text text-anchor="middle" x="403" y="-68.4" font-family="Times Roman,serif" font-size="14.00" fill="gray">\ControllerTestCase</text>
</g>
<!-- \\AuditControllerTest&#45;&gt;\\ControllerTestCase -->
<g id="edge33" class="edge"><title>\\AuditControllerTest&#45;&gt;\\ControllerTestCase</title>
<path fill="none" stroke="black" d="M651.579,-537.777C648.052,-535.225 644.813,-532.315 642,-529 516.623,-381.256 707.401,-235.632 570,-99 556.167,-85.2447 538.27,-76.8096 519.349,-71.8601"/>
<polygon fill="none" stroke="black" points="519.906,-68.3972 509.377,-69.5798 518.345,-75.221 519.906,-68.3972"/>
</g>
<!-- \\AuditController -->
<g id="node18" class="node"><title>\\AuditController</title>
<polygon fill="none" stroke="black" points="780,-1438 662,-1438 662,-1402 780,-1402 780,-1438"/>
<text text-anchor="middle" x="721" y="-1417.1" font-family="Courier,monospace" font-size="11.00">AuditController</text>
</g>
<!-- \\AuditLogAppController -->
<g id="node19" class="node"><title>\\AuditLogAppController</title>
<polygon fill="none" stroke="black" points="482,-1438 324,-1438 324,-1402 482,-1402 482,-1438"/>
<text text-anchor="middle" x="403" y="-1417.1" font-family="Courier,monospace" font-size="11.00">AuditLogAppController</text>
</g>
<!-- \\AuditController&#45;&gt;\\AuditLogAppController -->
<g id="edge35" class="edge"><title>\\AuditController&#45;&gt;\\AuditLogAppController</title>
<path fill="none" stroke="black" d="M661.932,-1420C614.347,-1420 546.681,-1420 492.454,-1420"/>
<polygon fill="none" stroke="black" points="492.146,-1416.5 482.146,-1420 492.146,-1423.5 492.146,-1416.5"/>
</g>
<!-- \\AppController -->
<g id="node47" class="node"><title>\\AppController</title>
<ellipse fill="none" stroke="black" cx="82" cy="-1420" rx="82.0244" ry="18.3848"/>
<text text-anchor="middle" x="82" y="-1416.4" font-family="Times Roman,serif" font-size="14.00" fill="gray">\AppController</text>
</g>
<!-- \\AuditLogAppController&#45;&gt;\\AppController -->
<g id="edge37" class="edge"><title>\\AuditLogAppController&#45;&gt;\\AppController</title>
<path fill="none" stroke="black" d="M323.652,-1420C278.421,-1420 221.521,-1420 174.298,-1420"/>
<polygon fill="none" stroke="black" points="174.068,-1416.5 164.068,-1420 174.068,-1423.5 174.068,-1416.5"/>
</g>
<!-- \\AuditLogSchema -->
<g id="node20" class="node"><title>\\AuditLogSchema</title>
<polygon fill="none" stroke="black" points="776,-520 666,-520 666,-484 776,-484 776,-520"/>
<text text-anchor="middle" x="721" y="-499.1" font-family="Courier,monospace" font-size="11.00">AuditLogSchema</text>
</g>
<!-- \\CakeSchema -->
<g id="node49" class="node"><title>\\CakeSchema</title>
<ellipse fill="none" stroke="black" cx="403" cy="-18" rx="77.0746" ry="18.3848"/>
<text text-anchor="middle" x="403" y="-14.4" font-family="Times Roman,serif" font-size="14.00" fill="gray">\CakeSchema</text>
</g>
<!-- \\AuditLogSchema&#45;&gt;\\CakeSchema -->
<g id="edge39" class="edge"><title>\\AuditLogSchema&#45;&gt;\\CakeSchema</title>
<path fill="none" stroke="black" d="M717.604,-483.93C702.719,-406.681 640.819,-105.378 570,-45 547.509,-25.8246 516.893,-17.5528 488.017,-14.5752"/>
<polygon fill="none" stroke="black" points="488.148,-11.074 477.892,-13.7336 487.568,-18.05 488.148,-11.074"/>
</g>
</g>
</svg>
