<?xml version="1.0" encoding="UTF-8" standalone="no"?>
<!DOCTYPE svg PUBLIC "-//W3C//DTD SVG 1.1//EN"
 "http://www.w3.org/Graphics/SVG/1.1/DTD/svg11.dtd">
<!-- Generated by graphviz version 2.26.3 (20100126.1600)
 -->
<!-- Title: G Pages: 1 -->
<svg width="824pt" height="1414pt"
 viewBox="0.00 0.00 824.00 1414.00" xmlns="http://www.w3.org/2000/svg" xmlns:xlink="http://www.w3.org/1999/xlink">
<g id="graph1" class="graph" transform="scale(1 1) rotate(0) translate(4 1410)">
<title>G</title>
<polygon fill="white" stroke="white" points="-4,5 -4,-1410 821,-1410 821,5 -4,5"/>
<g id="graph2" class="cluster"><title>cluster_Global</title>
<polyline fill="none" stroke="gray" points="328,-460 796,-460 "/>
<path fill="none" stroke="gray" d="M796,-460C802,-460 808,-466 808,-472"/>
<polyline fill="none" stroke="gray" points="808,-472 808,-1386 "/>
<path fill="none" stroke="gray" d="M808,-1386C808,-1392 802,-1398 796,-1398"/>
<polyline fill="none" stroke="gray" points="796,-1398 328,-1398 "/>
<path fill="none" stroke="gray" d="M328,-1398C322,-1398 316,-1392 316,-1386"/>
<polyline fill="none" stroke="gray" points="316,-1386 316,-472 "/>
<path fill="none" stroke="gray" d="M316,-472C316,-466 322,-460 328,-460"/>
<text text-anchor="middle" x="562" y="-1384.1" font-family="Times Roman,serif" font-size="11.00" fill="gray">Global</text>
</g>
<!-- \\AllAuditLogTest -->
<g id="node2" class="node"><title>\\AllAuditLogTest</title>
<polygon fill="none" stroke="black" points="780,-1206 662,-1206 662,-1170 780,-1170 780,-1206"/>
<text text-anchor="middle" x="721" y="-1185.1" font-family="Courier,monospace" font-size="11.00">AllAuditLogTest</text>
</g>
<!-- \\PHPUnit_Framework_TestSuite -->
<g id="node22" class="node"><title>\\PHPUnit_Framework_TestSuite</title>
<ellipse fill="none" stroke="black" cx="403" cy="-434" rx="166.877" ry="18.3848"/>
<text text-anchor="middle" x="403" y="-430.4" font-family="Times Roman,serif" font-size="14.00" fill="gray">\PHPUnit_Framework_TestSuite</text>
</g>
<!-- \\AllAuditLogTest&#45;&gt;\\PHPUnit_Framework_TestSuite -->
<g id="edge3" class="edge"><title>\\AllAuditLogTest&#45;&gt;\\PHPUnit_Framework_TestSuite</title>
<path fill="none" stroke="black" d="M661.716,-1176.34C654.147,-1172.57 647.231,-1167.58 642,-1161 544.006,-1037.72 679.718,-568.971 570,-456 567.103,-453.017 564.013,-450.298 560.759,-447.822"/>
<polygon fill="none" stroke="black" points="562.603,-444.844 552.354,-442.157 558.691,-450.649 562.603,-444.844"/>
</g>
<!-- \\Article -->
<g id="node3" class="node"><title>\\Article</title>
<polygon fill="none" stroke="black" points="753,-1098 689,-1098 689,-1062 753,-1062 753,-1098"/>
<text text-anchor="middle" x="721" y="-1077.1" font-family="Courier,monospace" font-size="11.00">Article</text>
</g>
<!-- \\CakeTestModel -->
<g id="node24" class="node"><title>\\CakeTestModel</title>
<ellipse fill="none" stroke="black" cx="403" cy="-380" rx="86.9741" ry="18.3848"/>
<text text-anchor="middle" x="403" y="-376.4" font-family="Times Roman,serif" font-size="14.00" fill="gray">\CakeTestModel</text>
</g>
<!-- \\Article&#45;&gt;\\CakeTestModel -->
<g id="edge5" class="edge"><title>\\Article&#45;&gt;\\CakeTestModel</title>
<path fill="none" stroke="black" d="M688.621,-1077.05C672.135,-1073.79 653.248,-1067.02 642,-1053 461.196,-827.685 769.179,-616.247 570,-407 550.613,-386.633 522.369,-377.724 494.604,-374.551"/>
<polygon fill="none" stroke="black" points="494.688,-371.044 484.414,-373.63 494.059,-378.016 494.688,-371.044"/>
</g>
<!-- \\Author -->
<g id="node4" class="node"><title>\\Author</title>
<polygon fill="none" stroke="black" points="749,-1152 693,-1152 693,-1116 749,-1116 749,-1152"/>
<text text-anchor="middle" x="721" y="-1131.1" font-family="Courier,monospace" font-size="11.00">Author</text>
</g>
<!-- \\Author&#45;&gt;\\CakeTestModel -->
<g id="edge7" class="edge"><title>\\Author&#45;&gt;\\CakeTestModel</title>
<path fill="none" stroke="black" d="M692.124,-1131.74C674.855,-1128.78 654.001,-1122.09 642,-1107 544.65,-984.622 677.334,-520.723 570,-407 550.7,-386.551 522.477,-377.621 494.706,-374.454"/>
<polygon fill="none" stroke="black" points="494.785,-370.947 484.512,-373.537 494.159,-377.919 494.785,-370.947"/>
</g>
<!-- \\Audit -->
<g id="node5" class="node"><title>\\Audit</title>
<polygon fill="none" stroke="black" points="748,-1314 694,-1314 694,-1278 748,-1278 748,-1314"/>
<text text-anchor="middle" x="721" y="-1293.1" font-family="Courier,monospace" font-size="11.00">Audit</text>
</g>
<!-- \\AuditLogAppModel -->
<g id="node17" class="node"><title>\\AuditLogAppModel</title>
<polygon fill="none" stroke="black" points="465,-1260 341,-1260 341,-1224 465,-1224 465,-1260"/>
<text text-anchor="middle" x="403" y="-1239.1" font-family="Courier,monospace" font-size="11.00">AuditLogAppModel</text>
</g>
<!-- \\Audit&#45;&gt;\\AuditLogAppModel -->
<g id="edge9" class="edge"><title>\\Audit&#45;&gt;\\AuditLogAppModel</title>
<path fill="none" stroke="black" d="M693.887,-1291.4C646.001,-1283.26 544.961,-1266.11 475.531,-1254.32"/>
<polygon fill="none" stroke="black" points="475.972,-1250.84 465.527,-1252.62 474.8,-1257.74 475.972,-1250.84"/>
</g>
<!-- \\AuditDelta -->
<g id="node6" class="node"><title>\\AuditDelta</title>
<polygon fill="none" stroke="black" points="763,-1260 679,-1260 679,-1224 763,-1224 763,-1260"/>
<text text-anchor="middle" x="721" y="-1239.1" font-family="Courier,monospace" font-size="11.00">AuditDelta</text>
</g>
<!-- \\AuditDelta&#45;&gt;\\AuditLogAppModel -->
<g id="edge11" class="edge"><title>\\AuditDelta&#45;&gt;\\AuditLogAppModel</title>
<path fill="none" stroke="black" d="M678.772,-1242C627.079,-1242 538.686,-1242 475.917,-1242"/>
<polygon fill="none" stroke="black" points="475.683,-1238.5 465.683,-1242 475.683,-1245.5 475.683,-1238.5"/>
</g>
<!-- \\AuditableBehaviorTest -->
<g id="node7" class="node"><title>\\AuditableBehaviorTest</title>
<polygon fill="none" stroke="black" points="800,-990 642,-990 642,-954 800,-954 800,-990"/>
<text text-anchor="middle" x="721" y="-969.1" font-family="Courier,monospace" font-size="11.00">AuditableBehaviorTest</text>
</g>
<!-- \\CakeTestCase -->
<g id="node29" class="node"><title>\\CakeTestCase</title>
<ellipse fill="none" stroke="black" cx="403" cy="-326" rx="82.0244" ry="18.3848"/>
<text text-anchor="middle" x="403" y="-322.4" font-family="Times Roman,serif" font-size="14.00" fill="gray">\CakeTestCase</text>
</g>
<!-- \\AuditableBehaviorTest&#45;&gt;\\CakeTestCase -->
<g id="edge13" class="edge"><title>\\AuditableBehaviorTest&#45;&gt;\\CakeTestCase</title>
<path fill="none" stroke="black" d="M651.403,-953.923C647.92,-951.334 644.738,-948.378 642,-945 475.081,-739.113 753.703,-544.061 570,-353 549.424,-331.6 519.06,-322.89 489.846,-320.185"/>
<polygon fill="none" stroke="black" points="489.798,-316.673 479.579,-319.468 489.311,-323.656 489.798,-316.673"/>
</g>
<!-- \\AuditHelperTest -->
<g id="node8" class="node"><title>\\AuditHelperTest</title>
<polygon fill="none" stroke="black" points="780,-1044 662,-1044 662,-1008 780,-1008 780,-1044"/>
<text text-anchor="middle" x="721" y="-1023.1" font-family="Courier,monospace" font-size="11.00">AuditHelperTest</text>
</g>
<!-- \\AuditHelperTest&#45;&gt;\\CakeTestCase -->
<g id="edge15" class="edge"><title>\\AuditHelperTest&#45;&gt;\\CakeTestCase</title>
<path fill="none" stroke="black" d="M661.77,-1014.3C654.194,-1010.53 647.261,-1005.56 642,-999 461.196,-773.685 769.179,-562.247 570,-353 549.441,-331.402 518.922,-322.688 489.577,-320.037"/>
<polygon fill="none" stroke="black" points="489.477,-316.522 479.264,-319.34 489.006,-323.506 489.477,-316.522"/>
</g>
<!-- \\User -->
<g id="node9" class="node"><title>\\User</title>
<polygon fill="none" stroke="black" points="748,-936 694,-936 694,-900 748,-900 748,-936"/>
<text text-anchor="middle" x="721" y="-915.1" font-family="Courier,monospace" font-size="11.00">User</text>
</g>
<!-- \\AppModel -->
<g id="node32" class="node"><title>\\AppModel</title>
<ellipse fill="none" stroke="black" cx="82" cy="-761" rx="62.2254" ry="18.3848"/>
<text text-anchor="middle" x="82" y="-757.4" font-family="Times Roman,serif" font-size="14.00" fill="gray">\AppModel</text>
</g>
<!-- \\User&#45;&gt;\\AppModel -->
<g id="edge17" class="edge"><title>\\User&#45;&gt;\\AppModel</title>
<path fill="none" stroke="black" d="M693.766,-915.92C676.251,-913.073 654.505,-906.425 642,-891 475.081,-685.113 768.41,-474.741 570,-299 514.439,-249.787 296.212,-255.602 236,-299 162.354,-352.081 103.898,-641.208 86.9709,-733.011"/>
<polygon fill="none" stroke="black" points="83.5074,-732.495 85.1572,-742.961 90.3939,-733.75 83.5074,-732.495"/>
</g>
<!-- \\AuditControllerTest -->
<g id="node10" class="node"><title>\\AuditControllerTest</title>
<polygon fill="none" stroke="black" points="793,-882 649,-882 649,-846 793,-846 793,-882"/>
<text text-anchor="middle" x="721" y="-861.1" font-family="Courier,monospace" font-size="11.00">AuditControllerTest</text>
</g>
<!-- \\ControllerTestCase -->
<g id="node34" class="node"><title>\\ControllerTestCase</title>
<ellipse fill="none" stroke="black" cx="403" cy="-234" rx="106.773" ry="18.3848"/>
<text text-anchor="middle" x="403" y="-230.4" font-family="Times Roman,serif" font-size="14.00" fill="gray">\ControllerTestCase</text>
</g>
<!-- \\AuditControllerTest&#45;&gt;\\ControllerTestCase -->
<g id="edge19" class="edge"><title>\\AuditControllerTest&#45;&gt;\\ControllerTestCase</title>
<path fill="none" stroke="black" d="M651.42,-845.909C647.933,-843.324 644.746,-840.372 642,-837 480.477,-638.663 745,-452.553 570,-266 556.523,-251.634 538.726,-242.582 519.777,-237.052"/>
<polygon fill="none" stroke="black" points="520.647,-233.662 510.089,-234.541 518.891,-240.438 520.647,-233.662"/>
</g>
<!-- \\AuditDeltaFixture -->
<g id="node11" class="node"><title>\\AuditDeltaFixture</title>
<polygon fill="none" stroke="black" points="786,-774 656,-774 656,-738 786,-738 786,-774"/>
<text text-anchor="middle" x="721" y="-753.1" font-family="Courier,monospace" font-size="11.00">AuditDeltaFixture</text>
</g>
<!-- \\CakeTestFixture -->
<g id="node36" class="node"><title>\\CakeTestFixture</title>
<ellipse fill="none" stroke="black" cx="403" cy="-180" rx="92.1303" ry="18.3848"/>
<text text-anchor="middle" x="403" y="-176.4" font-family="Times Roman,serif" font-size="14.00" fill="gray">\CakeTestFixture</text>
</g>
<!-- \\AuditDeltaFixture&#45;&gt;\\CakeTestFixture -->
<g id="edge21" class="edge"><title>\\AuditDeltaFixture&#45;&gt;\\CakeTestFixture</title>
<path fill="none" stroke="black" d="M655.427,-740.56C650.374,-737.396 645.779,-733.586 642,-729 493.057,-548.268 733.668,-374.514 570,-207 552.062,-188.64 526.907,-179.669 501.554,-175.817"/>
<polygon fill="none" stroke="black" points="501.824,-172.323 491.464,-174.543 500.947,-179.268 501.824,-172.323"/>
</g>
<!-- \\ArticleFixture -->
<g id="node12" class="node"><title>\\ArticleFixture</title>
<polygon fill="none" stroke="black" points="776,-720 666,-720 666,-684 776,-684 776,-720"/>
<text text-anchor="middle" x="721" y="-699.1" font-family="Courier,monospace" font-size="11.00">ArticleFixture</text>
</g>
<!-- \\ArticleFixture&#45;&gt;\\CakeTestFixture -->
<g id="edge23" class="edge"><title>\\ArticleFixture&#45;&gt;\\CakeTestFixture</title>
<path fill="none" stroke="black" d="M665.194,-691.579C656.367,-687.682 648.141,-682.335 642,-675 506.9,-513.643 718.239,-356.376 570,-207 552.01,-188.872 526.974,-179.945 501.753,-176.058"/>
<polygon fill="none" stroke="black" points="502.08,-172.572 491.716,-174.767 501.187,-179.514 502.08,-172.572"/>
</g>
<!-- \\AuditFixture -->
<g id="node13" class="node"><title>\\AuditFixture</title>
<polygon fill="none" stroke="black" points="770,-666 672,-666 672,-630 770,-630 770,-666"/>
<text text-anchor="middle" x="721" y="-645.1" font-family="Courier,monospace" font-size="11.00">AuditFixture</text>
</g>
<!-- \\AuditFixture&#45;&gt;\\CakeTestFixture -->
<g id="edge25" class="edge"><title>\\AuditFixture&#45;&gt;\\CakeTestFixture</title>
<path fill="none" stroke="black" d="M671.821,-640.062C660.598,-636.056 649.719,-630.038 642,-621 520.712,-478.982 702.844,-338.272 570,-207 551.926,-189.14 526.995,-180.268 501.906,-176.349"/>
<polygon fill="none" stroke="black" points="502.292,-172.87 491.922,-175.04 501.383,-179.81 502.292,-172.87"/>
</g>
<!-- \\AuthorFixture -->
<g id="node14" class="node"><title>\\AuthorFixture</title>
<polygon fill="none" stroke="black" points="773,-828 669,-828 669,-792 773,-792 773,-828"/>
<text text-anchor="middle" x="721" y="-807.1" font-family="Courier,monospace" font-size="11.00">AuthorFixture</text>
</g>
<!-- \\AuthorFixture&#45;&gt;\\CakeTestFixture -->
<g id="edge27" class="edge"><title>\\AuthorFixture&#45;&gt;\\CakeTestFixture</title>
<path fill="none" stroke="black" d="M668.657,-801.241C658.481,-797.242 648.86,-791.433 642,-783 479.193,-582.866 749.121,-392.676 570,-207 552.089,-188.433 526.807,-179.429 501.322,-175.611"/>
<polygon fill="none" stroke="black" points="501.534,-172.111 491.18,-174.354 500.673,-179.057 501.534,-172.111"/>
</g>
<!-- \\AuditLogSchema -->
<g id="node15" class="node"><title>\\AuditLogSchema</title>
<polygon fill="none" stroke="black" points="776,-612 666,-612 666,-576 776,-576 776,-612"/>
<text text-anchor="middle" x="721" y="-591.1" font-family="Courier,monospace" font-size="11.00">AuditLogSchema</text>
</g>
<!-- \\CakeSchema -->
<g id="node41" class="node"><title>\\CakeSchema</title>
<ellipse fill="none" stroke="black" cx="403" cy="-126" rx="77.0746" ry="18.3848"/>
<text text-anchor="middle" x="403" y="-122.4" font-family="Times Roman,serif" font-size="14.00" fill="gray">\CakeSchema</text>
</g>
<!-- \\AuditLogSchema&#45;&gt;\\CakeSchema -->
<g id="edge29" class="edge"><title>\\AuditLogSchema&#45;&gt;\\CakeSchema</title>
<path fill="none" stroke="black" d="M665.312,-583.48C656.473,-579.592 648.213,-574.274 642,-567 520.712,-424.982 702.844,-284.272 570,-153 548.04,-131.3 515.958,-122.869 485.768,-120.468"/>
<polygon fill="none" stroke="black" points="485.807,-116.964 475.62,-119.874 485.398,-123.952 485.807,-116.964"/>
</g>
<!-- \\AuditableBehavior -->
<g id="node16" class="node"><title>\\AuditableBehavior</title>
<polygon fill="none" stroke="black" points="786,-558 656,-558 656,-522 786,-522 786,-558"/>
<text text-anchor="middle" x="721" y="-537.1" font-family="Courier,monospace" font-size="11.00">AuditableBehavior</text>
</g>
<!-- \\ModelBehavior -->
<g id="node43" class="node"><title>\\ModelBehavior</title>
<ellipse fill="none" stroke="black" cx="403" cy="-72" rx="86.9741" ry="18.3848"/>
<text text-anchor="middle" x="403" y="-68.4" font-family="Times Roman,serif" font-size="14.00" fill="gray">\ModelBehavior</text>
</g>
<!-- \\AuditableBehavior&#45;&gt;\\ModelBehavior -->
<g id="edge31" class="edge"><title>\\AuditableBehavior&#45;&gt;\\ModelBehavior</title>
<path fill="none" stroke="black" d="M655.225,-524.187C650.282,-521.099 645.765,-517.409 642,-513 520.712,-370.982 702.844,-230.272 570,-99 550.55,-79.7798 523.158,-70.9688 496.174,-67.5377"/>
<polygon fill="none" stroke="black" points="496.175,-64.0194 485.869,-66.4756 495.457,-70.9825 496.175,-64.0194"/>
</g>
<!-- \\AuditLogAppModel&#45;&gt;\\AppModel -->
<g id="edge33" class="edge"><title>\\AuditLogAppModel&#45;&gt;\\AppModel</title>
<path fill="none" stroke="black" d="M340.359,-1248.86C305.991,-1249.21 264.666,-1243.61 236,-1220 166.495,-1162.75 105.456,-879.789 87.4023,-789.054"/>
<polygon fill="none" stroke="black" points="90.8292,-788.341 85.4621,-779.206 83.9612,-789.694 90.8292,-788.341"/>
</g>
<!-- \\AuditHelper -->
<g id="node18" class="node"><title>\\AuditHelper</title>
<polygon fill="none" stroke="black" points="766,-504 676,-504 676,-468 766,-468 766,-504"/>
<text text-anchor="middle" x="721" y="-483.1" font-family="Courier,monospace" font-size="11.00">AuditHelper</text>
</g>
<!-- \\AppHelper -->
<g id="node46" class="node"><title>\\AppHelper</title>
<ellipse fill="none" stroke="black" cx="403" cy="-18" rx="65.0538" ry="18.3848"/>
<text text-anchor="middle" x="403" y="-14.4" font-family="Times Roman,serif" font-size="14.00" fill="gray">\AppHelper</text>
</g>
<!-- \\AuditHelper&#45;&gt;\\AppHelper -->
<g id="edge35" class="edge"><title>\\AuditHelper&#45;&gt;\\AppHelper</title>
<path fill="none" stroke="black" d="M717.351,-467.794C701.795,-392.021 638.67,-102.91 570,-45 544.372,-23.3877 508.397,-15.6807 476.396,-13.7754"/>
<polygon fill="none" stroke="black" points="476.301,-10.2685 466.164,-13.3504 476.011,-17.2625 476.301,-10.2685"/>
</g>
<!-- \\AuditLogAppController -->
<g id="node19" class="node"><title>\\AuditLogAppController</title>
<polygon fill="none" stroke="black" points="482,-1368 324,-1368 324,-1332 482,-1332 482,-1368"/>
<text text-anchor="middle" x="403" y="-1347.1" font-family="Courier,monospace" font-size="11.00">AuditLogAppController</text>
</g>
<!-- \\AppController -->
<g id="node48" class="node"><title>\\AppController</title>
<ellipse fill="none" stroke="black" cx="82" cy="-1350" rx="82.0244" ry="18.3848"/>
<text text-anchor="middle" x="82" y="-1346.4" font-family="Times Roman,serif" font-size="14.00" fill="gray">\AppController</text>
</g>
<!-- \\AuditLogAppController&#45;&gt;\\AppController -->
<g id="edge37" class="edge"><title>\\AuditLogAppController&#45;&gt;\\AppController</title>
<path fill="none" stroke="black" d="M323.652,-1350C278.421,-1350 221.521,-1350 174.298,-1350"/>
<polygon fill="none" stroke="black" points="174.068,-1346.5 164.068,-1350 174.068,-1353.5 174.068,-1346.5"/>
</g>
<!-- \\AuditController -->
<g id="node20" class="node"><title>\\AuditController</title>
<polygon fill="none" stroke="black" points="780,-1368 662,-1368 662,-1332 780,-1332 780,-1368"/>
<text text-anchor="middle" x="721" y="-1347.1" font-family="Courier,monospace" font-size="11.00">AuditController</text>
</g>
<!-- \\AuditController&#45;&gt;\\AuditLogAppController -->
<g id="edge39" class="edge"><title>\\AuditController&#45;&gt;\\AuditLogAppController</title>
<path fill="none" stroke="black" d="M661.932,-1350C614.347,-1350 546.681,-1350 492.454,-1350"/>
<polygon fill="none" stroke="black" points="492.146,-1346.5 482.146,-1350 492.146,-1353.5 492.146,-1346.5"/>
</g>
</g>
</svg>
