<?xml version="1.0" encoding="UTF-8" standalone="no"?>
<!DOCTYPE svg PUBLIC "-//W3C//DTD SVG 1.1//EN"
 "http://www.w3.org/Graphics/SVG/1.1/DTD/svg11.dtd">
<!-- Generated by graphviz version 2.26.3 (20100126.1600)
 -->
<!-- Title: G Pages: 1 -->
<svg width="824pt" height="1484pt"
 viewBox="0.00 0.00 824.00 1484.00" xmlns="http://www.w3.org/2000/svg" xmlns:xlink="http://www.w3.org/1999/xlink">
<g id="graph1" class="graph" transform="scale(1 1) rotate(0) translate(4 1480)">
<title>G</title>
<polygon fill="white" stroke="white" points="-4,5 -4,-1480 821,-1480 821,5 -4,5"/>
<g id="graph2" class="cluster"><title>cluster_Global</title>
<polyline fill="none" stroke="gray" points="328,-476 796,-476 "/>
<path fill="none" stroke="gray" d="M796,-476C802,-476 808,-482 808,-488"/>
<polyline fill="none" stroke="gray" points="808,-488 808,-1456 "/>
<path fill="none" stroke="gray" d="M808,-1456C808,-1462 802,-1468 796,-1468"/>
<polyline fill="none" stroke="gray" points="796,-1468 328,-1468 "/>
<path fill="none" stroke="gray" d="M328,-1468C322,-1468 316,-1462 316,-1456"/>
<polyline fill="none" stroke="gray" points="316,-1456 316,-488 "/>
<path fill="none" stroke="gray" d="M316,-488C316,-482 322,-476 328,-476"/>
<text text-anchor="middle" x="562" y="-1454.1" font-family="Times Roman,serif" font-size="11.00" fill="gray">Global</text>
</g>
<!-- \\AuditController -->
<g id="node2" class="node"><title>\\AuditController</title>
<polygon fill="none" stroke="black" points="780,-1438 662,-1438 662,-1402 780,-1402 780,-1438"/>
<text text-anchor="middle" x="721" y="-1417.1" font-family="Courier,monospace" font-size="11.00">AuditController</text>
</g>
<!-- \\AuditLogAppController -->
<g id="node3" class="node"><title>\\AuditLogAppController</title>
<polygon fill="none" stroke="black" points="482,-1438 324,-1438 324,-1402 482,-1402 482,-1438"/>
<text text-anchor="middle" x="403" y="-1417.1" font-family="Courier,monospace" font-size="11.00">AuditLogAppController</text>
</g>
<!-- \\AuditController&#45;&gt;\\AuditLogAppController -->
<g id="edge3" class="edge"><title>\\AuditController&#45;&gt;\\AuditLogAppController</title>
<path fill="none" stroke="black" d="M661.932,-1420C614.347,-1420 546.681,-1420 492.454,-1420"/>
<polygon fill="none" stroke="black" points="492.146,-1416.5 482.146,-1420 492.146,-1423.5 492.146,-1416.5"/>
</g>
<!-- \\AppController -->
<g id="node23" class="node"><title>\\AppController</title>
<ellipse fill="none" stroke="black" cx="82" cy="-1420" rx="82.0244" ry="18.3848"/>
<text text-anchor="middle" x="82" y="-1416.4" font-family="Times Roman,serif" font-size="14.00" fill="gray">\AppController</text>
</g>
<!-- \\AuditLogAppController&#45;&gt;\\AppController -->
<g id="edge5" class="edge"><title>\\AuditLogAppController&#45;&gt;\\AppController</title>
<path fill="none" stroke="black" d="M323.652,-1420C278.421,-1420 221.521,-1420 174.298,-1420"/>
<polygon fill="none" stroke="black" points="174.068,-1416.5 164.068,-1420 174.068,-1423.5 174.068,-1416.5"/>
</g>
<!-- \\AuditLogSchema -->
<g id="node4" class="node"><title>\\AuditLogSchema</title>
<polygon fill="none" stroke="black" points="776,-1384 666,-1384 666,-1348 776,-1348 776,-1384"/>
<text text-anchor="middle" x="721" y="-1363.1" font-family="Courier,monospace" font-size="11.00">AuditLogSchema</text>
</g>
<!-- \\CakeSchema -->
<g id="node25" class="node"><title>\\CakeSchema</title>
<ellipse fill="none" stroke="black" cx="403" cy="-450" rx="77.0746" ry="18.3848"/>
<text text-anchor="middle" x="403" y="-446.4" font-family="Times Roman,serif" font-size="14.00" fill="gray">\CakeSchema</text>
</g>
<!-- \\AuditLogSchema&#45;&gt;\\CakeSchema -->
<g id="edge7" class="edge"><title>\\AuditLogSchema&#45;&gt;\\CakeSchema</title>
<path fill="none" stroke="black" d="M665.164,-1356.1C656.227,-1352.16 647.971,-1346.66 642,-1339 523.136,-1186.53 703.376,-611.955 570,-472 547.062,-447.931 511.559,-440.902 479.176,-440.524"/>
<polygon fill="none" stroke="black" points="478.758,-437.028 468.791,-440.622 478.824,-444.028 478.758,-437.028"/>
</g>
<!-- \\AuditLogAppModel -->
<g id="node5" class="node"><title>\\AuditLogAppModel</title>
<polygon fill="none" stroke="black" points="783,-1330 659,-1330 659,-1294 783,-1294 783,-1330"/>
<text text-anchor="middle" x="721" y="-1309.1" font-family="Courier,monospace" font-size="11.00">AuditLogAppModel</text>
</g>
<!-- \\AppModel -->
<g id="node27" class="node"><title>\\AppModel</title>
<ellipse fill="none" stroke="black" cx="403" cy="-396" rx="62.2254" ry="18.3848"/>
<text text-anchor="middle" x="403" y="-392.4" font-family="Times Roman,serif" font-size="14.00" fill="gray">\AppModel</text>
</g>
<!-- \\AuditLogAppModel&#45;&gt;\\AppModel -->
<g id="edge9" class="edge"><title>\\AuditLogAppModel&#45;&gt;\\AppModel</title>
<path fill="none" stroke="black" d="M658.142,-1298.57C651.958,-1295.05 646.368,-1290.6 642,-1285 523.781,-1133.43 700.593,-564.05 570,-423 545.211,-396.226 505.151,-389.08 470.481,-388.816"/>
<polygon fill="none" stroke="black" points="470.352,-385.318 460.391,-388.927 470.429,-392.317 470.352,-385.318"/>
</g>
<!-- \\AuditableBehavior -->
<g id="node6" class="node"><title>\\AuditableBehavior</title>
<polygon fill="none" stroke="black" points="786,-1222 656,-1222 656,-1186 786,-1186 786,-1222"/>
<text text-anchor="middle" x="721" y="-1201.1" font-family="Courier,monospace" font-size="11.00">AuditableBehavior</text>
</g>
<!-- \\ModelBehavior -->
<g id="node29" class="node"><title>\\ModelBehavior</title>
<ellipse fill="none" stroke="black" cx="403" cy="-342" rx="86.9741" ry="18.3848"/>
<text text-anchor="middle" x="403" y="-338.4" font-family="Times Roman,serif" font-size="14.00" fill="gray">\ModelBehavior</text>
</g>
<!-- \\AuditableBehavior&#45;&gt;\\ModelBehavior -->
<g id="edge11" class="edge"><title>\\AuditableBehavior&#45;&gt;\\ModelBehavior</title>
<path fill="none" stroke="black" d="M655.191,-1188.75C650.187,-1185.55 645.668,-1181.68 642,-1177 530.74,-1035.16 692.836,-500.937 570,-369 550.75,-348.324 522.39,-339.374 494.483,-336.256"/>
<polygon fill="none" stroke="black" points="494.506,-332.745 484.239,-335.361 493.896,-339.718 494.506,-332.745"/>
</g>
<!-- \\AuditDelta -->
<g id="node7" class="node"><title>\\AuditDelta</title>
<polygon fill="none" stroke="black" points="763,-1168 679,-1168 679,-1132 763,-1132 763,-1168"/>
<text text-anchor="middle" x="721" y="-1147.1" font-family="Courier,monospace" font-size="11.00">AuditDelta</text>
</g>
<!-- \\CakeTestModel -->
<g id="node31" class="node"><title>\\CakeTestModel</title>
<ellipse fill="none" stroke="black" cx="403" cy="-288" rx="86.9741" ry="18.3848"/>
<text text-anchor="middle" x="403" y="-284.4" font-family="Times Roman,serif" font-size="14.00" fill="gray">\CakeTestModel</text>
</g>
<!-- \\AuditDelta&#45;&gt;\\CakeTestModel -->
<g id="edge13" class="edge"><title>\\AuditDelta&#45;&gt;\\CakeTestModel</title>
<path fill="none" stroke="black" d="M678.711,-1144.85C664.957,-1141.02 650.946,-1134.4 642,-1123 530.74,-981.164 692.836,-446.937 570,-315 550.75,-294.324 522.39,-285.374 494.483,-282.256"/>
<polygon fill="none" stroke="black" points="494.506,-278.745 484.239,-281.361 493.896,-285.718 494.506,-278.745"/>
</g>
<!-- \\Audit -->
<g id="node8" class="node"><title>\\Audit</title>
<polygon fill="none" stroke="black" points="748,-1114 694,-1114 694,-1078 748,-1078 748,-1114"/>
<text text-anchor="middle" x="721" y="-1093.1" font-family="Courier,monospace" font-size="11.00">Audit</text>
</g>
<!-- \\Audit&#45;&gt;\\CakeTestModel -->
<g id="edge15" class="edge"><title>\\Audit&#45;&gt;\\CakeTestModel</title>
<path fill="none" stroke="black" d="M693.636,-1094.02C676.065,-1091.22 654.305,-1084.58 642,-1069 537.697,-936.895 685.083,-437.828 570,-315 550.685,-294.385 522.308,-285.45 494.406,-282.328"/>
<polygon fill="none" stroke="black" points="494.433,-278.817 484.166,-281.429 493.822,-285.79 494.433,-278.817"/>
</g>
<!-- \\AllAuditLogTest -->
<g id="node9" class="node"><title>\\AllAuditLogTest</title>
<polygon fill="none" stroke="black" points="780,-952 662,-952 662,-916 780,-916 780,-952"/>
<text text-anchor="middle" x="721" y="-931.1" font-family="Courier,monospace" font-size="11.00">AllAuditLogTest</text>
</g>
<!-- \\PHPUnit_Framework_TestSuite -->
<g id="node34" class="node"><title>\\PHPUnit_Framework_TestSuite</title>
<ellipse fill="none" stroke="black" cx="403" cy="-234" rx="166.877" ry="18.3848"/>
<text text-anchor="middle" x="403" y="-230.4" font-family="Times Roman,serif" font-size="14.00" fill="gray">\PHPUnit_Framework_TestSuite</text>
</g>
<!-- \\AllAuditLogTest&#45;&gt;\\PHPUnit_Framework_TestSuite -->
<g id="edge17" class="edge"><title>\\AllAuditLogTest&#45;&gt;\\PHPUnit_Framework_TestSuite</title>
<path fill="none" stroke="black" d="M661.77,-922.296C654.194,-918.528 647.261,-913.557 642,-907 461.196,-681.685 769.179,-470.247 570,-261 565.482,-256.253 560.483,-252.129 555.121,-248.555"/>
<polygon fill="none" stroke="black" points="556.798,-245.48 546.413,-243.38 553.222,-251.498 556.798,-245.48"/>
</g>
<!-- \\User -->
<g id="node10" class="node"><title>\\User</title>
<polygon fill="none" stroke="black" points="748,-1276 694,-1276 694,-1240 748,-1240 748,-1276"/>
<text text-anchor="middle" x="721" y="-1255.1" font-family="Courier,monospace" font-size="11.00">User</text>
</g>
<!-- \\User&#45;&gt;\\AppModel -->
<g id="edge19" class="edge"><title>\\User&#45;&gt;\\AppModel</title>
<path fill="none" stroke="black" d="M693.988,-1256.11C676.337,-1253.35 654.345,-1246.74 642,-1231 530.74,-1089.16 692.836,-554.937 570,-423 545.137,-396.295 505.075,-389.151 470.422,-388.871"/>
<polygon fill="none" stroke="black" points="470.3,-385.372 460.337,-388.977 470.374,-392.372 470.3,-385.372"/>
</g>
<!-- \\AuditControllerTest -->
<g id="node11" class="node"><title>\\AuditControllerTest</title>
<polygon fill="none" stroke="black" points="793,-898 649,-898 649,-862 793,-862 793,-898"/>
<text text-anchor="middle" x="721" y="-877.1" font-family="Courier,monospace" font-size="11.00">AuditControllerTest</text>
</g>
<!-- \\ControllerTestCase -->
<g id="node37" class="node"><title>\\ControllerTestCase</title>
<ellipse fill="none" stroke="black" cx="403" cy="-180" rx="106.773" ry="18.3848"/>
<text text-anchor="middle" x="403" y="-176.4" font-family="Times Roman,serif" font-size="14.00" fill="gray">\ControllerTestCase</text>
</g>
<!-- \\AuditControllerTest&#45;&gt;\\ControllerTestCase -->
<g id="edge21" class="edge"><title>\\AuditControllerTest&#45;&gt;\\ControllerTestCase</title>
<path fill="none" stroke="black" d="M651.363,-861.955C647.89,-859.359 644.721,-856.391 642,-853 461.196,-627.685 769.179,-416.247 570,-207 556.142,-192.441 537.758,-183.737 518.259,-178.798"/>
<polygon fill="none" stroke="black" points="518.815,-175.336 508.297,-176.606 517.311,-182.173 518.815,-175.336"/>
</g>
<!-- \\Article -->
<g id="node12" class="node"><title>\\Article</title>
<polygon fill="none" stroke="black" points="753,-1060 689,-1060 689,-1024 753,-1024 753,-1060"/>
<text text-anchor="middle" x="721" y="-1039.1" font-family="Courier,monospace" font-size="11.00">Article</text>
</g>
<!-- \\Article&#45;&gt;\\CakeTestModel -->
<g id="edge23" class="edge"><title>\\Article&#45;&gt;\\CakeTestModel</title>
<path fill="none" stroke="black" d="M688.972,-1039.16C672.378,-1035.95 653.279,-1029.18 642,-1015 544.65,-892.622 677.334,-428.723 570,-315 550.7,-294.551 522.477,-285.621 494.706,-282.454"/>
<polygon fill="none" stroke="black" points="494.785,-278.947 484.512,-281.537 494.159,-285.919 494.785,-278.947"/>
</g>
<!-- \\Author -->
<g id="node13" class="node"><title>\\Author</title>
<polygon fill="none" stroke="black" points="749,-1006 693,-1006 693,-970 749,-970 749,-1006"/>
<text text-anchor="middle" x="721" y="-985.1" font-family="Courier,monospace" font-size="11.00">Author</text>
</g>
<!-- \\Author&#45;&gt;\\CakeTestModel -->
<g id="edge25" class="edge"><title>\\Author&#45;&gt;\\CakeTestModel</title>
<path fill="none" stroke="black" d="M692.169,-985.703C674.917,-982.735 654.065,-976.035 642,-961 461.196,-735.685 769.179,-524.247 570,-315 550.613,-294.633 522.369,-285.724 494.604,-282.551"/>
<polygon fill="none" stroke="black" points="494.688,-279.044 484.414,-281.63 494.059,-286.016 494.688,-279.044"/>
</g>
<!-- \\AuditableBehaviorTest -->
<g id="node14" class="node"><title>\\AuditableBehaviorTest</title>
<polygon fill="none" stroke="black" points="800,-844 642,-844 642,-808 800,-808 800,-844"/>
<text text-anchor="middle" x="721" y="-823.1" font-family="Courier,monospace" font-size="11.00">AuditableBehaviorTest</text>
</g>
<!-- \\CakeTestCase -->
<g id="node41" class="node"><title>\\CakeTestCase</title>
<ellipse fill="none" stroke="black" cx="403" cy="-126" rx="82.0244" ry="18.3848"/>
<text text-anchor="middle" x="403" y="-122.4" font-family="Times Roman,serif" font-size="14.00" fill="gray">\CakeTestCase</text>
</g>
<!-- \\AuditableBehaviorTest&#45;&gt;\\CakeTestCase -->
<g id="edge27" class="edge"><title>\\AuditableBehaviorTest&#45;&gt;\\CakeTestCase</title>
<path fill="none" stroke="black" d="M651.363,-807.955C647.89,-805.359 644.721,-802.391 642,-799 461.196,-573.685 769.179,-362.247 570,-153 549.441,-131.402 518.922,-122.688 489.577,-120.037"/>
<polygon fill="none" stroke="black" points="489.477,-116.522 479.264,-119.34 489.006,-123.506 489.477,-116.522"/>
</g>
<!-- \\AuditHelperTest -->
<g id="node15" class="node"><title>\\AuditHelperTest</title>
<polygon fill="none" stroke="black" points="780,-790 662,-790 662,-754 780,-754 780,-790"/>
<text text-anchor="middle" x="721" y="-769.1" font-family="Courier,monospace" font-size="11.00">AuditHelperTest</text>
</g>
<!-- \\AuditHelperTest&#45;&gt;\\CakeTestCase -->
<g id="edge29" class="edge"><title>\\AuditHelperTest&#45;&gt;\\CakeTestCase</title>
<path fill="none" stroke="black" d="M661.829,-760.249C654.245,-756.487 647.294,-751.53 642,-745 475.081,-539.113 753.703,-344.061 570,-153 549.424,-131.6 519.06,-122.89 489.846,-120.185"/>
<polygon fill="none" stroke="black" points="489.798,-116.673 479.579,-119.468 489.311,-123.656 489.798,-116.673"/>
</g>
<!-- \\AuthorFixture -->
<g id="node16" class="node"><title>\\AuthorFixture</title>
<polygon fill="none" stroke="black" points="773,-736 669,-736 669,-700 773,-700 773,-736"/>
<text text-anchor="middle" x="721" y="-715.1" font-family="Courier,monospace" font-size="11.00">AuthorFixture</text>
</g>
<!-- \\CakeTestFixture -->
<g id="node44" class="node"><title>\\CakeTestFixture</title>
<ellipse fill="none" stroke="black" cx="403" cy="-72" rx="92.1303" ry="18.3848"/>
<text text-anchor="middle" x="403" y="-68.4" font-family="Times Roman,serif" font-size="14.00" fill="gray">\CakeTestFixture</text>
</g>
<!-- \\AuthorFixture&#45;&gt;\\CakeTestFixture -->
<g id="edge31" class="edge"><title>\\AuthorFixture&#45;&gt;\\CakeTestFixture</title>
<path fill="none" stroke="black" d="M668.636,-709.258C658.461,-705.258 648.846,-699.444 642,-691 475.081,-485.113 753.703,-290.061 570,-99 552.03,-80.3099 526.594,-71.2995 500.978,-67.5153"/>
<polygon fill="none" stroke="black" points="501.135,-64.0086 490.785,-66.2742 500.288,-70.9573 501.135,-64.0086"/>
</g>
<!-- \\AuditDeltaFixture -->
<g id="node17" class="node"><title>\\AuditDeltaFixture</title>
<polygon fill="none" stroke="black" points="786,-682 656,-682 656,-646 786,-646 786,-682"/>
<text text-anchor="middle" x="721" y="-661.1" font-family="Courier,monospace" font-size="11.00">AuditDeltaFixture</text>
</g>
<!-- \\AuditDeltaFixture&#45;&gt;\\CakeTestFixture -->
<g id="edge33" class="edge"><title>\\AuditDeltaFixture&#45;&gt;\\CakeTestFixture</title>
<path fill="none" stroke="black" d="M655.408,-648.576C650.359,-645.408 645.77,-641.594 642,-637 488.951,-450.521 738.244,-271.893 570,-99 552.008,-80.5111 526.702,-71.5313 501.218,-67.7119"/>
<polygon fill="none" stroke="black" points="501.432,-64.2117 491.077,-66.4535 500.57,-71.1584 501.432,-64.2117"/>
</g>
<!-- \\ArticleFixture -->
<g id="node18" class="node"><title>\\ArticleFixture</title>
<polygon fill="none" stroke="black" points="776,-628 666,-628 666,-592 776,-592 776,-628"/>
<text text-anchor="middle" x="721" y="-607.1" font-family="Courier,monospace" font-size="11.00">ArticleFixture</text>
</g>
<!-- \\ArticleFixture&#45;&gt;\\CakeTestFixture -->
<g id="edge35" class="edge"><title>\\ArticleFixture&#45;&gt;\\CakeTestFixture</title>
<path fill="none" stroke="black" d="M665.164,-599.604C656.34,-595.705 648.123,-590.35 642,-583 502.801,-415.906 722.808,-253.747 570,-99 552.056,-80.8278 527.033,-71.8856 501.812,-67.9998"/>
<polygon fill="none" stroke="black" points="502.138,-64.513 491.774,-66.7099 501.246,-71.4559 502.138,-64.513"/>
</g>
<!-- \\AuditFixture -->
<g id="node19" class="node"><title>\\AuditFixture</title>
<polygon fill="none" stroke="black" points="770,-574 672,-574 672,-538 770,-538 770,-574"/>
<text text-anchor="middle" x="721" y="-553.1" font-family="Courier,monospace" font-size="11.00">AuditFixture</text>
</g>
<!-- \\AuditFixture&#45;&gt;\\CakeTestFixture -->
<g id="edge37" class="edge"><title>\\AuditFixture&#45;&gt;\\CakeTestFixture</title>
<path fill="none" stroke="black" d="M671.782,-548.095C660.559,-544.089 649.69,-538.062 642,-529 516.623,-381.256 707.401,-235.632 570,-99 551.983,-81.0834 527.07,-72.193 501.98,-68.2743"/>
<polygon fill="none" stroke="black" points="502.365,-64.7948 491.995,-66.967 501.456,-71.7356 502.365,-64.7948"/>
</g>
<!-- \\AuditHelper -->
<g id="node20" class="node"><title>\\AuditHelper</title>
<polygon fill="none" stroke="black" points="766,-520 676,-520 676,-484 766,-484 766,-520"/>
<text text-anchor="middle" x="721" y="-499.1" font-family="Courier,monospace" font-size="11.00">AuditHelper</text>
</g>
<!-- \\AppHelper -->
<g id="node49" class="node"><title>\\AppHelper</title>
<ellipse fill="none" stroke="black" cx="403" cy="-18" rx="65.0538" ry="18.3848"/>
<text text-anchor="middle" x="403" y="-14.4" font-family="Times Roman,serif" font-size="14.00" fill="gray">\AppHelper</text>
</g>
<!-- \\AuditHelper&#45;&gt;\\AppHelper -->
<g id="edge39" class="edge"><title>\\AuditHelper&#45;&gt;\\AppHelper</title>
<path fill="none" stroke="black" d="M717.604,-483.93C702.719,-406.681 640.819,-105.378 570,-45 544.388,-23.1641 508.242,-15.4673 476.124,-13.6266"/>
<polygon fill="none" stroke="black" points="475.986,-10.1185 465.857,-13.2242 475.712,-17.1132 475.986,-10.1185"/>
</g>
</g>
</svg>
