<?xml version="1.0" encoding="UTF-8" standalone="no"?>
<!DOCTYPE svg PUBLIC "-//W3C//DTD SVG 1.1//EN"
 "http://www.w3.org/Graphics/SVG/1.1/DTD/svg11.dtd">
<!-- Generated by graphviz version 2.26.3 (20100126.1600)
 -->
<!-- Title: G Pages: 1 -->
<svg width="824pt" height="1376pt"
 viewBox="0.00 0.00 824.00 1376.00" xmlns="http://www.w3.org/2000/svg" xmlns:xlink="http://www.w3.org/1999/xlink">
<g id="graph1" class="graph" transform="scale(1 1) rotate(0) translate(4 1372)">
<title>G</title>
<polygon fill="white" stroke="white" points="-4,5 -4,-1372 821,-1372 821,5 -4,5"/>
<g id="graph2" class="cluster"><title>cluster_Global</title>
<polyline fill="none" stroke="gray" points="328,-422 796,-422 "/>
<path fill="none" stroke="gray" d="M796,-422C802,-422 808,-428 808,-434"/>
<polyline fill="none" stroke="gray" points="808,-434 808,-1348 "/>
<path fill="none" stroke="gray" d="M808,-1348C808,-1354 802,-1360 796,-1360"/>
<polyline fill="none" stroke="gray" points="796,-1360 328,-1360 "/>
<path fill="none" stroke="gray" d="M328,-1360C322,-1360 316,-1354 316,-1348"/>
<polyline fill="none" stroke="gray" points="316,-1348 316,-434 "/>
<path fill="none" stroke="gray" d="M316,-434C316,-428 322,-422 328,-422"/>
<text text-anchor="middle" x="562" y="-1346.1" font-family="Times Roman,serif" font-size="11.00" fill="gray">Global</text>
</g>
<!-- \\AuditController -->
<g id="node2" class="node"><title>\\AuditController</title>
<polygon fill="none" stroke="black" points="780,-1330 662,-1330 662,-1294 780,-1294 780,-1330"/>
<text text-anchor="middle" x="721" y="-1309.1" font-family="Courier,monospace" font-size="11.00">AuditController</text>
</g>
<!-- \\AuditLogAppController -->
<g id="node3" class="node"><title>\\AuditLogAppController</title>
<polygon fill="none" stroke="black" points="482,-1330 324,-1330 324,-1294 482,-1294 482,-1330"/>
<text text-anchor="middle" x="403" y="-1309.1" font-family="Courier,monospace" font-size="11.00">AuditLogAppController</text>
</g>
<!-- \\AuditController&#45;&gt;\\AuditLogAppController -->
<g id="edge3" class="edge"><title>\\AuditController&#45;&gt;\\AuditLogAppController</title>
<path fill="none" stroke="black" d="M661.932,-1312C614.347,-1312 546.681,-1312 492.454,-1312"/>
<polygon fill="none" stroke="black" points="492.146,-1308.5 482.146,-1312 492.146,-1315.5 492.146,-1308.5"/>
</g>
<!-- \\AppController -->
<g id="node23" class="node"><title>\\AppController</title>
<ellipse fill="none" stroke="black" cx="82" cy="-1312" rx="82.0244" ry="18.3848"/>
<text text-anchor="middle" x="82" y="-1308.4" font-family="Times Roman,serif" font-size="14.00" fill="gray">\AppController</text>
</g>
<!-- \\AuditLogAppController&#45;&gt;\\AppController -->
<g id="edge5" class="edge"><title>\\AuditLogAppController&#45;&gt;\\AppController</title>
<path fill="none" stroke="black" d="M323.652,-1312C278.421,-1312 221.521,-1312 174.298,-1312"/>
<polygon fill="none" stroke="black" points="174.068,-1308.5 164.068,-1312 174.068,-1315.5 174.068,-1308.5"/>
</g>
<!-- \\User -->
<g id="node4" class="node"><title>\\User</title>
<polygon fill="none" stroke="black" points="748,-1168 694,-1168 694,-1132 748,-1132 748,-1168"/>
<text text-anchor="middle" x="721" y="-1147.1" font-family="Courier,monospace" font-size="11.00">User</text>
</g>
<!-- \\AppModel -->
<g id="node25" class="node"><title>\\AppModel</title>
<ellipse fill="none" stroke="black" cx="82" cy="-1179" rx="62.2254" ry="18.3848"/>
<text text-anchor="middle" x="82" y="-1175.4" font-family="Times Roman,serif" font-size="14.00" fill="gray">\AppModel</text>
</g>
<!-- \\User&#45;&gt;\\AppModel -->
<g id="edge7" class="edge"><title>\\User&#45;&gt;\\AppModel</title>
<path fill="none" stroke="black" d="M693.951,-1151.23C601.252,-1155.43 294.369,-1169.36 153.644,-1175.75"/>
<polygon fill="none" stroke="black" points="153.228,-1172.26 143.397,-1176.21 153.545,-1179.26 153.228,-1172.26"/>
</g>
<!-- \\AuditControllerTest -->
<g id="node5" class="node"><title>\\AuditControllerTest</title>
<polygon fill="none" stroke="black" points="793,-1114 649,-1114 649,-1078 793,-1078 793,-1114"/>
<text text-anchor="middle" x="721" y="-1093.1" font-family="Courier,monospace" font-size="11.00">AuditControllerTest</text>
</g>
<!-- \\ControllerTestCase -->
<g id="node27" class="node"><title>\\ControllerTestCase</title>
<ellipse fill="none" stroke="black" cx="403" cy="-396" rx="106.773" ry="18.3848"/>
<text text-anchor="middle" x="403" y="-392.4" font-family="Times Roman,serif" font-size="14.00" fill="gray">\ControllerTestCase</text>
</g>
<!-- \\AuditControllerTest&#45;&gt;\\ControllerTestCase -->
<g id="edge9" class="edge"><title>\\AuditControllerTest&#45;&gt;\\ControllerTestCase</title>
<path fill="none" stroke="black" d="M651.36,-1077.96C647.887,-1075.36 644.72,-1072.39 642,-1069 459.91,-841.886 773.682,-625.97 570,-418 553.869,-401.53 531.836,-393.117 509.067,-389.361"/>
<polygon fill="none" stroke="black" points="509.305,-385.862 498.926,-387.989 508.366,-392.798 509.305,-385.862"/>
</g>
<!-- \\AllAuditLogTest -->
<g id="node6" class="node"><title>\\AllAuditLogTest</title>
<polygon fill="none" stroke="black" points="780,-1060 662,-1060 662,-1024 780,-1024 780,-1060"/>
<text text-anchor="middle" x="721" y="-1039.1" font-family="Courier,monospace" font-size="11.00">AllAuditLogTest</text>
</g>
<!-- \\PHPUnit_Framework_TestSuite -->
<g id="node29" class="node"><title>\\PHPUnit_Framework_TestSuite</title>
<ellipse fill="none" stroke="black" cx="403" cy="-342" rx="166.877" ry="18.3848"/>
<text text-anchor="middle" x="403" y="-338.4" font-family="Times Roman,serif" font-size="14.00" fill="gray">\PHPUnit_Framework_TestSuite</text>
</g>
<!-- \\AllAuditLogTest&#45;&gt;\\PHPUnit_Framework_TestSuite -->
<g id="edge11" class="edge"><title>\\AllAuditLogTest&#45;&gt;\\PHPUnit_Framework_TestSuite</title>
<path fill="none" stroke="black" d="M661.77,-1030.3C654.194,-1026.53 647.261,-1021.56 642,-1015 461.196,-789.685 769.179,-578.247 570,-369 565.482,-364.253 560.483,-360.129 555.121,-356.555"/>
<polygon fill="none" stroke="black" points="556.798,-353.48 546.413,-351.38 553.222,-359.498 556.798,-353.48"/>
</g>
<!-- \\Article -->
<g id="node7" class="node"><title>\\Article</title>
<polygon fill="none" stroke="black" points="753,-1006 689,-1006 689,-970 753,-970 753,-1006"/>
<text text-anchor="middle" x="721" y="-985.1" font-family="Courier,monospace" font-size="11.00">Article</text>
</g>
<!-- \\CakeTestModel -->
<g id="node31" class="node"><title>\\CakeTestModel</title>
<ellipse fill="none" stroke="black" cx="403" cy="-288" rx="86.9741" ry="18.3848"/>
<text text-anchor="middle" x="403" y="-284.4" font-family="Times Roman,serif" font-size="14.00" fill="gray">\CakeTestModel</text>
</g>
<!-- \\Article&#45;&gt;\\CakeTestModel -->
<g id="edge13" class="edge"><title>\\Article&#45;&gt;\\CakeTestModel</title>
<path fill="none" stroke="black" d="M688.621,-985.048C672.135,-981.79 653.248,-975.018 642,-961 461.196,-735.685 769.179,-524.247 570,-315 550.613,-294.633 522.369,-285.724 494.604,-282.551"/>
<polygon fill="none" stroke="black" points="494.688,-279.044 484.414,-281.63 494.059,-286.016 494.688,-279.044"/>
</g>
<!-- \\Author -->
<g id="node8" class="node"><title>\\Author</title>
<polygon fill="none" stroke="black" points="749,-952 693,-952 693,-916 749,-916 749,-952"/>
<text text-anchor="middle" x="721" y="-931.1" font-family="Courier,monospace" font-size="11.00">Author</text>
</g>
<!-- \\Author&#45;&gt;\\CakeTestModel -->
<g id="edge15" class="edge"><title>\\Author&#45;&gt;\\CakeTestModel</title>
<path fill="none" stroke="black" d="M692.221,-931.661C674.989,-928.677 654.14,-921.974 642,-907 475.081,-701.113 753.703,-506.061 570,-315 550.602,-294.825 522.504,-285.929 494.872,-282.71"/>
<polygon fill="none" stroke="black" points="495.009,-279.208 484.729,-281.771 494.364,-286.178 495.009,-279.208"/>
</g>
<!-- \\Audit -->
<g id="node9" class="node"><title>\\Audit</title>
<polygon fill="none" stroke="black" points="748,-1276 694,-1276 694,-1240 748,-1240 748,-1276"/>
<text text-anchor="middle" x="721" y="-1255.1" font-family="Courier,monospace" font-size="11.00">Audit</text>
</g>
<!-- \\AuditLogAppModel -->
<g id="node19" class="node"><title>\\AuditLogAppModel</title>
<polygon fill="none" stroke="black" points="465,-1222 341,-1222 341,-1186 465,-1186 465,-1222"/>
<text text-anchor="middle" x="403" y="-1201.1" font-family="Courier,monospace" font-size="11.00">AuditLogAppModel</text>
</g>
<!-- \\Audit&#45;&gt;\\AuditLogAppModel -->
<g id="edge17" class="edge"><title>\\Audit&#45;&gt;\\AuditLogAppModel</title>
<path fill="none" stroke="black" d="M693.887,-1253.4C646.001,-1245.26 544.961,-1228.11 475.531,-1216.32"/>
<polygon fill="none" stroke="black" points="475.972,-1212.84 465.527,-1214.62 474.8,-1219.74 475.972,-1212.84"/>
</g>
<!-- \\AuditDelta -->
<g id="node10" class="node"><title>\\AuditDelta</title>
<polygon fill="none" stroke="black" points="763,-1222 679,-1222 679,-1186 763,-1186 763,-1222"/>
<text text-anchor="middle" x="721" y="-1201.1" font-family="Courier,monospace" font-size="11.00">AuditDelta</text>
</g>
<!-- \\AuditDelta&#45;&gt;\\AuditLogAppModel -->
<g id="edge19" class="edge"><title>\\AuditDelta&#45;&gt;\\AuditLogAppModel</title>
<path fill="none" stroke="black" d="M678.772,-1204C627.079,-1204 538.686,-1204 475.917,-1204"/>
<polygon fill="none" stroke="black" points="475.683,-1200.5 465.683,-1204 475.683,-1207.5 475.683,-1200.5"/>
</g>
<!-- \\AuditableBehaviorTest -->
<g id="node11" class="node"><title>\\AuditableBehaviorTest</title>
<polygon fill="none" stroke="black" points="800,-898 642,-898 642,-862 800,-862 800,-898"/>
<text text-anchor="middle" x="721" y="-877.1" font-family="Courier,monospace" font-size="11.00">AuditableBehaviorTest</text>
</g>
<!-- \\CakeTestCase -->
<g id="node36" class="node"><title>\\CakeTestCase</title>
<ellipse fill="none" stroke="black" cx="403" cy="-234" rx="82.0244" ry="18.3848"/>
<text text-anchor="middle" x="403" y="-230.4" font-family="Times Roman,serif" font-size="14.00" fill="gray">\CakeTestCase</text>
</g>
<!-- \\AuditableBehaviorTest&#45;&gt;\\CakeTestCase -->
<g id="edge21" class="edge"><title>\\AuditableBehaviorTest&#45;&gt;\\CakeTestCase</title>
<path fill="none" stroke="black" d="M651.403,-861.923C647.92,-859.334 644.738,-856.378 642,-853 475.081,-647.113 753.703,-452.061 570,-261 549.424,-239.6 519.06,-230.89 489.846,-228.185"/>
<polygon fill="none" stroke="black" points="489.798,-224.673 479.579,-227.468 489.311,-231.656 489.798,-224.673"/>
</g>
<!-- \\AuditHelperTest -->
<g id="node12" class="node"><title>\\AuditHelperTest</title>
<polygon fill="none" stroke="black" points="780,-844 662,-844 662,-808 780,-808 780,-844"/>
<text text-anchor="middle" x="721" y="-823.1" font-family="Courier,monospace" font-size="11.00">AuditHelperTest</text>
</g>
<!-- \\AuditHelperTest&#45;&gt;\\CakeTestCase -->
<g id="edge23" class="edge"><title>\\AuditHelperTest&#45;&gt;\\CakeTestCase</title>
<path fill="none" stroke="black" d="M661.899,-814.192C654.305,-810.438 647.333,-805.498 642,-799 488.951,-612.521 738.244,-433.893 570,-261 549.387,-239.818 519.174,-231.117 490.093,-228.358"/>
<polygon fill="none" stroke="black" points="490.098,-224.849 479.872,-227.619 489.593,-231.831 490.098,-224.849"/>
</g>
<!-- \\AuditFixture -->
<g id="node13" class="node"><title>\\AuditFixture</title>
<polygon fill="none" stroke="black" points="770,-790 672,-790 672,-754 770,-754 770,-790"/>
<text text-anchor="middle" x="721" y="-769.1" font-family="Courier,monospace" font-size="11.00">AuditFixture</text>
</g>
<!-- \\CakeTestFixture -->
<g id="node39" class="node"><title>\\CakeTestFixture</title>
<ellipse fill="none" stroke="black" cx="403" cy="-180" rx="92.1303" ry="18.3848"/>
<text text-anchor="middle" x="403" y="-176.4" font-family="Times Roman,serif" font-size="14.00" fill="gray">\CakeTestFixture</text>
</g>
<!-- \\AuditFixture&#45;&gt;\\CakeTestFixture -->
<g id="edge25" class="edge"><title>\\AuditFixture&#45;&gt;\\CakeTestFixture</title>
<path fill="none" stroke="black" d="M671.984,-764.414C660.62,-760.407 649.632,-754.299 642,-745 488.951,-558.521 738.244,-379.893 570,-207 552.008,-188.511 526.702,-179.531 501.218,-175.712"/>
<polygon fill="none" stroke="black" points="501.432,-172.212 491.077,-174.453 500.57,-179.158 501.432,-172.212"/>
</g>
<!-- \\AuditDeltaFixture -->
<g id="node14" class="node"><title>\\AuditDeltaFixture</title>
<polygon fill="none" stroke="black" points="786,-736 656,-736 656,-700 786,-700 786,-736"/>
<text text-anchor="middle" x="721" y="-715.1" font-family="Courier,monospace" font-size="11.00">AuditDeltaFixture</text>
</g>
<!-- \\AuditDeltaFixture&#45;&gt;\\CakeTestFixture -->
<g id="edge27" class="edge"><title>\\AuditDeltaFixture&#45;&gt;\\CakeTestFixture</title>
<path fill="none" stroke="black" d="M655.478,-702.517C650.415,-699.362 645.804,-695.566 642,-691 502.801,-523.906 722.808,-361.747 570,-207 552.056,-188.828 527.033,-179.886 501.812,-176"/>
<polygon fill="none" stroke="black" points="502.138,-172.513 491.774,-174.71 501.246,-179.456 502.138,-172.513"/>
</g>
<!-- \\ArticleFixture -->
<g id="node15" class="node"><title>\\ArticleFixture</title>
<polygon fill="none" stroke="black" points="776,-682 666,-682 666,-646 776,-646 776,-682"/>
<text text-anchor="middle" x="721" y="-661.1" font-family="Courier,monospace" font-size="11.00">ArticleFixture</text>
</g>
<!-- \\ArticleFixture&#45;&gt;\\CakeTestFixture -->
<g id="edge29" class="edge"><title>\\ArticleFixture&#45;&gt;\\CakeTestFixture</title>
<path fill="none" stroke="black" d="M665.274,-653.512C656.439,-649.621 648.19,-644.294 642,-637 516.623,-489.256 707.401,-343.632 570,-207 551.983,-189.083 527.07,-180.193 501.98,-176.274"/>
<polygon fill="none" stroke="black" points="502.365,-172.795 491.995,-174.967 501.456,-179.736 502.365,-172.795"/>
</g>
<!-- \\AuthorFixture -->
<g id="node16" class="node"><title>\\AuthorFixture</title>
<polygon fill="none" stroke="black" points="773,-628 669,-628 669,-592 773,-592 773,-628"/>
<text text-anchor="middle" x="721" y="-607.1" font-family="Courier,monospace" font-size="11.00">AuthorFixture</text>
</g>
<!-- \\AuthorFixture&#45;&gt;\\CakeTestFixture -->
<g id="edge31" class="edge"><title>\\AuthorFixture&#45;&gt;\\CakeTestFixture</title>
<path fill="none" stroke="black" d="M668.653,-600.741C658.603,-596.768 649.035,-591.097 642,-583 530.405,-454.56 692.039,-325.561 570,-207 552.041,-189.553 527.522,-180.732 502.805,-176.726"/>
<polygon fill="none" stroke="black" points="502.975,-173.217 492.594,-175.335 502.03,-180.153 502.975,-173.217"/>
</g>
<!-- \\AuditLogSchema -->
<g id="node17" class="node"><title>\\AuditLogSchema</title>
<polygon fill="none" stroke="black" points="776,-574 666,-574 666,-538 776,-538 776,-574"/>
<text text-anchor="middle" x="721" y="-553.1" font-family="Courier,monospace" font-size="11.00">AuditLogSchema</text>
</g>
<!-- \\CakeSchema -->
<g id="node44" class="node"><title>\\CakeSchema</title>
<ellipse fill="none" stroke="black" cx="403" cy="-126" rx="77.0746" ry="18.3848"/>
<text text-anchor="middle" x="403" y="-122.4" font-family="Times Roman,serif" font-size="14.00" fill="gray">\CakeSchema</text>
</g>
<!-- \\AuditLogSchema&#45;&gt;\\CakeSchema -->
<g id="edge33" class="edge"><title>\\AuditLogSchema&#45;&gt;\\CakeSchema</title>
<path fill="none" stroke="black" d="M665.413,-545.392C656.564,-541.514 648.274,-536.221 642,-529 530.405,-400.56 692.039,-271.561 570,-153 547.951,-131.58 516.015,-123.162 485.963,-120.694"/>
<polygon fill="none" stroke="black" points="486.056,-117.194 475.861,-120.076 485.628,-124.181 486.056,-117.194"/>
</g>
<!-- \\AuditableBehavior -->
<g id="node18" class="node"><title>\\AuditableBehavior</title>
<polygon fill="none" stroke="black" points="786,-520 656,-520 656,-484 786,-484 786,-520"/>
<text text-anchor="middle" x="721" y="-499.1" font-family="Courier,monospace" font-size="11.00">AuditableBehavior</text>
</g>
<!-- \\ModelBehavior -->
<g id="node46" class="node"><title>\\ModelBehavior</title>
<ellipse fill="none" stroke="black" cx="403" cy="-72" rx="86.9741" ry="18.3848"/>
<text text-anchor="middle" x="403" y="-68.4" font-family="Times Roman,serif" font-size="14.00" fill="gray">\ModelBehavior</text>
</g>
<!-- \\AuditableBehavior&#45;&gt;\\ModelBehavior -->
<g id="edge35" class="edge"><title>\\AuditableBehavior&#45;&gt;\\ModelBehavior</title>
<path fill="none" stroke="black" d="M655.305,-486.119C650.345,-483.045 645.803,-479.377 642,-475 530.405,-346.56 692.039,-217.561 570,-99 550.574,-80.1274 523.473,-71.348 496.747,-67.8392"/>
<polygon fill="none" stroke="black" points="496.856,-64.3309 486.539,-66.7424 496.108,-71.2908 496.856,-64.3309"/>
</g>
<!-- \\AuditLogAppModel&#45;&gt;\\AppModel -->
<g id="edge37" class="edge"><title>\\AuditLogAppModel&#45;&gt;\\AppModel</title>
<path fill="none" stroke="black" d="M340.346,-1199.12C286.326,-1194.91 208.393,-1188.84 152.267,-1184.47"/>
<polygon fill="none" stroke="black" points="152.293,-1180.96 142.052,-1183.68 151.75,-1187.94 152.293,-1180.96"/>
</g>
<!-- \\AuditHelper -->
<g id="node20" class="node"><title>\\AuditHelper</title>
<polygon fill="none" stroke="black" points="766,-466 676,-466 676,-430 766,-430 766,-466"/>
<text text-anchor="middle" x="721" y="-445.1" font-family="Courier,monospace" font-size="11.00">AuditHelper</text>
</g>
<!-- \\AppHelper -->
<g id="node49" class="node"><title>\\AppHelper</title>
<ellipse fill="none" stroke="black" cx="403" cy="-18" rx="65.0538" ry="18.3848"/>
<text text-anchor="middle" x="403" y="-14.4" font-family="Times Roman,serif" font-size="14.00" fill="gray">\AppHelper</text>
</g>
<!-- \\AuditHelper&#45;&gt;\\AppHelper -->
<g id="edge39" class="edge"><title>\\AuditHelper&#45;&gt;\\AppHelper</title>
<path fill="none" stroke="black" d="M720.287,-429.944C716.712,-365.867 695.426,-147.739 570,-45 544.168,-23.8405 508.341,-16.1502 476.493,-14.1388"/>
<polygon fill="none" stroke="black" points="476.459,-10.6337 466.31,-13.6754 476.141,-17.6264 476.459,-10.6337"/>
</g>
</g>
</svg>
