<?xml version="1.0" encoding="UTF-8" standalone="no"?>
<!DOCTYPE svg PUBLIC "-//W3C//DTD SVG 1.1//EN"
 "http://www.w3.org/Graphics/SVG/1.1/DTD/svg11.dtd">
<!-- Generated by graphviz version 2.26.3 (20100126.1600)
 -->
<!-- Title: G Pages: 1 -->
<svg width="588pt" height="692pt"
 viewBox="0.00 0.00 588.00 692.00" xmlns="http://www.w3.org/2000/svg" xmlns:xlink="http://www.w3.org/1999/xlink">
<g id="graph1" class="graph" transform="scale(1 1) rotate(0) translate(4 688)">
<title>G</title>
<polygon fill="white" stroke="white" points="-4,5 -4,-688 585,-688 585,5 -4,5"/>
<g id="graph2" class="cluster"><title>cluster_Global</title>
<polyline fill="none" stroke="gray" points="410,-8 560,-8 "/>
<path fill="none" stroke="gray" d="M560,-8C566,-8 572,-14 572,-20"/>
<polyline fill="none" stroke="gray" points="572,-20 572,-664 "/>
<path fill="none" stroke="gray" d="M572,-664C572,-670 566,-676 560,-676"/>
<polyline fill="none" stroke="gray" points="560,-676 410,-676 "/>
<path fill="none" stroke="gray" d="M410,-676C404,-676 398,-670 398,-664"/>
<polyline fill="none" stroke="gray" points="398,-664 398,-20 "/>
<path fill="none" stroke="gray" d="M398,-20C398,-14 404,-8 410,-8"/>
<text text-anchor="middle" x="485" y="-662.1" font-family="Times Roman,serif" font-size="11.00" fill="gray">Global</text>
</g>
<!-- \\AuditFixture -->
<g id="node2" class="node"><title>\\AuditFixture</title>
<polygon fill="none" stroke="black" points="534,-646 436,-646 436,-610 534,-610 534,-646"/>
<text text-anchor="middle" x="485" y="-625.1" font-family="Courier,monospace" font-size="11.00">AuditFixture</text>
</g>
<!-- \\CakeTestFixture -->
<g id="node15" class="node"><title>\\CakeTestFixture</title>
<ellipse fill="none" stroke="black" cx="167" cy="-547" rx="92.1303" ry="18.3848"/>
<text text-anchor="middle" x="167" y="-543.4" font-family="Times Roman,serif" font-size="14.00" fill="gray">\CakeTestFixture</text>
</g>
<!-- \\AuditFixture&#45;&gt;\\CakeTestFixture -->
<g id="edge3" class="edge"><title>\\AuditFixture&#45;&gt;\\CakeTestFixture</title>
<path fill="none" stroke="black" d="M435.661,-615.433C381.21,-601.563 293.304,-579.172 232.969,-563.803"/>
<polygon fill="none" stroke="black" points="233.713,-560.381 223.159,-561.305 231.986,-567.165 233.713,-560.381"/>
</g>
<!-- \\AuditDeltaFixture -->
<g id="node3" class="node"><title>\\AuditDeltaFixture</title>
<polygon fill="none" stroke="black" points="550,-592 420,-592 420,-556 550,-556 550,-592"/>
<text text-anchor="middle" x="485" y="-571.1" font-family="Courier,monospace" font-size="11.00">AuditDeltaFixture</text>
</g>
<!-- \\AuditDeltaFixture&#45;&gt;\\CakeTestFixture -->
<g id="edge5" class="edge"><title>\\AuditDeltaFixture&#45;&gt;\\CakeTestFixture</title>
<path fill="none" stroke="black" d="M419.496,-568.438C374.07,-564.581 312.853,-559.384 262.073,-555.072"/>
<polygon fill="none" stroke="black" points="262.325,-551.581 252.064,-554.222 261.732,-558.556 262.325,-551.581"/>
</g>
<!-- \\AuthorFixture -->
<g id="node4" class="node"><title>\\AuthorFixture</title>
<polygon fill="none" stroke="black" points="537,-538 433,-538 433,-502 537,-502 537,-538"/>
<text text-anchor="middle" x="485" y="-517.1" font-family="Courier,monospace" font-size="11.00">AuthorFixture</text>
</g>
<!-- \\AuthorFixture&#45;&gt;\\CakeTestFixture -->
<g id="edge7" class="edge"><title>\\AuthorFixture&#45;&gt;\\CakeTestFixture</title>
<path fill="none" stroke="black" d="M432.845,-524.428C386.648,-528.351 318.054,-534.175 262.114,-538.924"/>
<polygon fill="none" stroke="black" points="261.492,-535.464 251.824,-539.798 262.085,-542.439 261.492,-535.464"/>
</g>
<!-- \\ArticleFixture -->
<g id="node5" class="node"><title>\\ArticleFixture</title>
<polygon fill="none" stroke="black" points="540,-484 430,-484 430,-448 540,-448 540,-484"/>
<text text-anchor="middle" x="485" y="-463.1" font-family="Courier,monospace" font-size="11.00">ArticleFixture</text>
</g>
<!-- \\ArticleFixture&#45;&gt;\\CakeTestFixture -->
<g id="edge9" class="edge"><title>\\ArticleFixture&#45;&gt;\\CakeTestFixture</title>
<path fill="none" stroke="black" d="M429.245,-480.202C374.519,-494.141 291.046,-515.403 233.029,-530.181"/>
<polygon fill="none" stroke="black" points="232.053,-526.818 223.226,-532.678 233.781,-533.601 232.053,-526.818"/>
</g>
<!-- \\Article -->
<g id="node6" class="node"><title>\\Article</title>
<polygon fill="none" stroke="black" points="517,-430 453,-430 453,-394 517,-394 517,-430"/>
<text text-anchor="middle" x="485" y="-409.1" font-family="Courier,monospace" font-size="11.00">Article</text>
</g>
<!-- \\CakeTestModel -->
<g id="node20" class="node"><title>\\CakeTestModel</title>
<ellipse fill="none" stroke="black" cx="167" cy="-331" rx="86.9741" ry="18.3848"/>
<text text-anchor="middle" x="167" y="-327.4" font-family="Times Roman,serif" font-size="14.00" fill="gray">\CakeTestModel</text>
</g>
<!-- \\Article&#45;&gt;\\CakeTestModel -->
<g id="edge11" class="edge"><title>\\Article&#45;&gt;\\CakeTestModel</title>
<path fill="none" stroke="black" d="M452.758,-403.788C401.168,-390.647 299.054,-364.636 231.908,-347.533"/>
<polygon fill="none" stroke="black" points="232.409,-344.049 221.855,-344.972 230.682,-350.833 232.409,-344.049"/>
</g>
<!-- \\Author -->
<g id="node7" class="node"><title>\\Author</title>
<polygon fill="none" stroke="black" points="513,-376 457,-376 457,-340 513,-340 513,-376"/>
<text text-anchor="middle" x="485" y="-355.1" font-family="Courier,monospace" font-size="11.00">Author</text>
</g>
<!-- \\Author&#45;&gt;\\CakeTestModel -->
<g id="edge13" class="edge"><title>\\Author&#45;&gt;\\CakeTestModel</title>
<path fill="none" stroke="black" d="M456.5,-355.58C412.201,-351.819 324.935,-344.41 257.743,-338.705"/>
<polygon fill="none" stroke="black" points="257.823,-335.199 247.562,-337.84 257.23,-342.174 257.823,-335.199"/>
</g>
<!-- \\Audit -->
<g id="node8" class="node"><title>\\Audit</title>
<polygon fill="none" stroke="black" points="512,-322 458,-322 458,-286 512,-286 512,-322"/>
<text text-anchor="middle" x="485" y="-301.1" font-family="Courier,monospace" font-size="11.00">Audit</text>
</g>
<!-- \\Audit&#45;&gt;\\CakeTestModel -->
<g id="edge15" class="edge"><title>\\Audit&#45;&gt;\\CakeTestModel</title>
<path fill="none" stroke="black" d="M457.887,-306.302C414.1,-310.02 325.866,-317.511 257.999,-323.274"/>
<polygon fill="none" stroke="black" points="257.385,-319.813 247.717,-324.147 257.977,-326.788 257.385,-319.813"/>
</g>
<!-- \\AuditDelta -->
<g id="node9" class="node"><title>\\AuditDelta</title>
<polygon fill="none" stroke="black" points="527,-268 443,-268 443,-232 527,-232 527,-268"/>
<text text-anchor="middle" x="485" y="-247.1" font-family="Courier,monospace" font-size="11.00">AuditDelta</text>
</g>
<!-- \\AuditDelta&#45;&gt;\\CakeTestModel -->
<g id="edge17" class="edge"><title>\\AuditDelta&#45;&gt;\\CakeTestModel</title>
<path fill="none" stroke="black" d="M442.772,-260.756C388.807,-274.502 294.847,-298.435 231.796,-314.495"/>
<polygon fill="none" stroke="black" points="230.779,-311.143 221.953,-317.003 232.507,-317.926 230.779,-311.143"/>
</g>
<!-- \\AuditableBehaviorTest -->
<g id="node10" class="node"><title>\\AuditableBehaviorTest</title>
<polygon fill="none" stroke="black" points="564,-214 406,-214 406,-178 564,-178 564,-214"/>
<text text-anchor="middle" x="485" y="-193.1" font-family="Courier,monospace" font-size="11.00">AuditableBehaviorTest</text>
</g>
<!-- \\CakeTestCase -->
<g id="node25" class="node"><title>\\CakeTestCase</title>
<ellipse fill="none" stroke="black" cx="167" cy="-196" rx="82.0244" ry="18.3848"/>
<text text-anchor="middle" x="167" y="-192.4" font-family="Times Roman,serif" font-size="14.00" fill="gray">\CakeTestCase</text>
</g>
<!-- \\AuditableBehaviorTest&#45;&gt;\\CakeTestCase -->
<g id="edge19" class="edge"><title>\\AuditableBehaviorTest&#45;&gt;\\CakeTestCase</title>
<path fill="none" stroke="black" d="M405.985,-196C361.514,-196 305.756,-196 259.285,-196"/>
<polygon fill="none" stroke="black" points="259.214,-192.5 249.214,-196 259.214,-199.5 259.214,-192.5"/>
</g>
<!-- \\AllAuditLogTest -->
<g id="node11" class="node"><title>\\AllAuditLogTest</title>
<polygon fill="none" stroke="black" points="544,-160 426,-160 426,-124 544,-124 544,-160"/>
<text text-anchor="middle" x="485" y="-139.1" font-family="Courier,monospace" font-size="11.00">AllAuditLogTest</text>
</g>
<!-- \\PHPUnit_Framework_TestSuite -->
<g id="node27" class="node"><title>\\PHPUnit_Framework_TestSuite</title>
<ellipse fill="none" stroke="black" cx="167" cy="-142" rx="166.877" ry="18.3848"/>
<text text-anchor="middle" x="167" y="-138.4" font-family="Times Roman,serif" font-size="14.00" fill="gray">\PHPUnit_Framework_TestSuite</text>
</g>
<!-- \\AllAuditLogTest&#45;&gt;\\PHPUnit_Framework_TestSuite -->
<g id="edge21" class="edge"><title>\\AllAuditLogTest&#45;&gt;\\PHPUnit_Framework_TestSuite</title>
<path fill="none" stroke="black" d="M425.932,-142C402.291,-142 373.693,-142 344.249,-142"/>
<polygon fill="none" stroke="black" points="344.237,-138.5 334.237,-142 344.237,-145.5 344.237,-138.5"/>
</g>
<!-- \\AuditableBehavior -->
<g id="node12" class="node"><title>\\AuditableBehavior</title>
<polygon fill="none" stroke="black" points="550,-106 420,-106 420,-70 550,-70 550,-106"/>
<text text-anchor="middle" x="485" y="-85.1" font-family="Courier,monospace" font-size="11.00">AuditableBehavior</text>
</g>
<!-- \\ModelBehavior -->
<g id="node29" class="node"><title>\\ModelBehavior</title>
<ellipse fill="none" stroke="black" cx="167" cy="-88" rx="86.9741" ry="18.3848"/>
<text text-anchor="middle" x="167" y="-84.4" font-family="Times Roman,serif" font-size="14.00" fill="gray">\ModelBehavior</text>
</g>
<!-- \\AuditableBehavior&#45;&gt;\\ModelBehavior -->
<g id="edge23" class="edge"><title>\\AuditableBehavior&#45;&gt;\\ModelBehavior</title>
<path fill="none" stroke="black" d="M419.496,-88C374.76,-88 314.709,-88 264.394,-88"/>
<polygon fill="none" stroke="black" points="264.142,-84.5001 254.142,-88 264.142,-91.5001 264.142,-84.5001"/>
</g>
<!-- \\AuditLogSchema -->
<g id="node13" class="node"><title>\\AuditLogSchema</title>
<polygon fill="none" stroke="black" points="540,-52 430,-52 430,-16 540,-16 540,-52"/>
<text text-anchor="middle" x="485" y="-31.1" font-family="Courier,monospace" font-size="11.00">AuditLogSchema</text>
</g>
<!-- \\CakeSchema -->
<g id="node31" class="node"><title>\\CakeSchema</title>
<ellipse fill="none" stroke="black" cx="167" cy="-34" rx="77.0746" ry="18.3848"/>
<text text-anchor="middle" x="167" y="-30.4" font-family="Times Roman,serif" font-size="14.00" fill="gray">\CakeSchema</text>
</g>
<!-- \\AuditLogSchema&#45;&gt;\\CakeSchema -->
<g id="edge25" class="edge"><title>\\AuditLogSchema&#45;&gt;\\CakeSchema</title>
<path fill="none" stroke="black" d="M429.245,-34C380.95,-34 310.266,-34 254.448,-34"/>
<polygon fill="none" stroke="black" points="254.207,-30.5001 244.207,-34 254.207,-37.5001 254.207,-30.5001"/>
</g>
</g>
</svg>
