<?xml version="1.0" encoding="UTF-8" standalone="no"?>
<!DOCTYPE svg PUBLIC "-//W3C//DTD SVG 1.1//EN"
 "http://www.w3.org/Graphics/SVG/1.1/DTD/svg11.dtd">
<!-- Generated by graphviz version 2.26.3 (20100126.1600)
 -->
<!-- Title: G Pages: 1 -->
<svg width="588pt" height="692pt"
 viewBox="0.00 0.00 588.00 692.00" xmlns="http://www.w3.org/2000/svg" xmlns:xlink="http://www.w3.org/1999/xlink">
<g id="graph1" class="graph" transform="scale(1 1) rotate(0) translate(4 688)">
<title>G</title>
<polygon fill="white" stroke="white" points="-4,5 -4,-688 585,-688 585,5 -4,5"/>
<g id="graph2" class="cluster"><title>cluster_Global</title>
<polyline fill="none" stroke="gray" points="410,-8 560,-8 "/>
<path fill="none" stroke="gray" d="M560,-8C566,-8 572,-14 572,-20"/>
<polyline fill="none" stroke="gray" points="572,-20 572,-664 "/>
<path fill="none" stroke="gray" d="M572,-664C572,-670 566,-676 560,-676"/>
<polyline fill="none" stroke="gray" points="560,-676 410,-676 "/>
<path fill="none" stroke="gray" d="M410,-676C404,-676 398,-670 398,-664"/>
<polyline fill="none" stroke="gray" points="398,-664 398,-20 "/>
<path fill="none" stroke="gray" d="M398,-20C398,-14 404,-8 410,-8"/>
<text text-anchor="middle" x="485" y="-662.1" font-family="Times Roman,serif" font-size="11.00" fill="gray">Global</text>
</g>
<!-- \\AuditLogSchema -->
<g id="node2" class="node"><title>\\AuditLogSchema</title>
<polygon fill="none" stroke="black" points="540,-646 430,-646 430,-610 540,-610 540,-646"/>
<text text-anchor="middle" x="485" y="-625.1" font-family="Courier,monospace" font-size="11.00">AuditLogSchema</text>
</g>
<!-- \\CakeSchema -->
<g id="node15" class="node"><title>\\CakeSchema</title>
<ellipse fill="none" stroke="black" cx="167" cy="-628" rx="77.0746" ry="18.3848"/>
<text text-anchor="middle" x="167" y="-624.4" font-family="Times Roman,serif" font-size="14.00" fill="gray">\CakeSchema</text>
</g>
<!-- \\AuditLogSchema&#45;&gt;\\CakeSchema -->
<g id="edge3" class="edge"><title>\\AuditLogSchema&#45;&gt;\\CakeSchema</title>
<path fill="none" stroke="black" d="M429.245,-628C380.95,-628 310.266,-628 254.448,-628"/>
<polygon fill="none" stroke="black" points="254.207,-624.5 244.207,-628 254.207,-631.5 254.207,-624.5"/>
</g>
<!-- \\AuthorFixture -->
<g id="node3" class="node"><title>\\AuthorFixture</title>
<polygon fill="none" stroke="black" points="537,-592 433,-592 433,-556 537,-556 537,-592"/>
<text text-anchor="middle" x="485" y="-571.1" font-family="Courier,monospace" font-size="11.00">AuthorFixture</text>
</g>
<!-- \\CakeTestFixture -->
<g id="node17" class="node"><title>\\CakeTestFixture</title>
<ellipse fill="none" stroke="black" cx="167" cy="-493" rx="92.1303" ry="18.3848"/>
<text text-anchor="middle" x="167" y="-489.4" font-family="Times Roman,serif" font-size="14.00" fill="gray">\CakeTestFixture</text>
</g>
<!-- \\AuthorFixture&#45;&gt;\\CakeTestFixture -->
<g id="edge5" class="edge"><title>\\AuthorFixture&#45;&gt;\\CakeTestFixture</title>
<path fill="none" stroke="black" d="M432.845,-560.715C378.294,-546.82 292.515,-524.971 233.217,-509.867"/>
<polygon fill="none" stroke="black" points="233.758,-506.393 223.203,-507.316 232.03,-513.176 233.758,-506.393"/>
</g>
<!-- \\AuditDeltaFixture -->
<g id="node4" class="node"><title>\\AuditDeltaFixture</title>
<polygon fill="none" stroke="black" points="550,-538 420,-538 420,-502 550,-502 550,-538"/>
<text text-anchor="middle" x="485" y="-517.1" font-family="Courier,monospace" font-size="11.00">AuditDeltaFixture</text>
</g>
<!-- \\AuditDeltaFixture&#45;&gt;\\CakeTestFixture -->
<g id="edge7" class="edge"><title>\\AuditDeltaFixture&#45;&gt;\\CakeTestFixture</title>
<path fill="none" stroke="black" d="M419.496,-514.438C374.07,-510.581 312.853,-505.384 262.073,-501.072"/>
<polygon fill="none" stroke="black" points="262.325,-497.581 252.064,-500.222 261.732,-504.556 262.325,-497.581"/>
</g>
<!-- \\AuditFixture -->
<g id="node5" class="node"><title>\\AuditFixture</title>
<polygon fill="none" stroke="black" points="534,-484 436,-484 436,-448 534,-448 534,-484"/>
<text text-anchor="middle" x="485" y="-463.1" font-family="Courier,monospace" font-size="11.00">AuditFixture</text>
</g>
<!-- \\AuditFixture&#45;&gt;\\CakeTestFixture -->
<g id="edge9" class="edge"><title>\\AuditFixture&#45;&gt;\\CakeTestFixture</title>
<path fill="none" stroke="black" d="M435.661,-470.189C389.499,-474.109 319.291,-480.07 262.223,-484.915"/>
<polygon fill="none" stroke="black" points="261.762,-481.442 252.094,-485.775 262.354,-488.416 261.762,-481.442"/>
</g>
<!-- \\ArticleFixture -->
<g id="node6" class="node"><title>\\ArticleFixture</title>
<polygon fill="none" stroke="black" points="540,-430 430,-430 430,-394 540,-394 540,-430"/>
<text text-anchor="middle" x="485" y="-409.1" font-family="Courier,monospace" font-size="11.00">ArticleFixture</text>
</g>
<!-- \\ArticleFixture&#45;&gt;\\CakeTestFixture -->
<g id="edge11" class="edge"><title>\\ArticleFixture&#45;&gt;\\CakeTestFixture</title>
<path fill="none" stroke="black" d="M429.245,-426.202C374.519,-440.141 291.046,-461.403 233.029,-476.181"/>
<polygon fill="none" stroke="black" points="232.053,-472.818 223.226,-478.678 233.781,-479.601 232.053,-472.818"/>
</g>
<!-- \\AllAuditLogTest -->
<g id="node7" class="node"><title>\\AllAuditLogTest</title>
<polygon fill="none" stroke="black" points="544,-376 426,-376 426,-340 544,-340 544,-376"/>
<text text-anchor="middle" x="485" y="-355.1" font-family="Courier,monospace" font-size="11.00">AllAuditLogTest</text>
</g>
<!-- \\PHPUnit_Framework_TestSuite -->
<g id="node22" class="node"><title>\\PHPUnit_Framework_TestSuite</title>
<ellipse fill="none" stroke="black" cx="167" cy="-358" rx="166.877" ry="18.3848"/>
<text text-anchor="middle" x="167" y="-354.4" font-family="Times Roman,serif" font-size="14.00" fill="gray">\PHPUnit_Framework_TestSuite</text>
</g>
<!-- \\AllAuditLogTest&#45;&gt;\\PHPUnit_Framework_TestSuite -->
<g id="edge13" class="edge"><title>\\AllAuditLogTest&#45;&gt;\\PHPUnit_Framework_TestSuite</title>
<path fill="none" stroke="black" d="M425.932,-358C402.291,-358 373.693,-358 344.249,-358"/>
<polygon fill="none" stroke="black" points="344.237,-354.5 334.237,-358 344.237,-361.5 344.237,-354.5"/>
</g>
<!-- \\Article -->
<g id="node8" class="node"><title>\\Article</title>
<polygon fill="none" stroke="black" points="517,-322 453,-322 453,-286 517,-286 517,-322"/>
<text text-anchor="middle" x="485" y="-301.1" font-family="Courier,monospace" font-size="11.00">Article</text>
</g>
<!-- \\CakeTestModel -->
<g id="node24" class="node"><title>\\CakeTestModel</title>
<ellipse fill="none" stroke="black" cx="167" cy="-223" rx="86.9741" ry="18.3848"/>
<text text-anchor="middle" x="167" y="-219.4" font-family="Times Roman,serif" font-size="14.00" fill="gray">\CakeTestModel</text>
</g>
<!-- \\Article&#45;&gt;\\CakeTestModel -->
<g id="edge15" class="edge"><title>\\Article&#45;&gt;\\CakeTestModel</title>
<path fill="none" stroke="black" d="M452.758,-295.788C401.168,-282.647 299.054,-256.636 231.908,-239.533"/>
<polygon fill="none" stroke="black" points="232.409,-236.049 221.855,-236.972 230.682,-242.833 232.409,-236.049"/>
</g>
<!-- \\Author -->
<g id="node9" class="node"><title>\\Author</title>
<polygon fill="none" stroke="black" points="513,-268 457,-268 457,-232 513,-232 513,-268"/>
<text text-anchor="middle" x="485" y="-247.1" font-family="Courier,monospace" font-size="11.00">Author</text>
</g>
<!-- \\Author&#45;&gt;\\CakeTestModel -->
<g id="edge17" class="edge"><title>\\Author&#45;&gt;\\CakeTestModel</title>
<path fill="none" stroke="black" d="M456.5,-247.58C412.201,-243.819 324.935,-236.41 257.743,-230.705"/>
<polygon fill="none" stroke="black" points="257.823,-227.199 247.562,-229.84 257.23,-234.174 257.823,-227.199"/>
</g>
<!-- \\Audit -->
<g id="node10" class="node"><title>\\Audit</title>
<polygon fill="none" stroke="black" points="512,-214 458,-214 458,-178 512,-178 512,-214"/>
<text text-anchor="middle" x="485" y="-193.1" font-family="Courier,monospace" font-size="11.00">Audit</text>
</g>
<!-- \\Audit&#45;&gt;\\CakeTestModel -->
<g id="edge19" class="edge"><title>\\Audit&#45;&gt;\\CakeTestModel</title>
<path fill="none" stroke="black" d="M457.887,-198.302C414.1,-202.02 325.866,-209.511 257.999,-215.274"/>
<polygon fill="none" stroke="black" points="257.385,-211.813 247.717,-216.147 257.977,-218.788 257.385,-211.813"/>
</g>
<!-- \\AuditDelta -->
<g id="node11" class="node"><title>\\AuditDelta</title>
<polygon fill="none" stroke="black" points="527,-160 443,-160 443,-124 527,-124 527,-160"/>
<text text-anchor="middle" x="485" y="-139.1" font-family="Courier,monospace" font-size="11.00">AuditDelta</text>
</g>
<!-- \\AuditDelta&#45;&gt;\\CakeTestModel -->
<g id="edge21" class="edge"><title>\\AuditDelta&#45;&gt;\\CakeTestModel</title>
<path fill="none" stroke="black" d="M442.772,-152.756C388.807,-166.502 294.847,-190.435 231.796,-206.495"/>
<polygon fill="none" stroke="black" points="230.779,-203.143 221.953,-209.003 232.507,-209.926 230.779,-203.143"/>
</g>
<!-- \\AuditableBehaviorTest -->
<g id="node12" class="node"><title>\\AuditableBehaviorTest</title>
<polygon fill="none" stroke="black" points="564,-106 406,-106 406,-70 564,-70 564,-106"/>
<text text-anchor="middle" x="485" y="-85.1" font-family="Courier,monospace" font-size="11.00">AuditableBehaviorTest</text>
</g>
<!-- \\CakeTestCase -->
<g id="node29" class="node"><title>\\CakeTestCase</title>
<ellipse fill="none" stroke="black" cx="167" cy="-88" rx="82.0244" ry="18.3848"/>
<text text-anchor="middle" x="167" y="-84.4" font-family="Times Roman,serif" font-size="14.00" fill="gray">\CakeTestCase</text>
</g>
<!-- \\AuditableBehaviorTest&#45;&gt;\\CakeTestCase -->
<g id="edge23" class="edge"><title>\\AuditableBehaviorTest&#45;&gt;\\CakeTestCase</title>
<path fill="none" stroke="black" d="M405.985,-88C361.514,-88 305.756,-88 259.285,-88"/>
<polygon fill="none" stroke="black" points="259.214,-84.5001 249.214,-88 259.214,-91.5001 259.214,-84.5001"/>
</g>
<!-- \\AuditableBehavior -->
<g id="node13" class="node"><title>\\AuditableBehavior</title>
<polygon fill="none" stroke="black" points="550,-52 420,-52 420,-16 550,-16 550,-52"/>
<text text-anchor="middle" x="485" y="-31.1" font-family="Courier,monospace" font-size="11.00">AuditableBehavior</text>
</g>
<!-- \\ModelBehavior -->
<g id="node31" class="node"><title>\\ModelBehavior</title>
<ellipse fill="none" stroke="black" cx="167" cy="-34" rx="86.9741" ry="18.3848"/>
<text text-anchor="middle" x="167" y="-30.4" font-family="Times Roman,serif" font-size="14.00" fill="gray">\ModelBehavior</text>
</g>
<!-- \\AuditableBehavior&#45;&gt;\\ModelBehavior -->
<g id="edge25" class="edge"><title>\\AuditableBehavior&#45;&gt;\\ModelBehavior</title>
<path fill="none" stroke="black" d="M419.496,-34C374.76,-34 314.709,-34 264.394,-34"/>
<polygon fill="none" stroke="black" points="264.142,-30.5001 254.142,-34 264.142,-37.5001 264.142,-30.5001"/>
</g>
</g>
</svg>
