<?xml version="1.0" encoding="UTF-8" standalone="no"?>
<!DOCTYPE svg PUBLIC "-//W3C//DTD SVG 1.1//EN"
 "http://www.w3.org/Graphics/SVG/1.1/DTD/svg11.dtd">
<!-- Generated by graphviz version 2.26.3 (20100126.1600)
 -->
<!-- Title: G Pages: 1 -->
<svg width="588pt" height="692pt"
 viewBox="0.00 0.00 588.00 692.00" xmlns="http://www.w3.org/2000/svg" xmlns:xlink="http://www.w3.org/1999/xlink">
<g id="graph1" class="graph" transform="scale(1 1) rotate(0) translate(4 688)">
<title>G</title>
<polygon fill="white" stroke="white" points="-4,5 -4,-688 585,-688 585,5 -4,5"/>
<g id="graph2" class="cluster"><title>cluster_Global</title>
<polyline fill="none" stroke="gray" points="410,-8 560,-8 "/>
<path fill="none" stroke="gray" d="M560,-8C566,-8 572,-14 572,-20"/>
<polyline fill="none" stroke="gray" points="572,-20 572,-664 "/>
<path fill="none" stroke="gray" d="M572,-664C572,-670 566,-676 560,-676"/>
<polyline fill="none" stroke="gray" points="560,-676 410,-676 "/>
<path fill="none" stroke="gray" d="M410,-676C404,-676 398,-670 398,-664"/>
<polyline fill="none" stroke="gray" points="398,-664 398,-20 "/>
<path fill="none" stroke="gray" d="M398,-20C398,-14 404,-8 410,-8"/>
<text text-anchor="middle" x="485" y="-662.1" font-family="Times Roman,serif" font-size="11.00" fill="gray">Global</text>
</g>
<!-- \\AuditLogSchema -->
<g id="node2" class="node"><title>\\AuditLogSchema</title>
<polygon fill="none" stroke="black" points="540,-646 430,-646 430,-610 540,-610 540,-646"/>
<text text-anchor="middle" x="485" y="-625.1" font-family="Courier,monospace" font-size="11.00">AuditLogSchema</text>
</g>
<!-- \\CakeSchema -->
<g id="node15" class="node"><title>\\CakeSchema</title>
<ellipse fill="none" stroke="black" cx="167" cy="-628" rx="77.0746" ry="18.3848"/>
<text text-anchor="middle" x="167" y="-624.4" font-family="Times Roman,serif" font-size="14.00" fill="gray">\CakeSchema</text>
</g>
<!-- \\AuditLogSchema&#45;&gt;\\CakeSchema -->
<g id="edge3" class="edge"><title>\\AuditLogSchema&#45;&gt;\\CakeSchema</title>
<path fill="none" stroke="black" d="M429.245,-628C380.95,-628 310.266,-628 254.448,-628"/>
<polygon fill="none" stroke="black" points="254.207,-624.5 244.207,-628 254.207,-631.5 254.207,-624.5"/>
</g>
<!-- \\AuditableBehavior -->
<g id="node3" class="node"><title>\\AuditableBehavior</title>
<polygon fill="none" stroke="black" points="550,-592 420,-592 420,-556 550,-556 550,-592"/>
<text text-anchor="middle" x="485" y="-571.1" font-family="Courier,monospace" font-size="11.00">AuditableBehavior</text>
</g>
<!-- \\ModelBehavior -->
<g id="node17" class="node"><title>\\ModelBehavior</title>
<ellipse fill="none" stroke="black" cx="167" cy="-574" rx="86.9741" ry="18.3848"/>
<text text-anchor="middle" x="167" y="-570.4" font-family="Times Roman,serif" font-size="14.00" fill="gray">\ModelBehavior</text>
</g>
<!-- \\AuditableBehavior&#45;&gt;\\ModelBehavior -->
<g id="edge5" class="edge"><title>\\AuditableBehavior&#45;&gt;\\ModelBehavior</title>
<path fill="none" stroke="black" d="M419.496,-574C374.76,-574 314.709,-574 264.394,-574"/>
<polygon fill="none" stroke="black" points="264.142,-570.5 254.142,-574 264.142,-577.5 264.142,-570.5"/>
</g>
<!-- \\AllAuditLogTest -->
<g id="node4" class="node"><title>\\AllAuditLogTest</title>
<polygon fill="none" stroke="black" points="544,-538 426,-538 426,-502 544,-502 544,-538"/>
<text text-anchor="middle" x="485" y="-517.1" font-family="Courier,monospace" font-size="11.00">AllAuditLogTest</text>
</g>
<!-- \\PHPUnit_Framework_TestSuite -->
<g id="node19" class="node"><title>\\PHPUnit_Framework_TestSuite</title>
<ellipse fill="none" stroke="black" cx="167" cy="-520" rx="166.877" ry="18.3848"/>
<text text-anchor="middle" x="167" y="-516.4" font-family="Times Roman,serif" font-size="14.00" fill="gray">\PHPUnit_Framework_TestSuite</text>
</g>
<!-- \\AllAuditLogTest&#45;&gt;\\PHPUnit_Framework_TestSuite -->
<g id="edge7" class="edge"><title>\\AllAuditLogTest&#45;&gt;\\PHPUnit_Framework_TestSuite</title>
<path fill="none" stroke="black" d="M425.932,-520C402.291,-520 373.693,-520 344.249,-520"/>
<polygon fill="none" stroke="black" points="344.237,-516.5 334.237,-520 344.237,-523.5 344.237,-516.5"/>
</g>
<!-- \\Article -->
<g id="node5" class="node"><title>\\Article</title>
<polygon fill="none" stroke="black" points="517,-484 453,-484 453,-448 517,-448 517,-484"/>
<text text-anchor="middle" x="485" y="-463.1" font-family="Courier,monospace" font-size="11.00">Article</text>
</g>
<!-- \\CakeTestModel -->
<g id="node21" class="node"><title>\\CakeTestModel</title>
<ellipse fill="none" stroke="black" cx="167" cy="-385" rx="86.9741" ry="18.3848"/>
<text text-anchor="middle" x="167" y="-381.4" font-family="Times Roman,serif" font-size="14.00" fill="gray">\CakeTestModel</text>
</g>
<!-- \\Article&#45;&gt;\\CakeTestModel -->
<g id="edge9" class="edge"><title>\\Article&#45;&gt;\\CakeTestModel</title>
<path fill="none" stroke="black" d="M452.758,-457.788C401.168,-444.647 299.054,-418.636 231.908,-401.533"/>
<polygon fill="none" stroke="black" points="232.409,-398.049 221.855,-398.972 230.682,-404.833 232.409,-398.049"/>
</g>
<!-- \\Author -->
<g id="node6" class="node"><title>\\Author</title>
<polygon fill="none" stroke="black" points="513,-430 457,-430 457,-394 513,-394 513,-430"/>
<text text-anchor="middle" x="485" y="-409.1" font-family="Courier,monospace" font-size="11.00">Author</text>
</g>
<!-- \\Author&#45;&gt;\\CakeTestModel -->
<g id="edge11" class="edge"><title>\\Author&#45;&gt;\\CakeTestModel</title>
<path fill="none" stroke="black" d="M456.5,-409.58C412.201,-405.819 324.935,-398.41 257.743,-392.705"/>
<polygon fill="none" stroke="black" points="257.823,-389.199 247.562,-391.84 257.23,-396.174 257.823,-389.199"/>
</g>
<!-- \\Audit -->
<g id="node7" class="node"><title>\\Audit</title>
<polygon fill="none" stroke="black" points="512,-376 458,-376 458,-340 512,-340 512,-376"/>
<text text-anchor="middle" x="485" y="-355.1" font-family="Courier,monospace" font-size="11.00">Audit</text>
</g>
<!-- \\Audit&#45;&gt;\\CakeTestModel -->
<g id="edge13" class="edge"><title>\\Audit&#45;&gt;\\CakeTestModel</title>
<path fill="none" stroke="black" d="M457.887,-360.302C414.1,-364.02 325.866,-371.511 257.999,-377.274"/>
<polygon fill="none" stroke="black" points="257.385,-373.813 247.717,-378.147 257.977,-380.788 257.385,-373.813"/>
</g>
<!-- \\AuditDelta -->
<g id="node8" class="node"><title>\\AuditDelta</title>
<polygon fill="none" stroke="black" points="527,-322 443,-322 443,-286 527,-286 527,-322"/>
<text text-anchor="middle" x="485" y="-301.1" font-family="Courier,monospace" font-size="11.00">AuditDelta</text>
</g>
<!-- \\AuditDelta&#45;&gt;\\CakeTestModel -->
<g id="edge15" class="edge"><title>\\AuditDelta&#45;&gt;\\CakeTestModel</title>
<path fill="none" stroke="black" d="M442.772,-314.756C388.807,-328.502 294.847,-352.435 231.796,-368.495"/>
<polygon fill="none" stroke="black" points="230.779,-365.143 221.953,-371.003 232.507,-371.926 230.779,-365.143"/>
</g>
<!-- \\AuditableBehaviorTest -->
<g id="node9" class="node"><title>\\AuditableBehaviorTest</title>
<polygon fill="none" stroke="black" points="564,-268 406,-268 406,-232 564,-232 564,-268"/>
<text text-anchor="middle" x="485" y="-247.1" font-family="Courier,monospace" font-size="11.00">AuditableBehaviorTest</text>
</g>
<!-- \\CakeTestCase -->
<g id="node26" class="node"><title>\\CakeTestCase</title>
<ellipse fill="none" stroke="black" cx="167" cy="-250" rx="82.0244" ry="18.3848"/>
<text text-anchor="middle" x="167" y="-246.4" font-family="Times Roman,serif" font-size="14.00" fill="gray">\CakeTestCase</text>
</g>
<!-- \\AuditableBehaviorTest&#45;&gt;\\CakeTestCase -->
<g id="edge17" class="edge"><title>\\AuditableBehaviorTest&#45;&gt;\\CakeTestCase</title>
<path fill="none" stroke="black" d="M405.985,-250C361.514,-250 305.756,-250 259.285,-250"/>
<polygon fill="none" stroke="black" points="259.214,-246.5 249.214,-250 259.214,-253.5 259.214,-246.5"/>
</g>
<!-- \\AuditFixture -->
<g id="node10" class="node"><title>\\AuditFixture</title>
<polygon fill="none" stroke="black" points="534,-214 436,-214 436,-178 534,-178 534,-214"/>
<text text-anchor="middle" x="485" y="-193.1" font-family="Courier,monospace" font-size="11.00">AuditFixture</text>
</g>
<!-- \\CakeTestFixture -->
<g id="node28" class="node"><title>\\CakeTestFixture</title>
<ellipse fill="none" stroke="black" cx="167" cy="-115" rx="92.1303" ry="18.3848"/>
<text text-anchor="middle" x="167" y="-111.4" font-family="Times Roman,serif" font-size="14.00" fill="gray">\CakeTestFixture</text>
</g>
<!-- \\AuditFixture&#45;&gt;\\CakeTestFixture -->
<g id="edge19" class="edge"><title>\\AuditFixture&#45;&gt;\\CakeTestFixture</title>
<path fill="none" stroke="black" d="M435.661,-183.433C381.21,-169.563 293.304,-147.172 232.969,-131.803"/>
<polygon fill="none" stroke="black" points="233.713,-128.381 223.159,-129.305 231.986,-135.165 233.713,-128.381"/>
</g>
<!-- \\ArticleFixture -->
<g id="node11" class="node"><title>\\ArticleFixture</title>
<polygon fill="none" stroke="black" points="540,-160 430,-160 430,-124 540,-124 540,-160"/>
<text text-anchor="middle" x="485" y="-139.1" font-family="Courier,monospace" font-size="11.00">ArticleFixture</text>
</g>
<!-- \\ArticleFixture&#45;&gt;\\CakeTestFixture -->
<g id="edge21" class="edge"><title>\\ArticleFixture&#45;&gt;\\CakeTestFixture</title>
<path fill="none" stroke="black" d="M429.245,-137.266C383.13,-133.351 316.602,-127.702 262.094,-123.074"/>
<polygon fill="none" stroke="black" points="262.324,-119.581 252.064,-122.222 261.732,-126.556 262.324,-119.581"/>
</g>
<!-- \\AuthorFixture -->
<g id="node12" class="node"><title>\\AuthorFixture</title>
<polygon fill="none" stroke="black" points="537,-106 433,-106 433,-70 537,-70 537,-106"/>
<text text-anchor="middle" x="485" y="-85.1" font-family="Courier,monospace" font-size="11.00">AuthorFixture</text>
</g>
<!-- \\AuthorFixture&#45;&gt;\\CakeTestFixture -->
<g id="edge23" class="edge"><title>\\AuthorFixture&#45;&gt;\\CakeTestFixture</title>
<path fill="none" stroke="black" d="M432.845,-92.4283C386.648,-96.3507 318.054,-102.175 262.114,-106.924"/>
<polygon fill="none" stroke="black" points="261.492,-103.464 251.824,-107.798 262.085,-110.439 261.492,-103.464"/>
</g>
<!-- \\AuditDeltaFixture -->
<g id="node13" class="node"><title>\\AuditDeltaFixture</title>
<polygon fill="none" stroke="black" points="550,-52 420,-52 420,-16 550,-16 550,-52"/>
<text text-anchor="middle" x="485" y="-31.1" font-family="Courier,monospace" font-size="11.00">AuditDeltaFixture</text>
</g>
<!-- \\AuditDeltaFixture&#45;&gt;\\CakeTestFixture -->
<g id="edge25" class="edge"><title>\\AuditDeltaFixture&#45;&gt;\\CakeTestFixture</title>
<path fill="none" stroke="black" d="M419.496,-50.685C365.066,-64.5493 287.964,-84.1884 233.311,-98.1093"/>
<polygon fill="none" stroke="black" points="232.205,-94.7793 223.378,-100.639 233.933,-101.563 232.205,-94.7793"/>
</g>
</g>
</svg>
