<?xml version="1.0" encoding="UTF-8" standalone="no"?>
<!DOCTYPE svg PUBLIC "-//W3C//DTD SVG 1.1//EN"
 "http://www.w3.org/Graphics/SVG/1.1/DTD/svg11.dtd">
<!-- Generated by graphviz version 2.26.3 (20100126.1600)
 -->
<!-- Title: G Pages: 1 -->
<svg width="824pt" height="1484pt"
 viewBox="0.00 0.00 824.00 1484.00" xmlns="http://www.w3.org/2000/svg" xmlns:xlink="http://www.w3.org/1999/xlink">
<g id="graph1" class="graph" transform="scale(1 1) rotate(0) translate(4 1480)">
<title>G</title>
<polygon fill="white" stroke="white" points="-4,5 -4,-1480 821,-1480 821,5 -4,5"/>
<g id="graph2" class="cluster"><title>cluster_Global</title>
<polyline fill="none" stroke="gray" points="328,-476 796,-476 "/>
<path fill="none" stroke="gray" d="M796,-476C802,-476 808,-482 808,-488"/>
<polyline fill="none" stroke="gray" points="808,-488 808,-1456 "/>
<path fill="none" stroke="gray" d="M808,-1456C808,-1462 802,-1468 796,-1468"/>
<polyline fill="none" stroke="gray" points="796,-1468 328,-1468 "/>
<path fill="none" stroke="gray" d="M328,-1468C322,-1468 316,-1462 316,-1456"/>
<polyline fill="none" stroke="gray" points="316,-1456 316,-488 "/>
<path fill="none" stroke="gray" d="M316,-488C316,-482 322,-476 328,-476"/>
<text text-anchor="middle" x="562" y="-1454.1" font-family="Times Roman,serif" font-size="11.00" fill="gray">Global</text>
</g>
<!-- \\AuditHelper -->
<g id="node2" class="node"><title>\\AuditHelper</title>
<polygon fill="none" stroke="black" points="766,-1384 676,-1384 676,-1348 766,-1348 766,-1384"/>
<text text-anchor="middle" x="721" y="-1363.1" font-family="Courier,monospace" font-size="11.00">AuditHelper</text>
</g>
<!-- \\AppHelper -->
<g id="node22" class="node"><title>\\AppHelper</title>
<ellipse fill="none" stroke="black" cx="403" cy="-450" rx="65.0538" ry="18.3848"/>
<text text-anchor="middle" x="403" y="-446.4" font-family="Times Roman,serif" font-size="14.00" fill="gray">\AppHelper</text>
</g>
<!-- \\AuditHelper&#45;&gt;\\AppHelper -->
<g id="edge3" class="edge"><title>\\AuditHelper&#45;&gt;\\AppHelper</title>
<path fill="none" stroke="black" d="M675.369,-1359.9C662.707,-1355.96 650.198,-1349.52 642,-1339 523.136,-1186.53 703.376,-611.955 570,-472 544.844,-445.603 504.574,-439.701 469.882,-440.592"/>
<polygon fill="none" stroke="black" points="469.625,-437.1 459.791,-441.041 469.937,-444.093 469.625,-437.1"/>
</g>
<!-- \\AuditLogSchema -->
<g id="node3" class="node"><title>\\AuditLogSchema</title>
<polygon fill="none" stroke="black" points="776,-1330 666,-1330 666,-1294 776,-1294 776,-1330"/>
<text text-anchor="middle" x="721" y="-1309.1" font-family="Courier,monospace" font-size="11.00">AuditLogSchema</text>
</g>
<!-- \\CakeSchema -->
<g id="node24" class="node"><title>\\CakeSchema</title>
<ellipse fill="none" stroke="black" cx="403" cy="-396" rx="77.0746" ry="18.3848"/>
<text text-anchor="middle" x="403" y="-392.4" font-family="Times Roman,serif" font-size="14.00" fill="gray">\CakeSchema</text>
</g>
<!-- \\AuditLogSchema&#45;&gt;\\CakeSchema -->
<g id="edge5" class="edge"><title>\\AuditLogSchema&#45;&gt;\\CakeSchema</title>
<path fill="none" stroke="black" d="M665.167,-1302.1C656.23,-1298.16 647.972,-1292.66 642,-1285 523.781,-1133.43 700.593,-564.05 570,-423 548.394,-399.664 515.189,-391.239 484.061,-389.285"/>
<polygon fill="none" stroke="black" points="484.182,-385.788 474.045,-388.868 483.891,-392.781 484.182,-385.788"/>
</g>
<!-- \\AuditLogAppController -->
<g id="node4" class="node"><title>\\AuditLogAppController</title>
<polygon fill="none" stroke="black" points="482,-1438 324,-1438 324,-1402 482,-1402 482,-1438"/>
<text text-anchor="middle" x="403" y="-1417.1" font-family="Courier,monospace" font-size="11.00">AuditLogAppController</text>
</g>
<!-- \\AppController -->
<g id="node26" class="node"><title>\\AppController</title>
<ellipse fill="none" stroke="black" cx="82" cy="-1420" rx="82.0244" ry="18.3848"/>
<text text-anchor="middle" x="82" y="-1416.4" font-family="Times Roman,serif" font-size="14.00" fill="gray">\AppController</text>
</g>
<!-- \\AuditLogAppController&#45;&gt;\\AppController -->
<g id="edge7" class="edge"><title>\\AuditLogAppController&#45;&gt;\\AppController</title>
<path fill="none" stroke="black" d="M323.652,-1420C278.421,-1420 221.521,-1420 174.298,-1420"/>
<polygon fill="none" stroke="black" points="174.068,-1416.5 164.068,-1420 174.068,-1423.5 174.068,-1416.5"/>
</g>
<!-- \\AuditController -->
<g id="node5" class="node"><title>\\AuditController</title>
<polygon fill="none" stroke="black" points="780,-1438 662,-1438 662,-1402 780,-1402 780,-1438"/>
<text text-anchor="middle" x="721" y="-1417.1" font-family="Courier,monospace" font-size="11.00">AuditController</text>
</g>
<!-- \\AuditController&#45;&gt;\\AuditLogAppController -->
<g id="edge9" class="edge"><title>\\AuditController&#45;&gt;\\AuditLogAppController</title>
<path fill="none" stroke="black" d="M661.932,-1420C614.347,-1420 546.681,-1420 492.454,-1420"/>
<polygon fill="none" stroke="black" points="492.146,-1416.5 482.146,-1420 492.146,-1423.5 492.146,-1416.5"/>
</g>
<!-- \\Audit -->
<g id="node6" class="node"><title>\\Audit</title>
<polygon fill="none" stroke="black" points="748,-1276 694,-1276 694,-1240 748,-1240 748,-1276"/>
<text text-anchor="middle" x="721" y="-1255.1" font-family="Courier,monospace" font-size="11.00">Audit</text>
</g>
<!-- \\CakeTestModel -->
<g id="node29" class="node"><title>\\CakeTestModel</title>
<ellipse fill="none" stroke="black" cx="403" cy="-342" rx="86.9741" ry="18.3848"/>
<text text-anchor="middle" x="403" y="-338.4" font-family="Times Roman,serif" font-size="14.00" fill="gray">\CakeTestModel</text>
</g>
<!-- \\Audit&#45;&gt;\\CakeTestModel -->
<g id="edge11" class="edge"><title>\\Audit&#45;&gt;\\CakeTestModel</title>
<path fill="none" stroke="black" d="M693.96,-1256.13C676.297,-1253.39 654.301,-1246.77 642,-1231 523.781,-1079.43 700.593,-510.05 570,-369 550.719,-348.175 522.199,-339.224 494.162,-336.151"/>
<polygon fill="none" stroke="black" points="494.134,-332.636 483.873,-335.274 493.539,-339.611 494.134,-332.636"/>
</g>
<!-- \\AuditLogAppModel -->
<g id="node7" class="node"><title>\\AuditLogAppModel</title>
<polygon fill="none" stroke="black" points="783,-1060 659,-1060 659,-1024 783,-1024 783,-1060"/>
<text text-anchor="middle" x="721" y="-1039.1" font-family="Courier,monospace" font-size="11.00">AuditLogAppModel</text>
</g>
<!-- \\AppModel -->
<g id="node31" class="node"><title>\\AppModel</title>
<ellipse fill="none" stroke="black" cx="403" cy="-288" rx="62.2254" ry="18.3848"/>
<text text-anchor="middle" x="403" y="-284.4" font-family="Times Roman,serif" font-size="14.00" fill="gray">\AppModel</text>
</g>
<!-- \\AuditLogAppModel&#45;&gt;\\AppModel -->
<g id="edge13" class="edge"><title>\\AuditLogAppModel&#45;&gt;\\AppModel</title>
<path fill="none" stroke="black" d="M658.247,-1028.49C652.044,-1024.98 646.421,-1020.56 642,-1015 544.65,-892.622 677.334,-428.723 570,-315 545.047,-288.562 505.182,-281.378 470.658,-281.01"/>
<polygon fill="none" stroke="black" points="470.583,-277.51 460.61,-281.088 470.637,-284.51 470.583,-277.51"/>
</g>
<!-- \\AuditableBehavior -->
<g id="node8" class="node"><title>\\AuditableBehavior</title>
<polygon fill="none" stroke="black" points="786,-952 656,-952 656,-916 786,-916 786,-952"/>
<text text-anchor="middle" x="721" y="-931.1" font-family="Courier,monospace" font-size="11.00">AuditableBehavior</text>
</g>
<!-- \\ModelBehavior -->
<g id="node33" class="node"><title>\\ModelBehavior</title>
<ellipse fill="none" stroke="black" cx="403" cy="-234" rx="86.9741" ry="18.3848"/>
<text text-anchor="middle" x="403" y="-230.4" font-family="Times Roman,serif" font-size="14.00" fill="gray">\ModelBehavior</text>
</g>
<!-- \\AuditableBehavior&#45;&gt;\\ModelBehavior -->
<g id="edge15" class="edge"><title>\\AuditableBehavior&#45;&gt;\\ModelBehavior</title>
<path fill="none" stroke="black" d="M655.3,-918.663C650.274,-915.478 645.719,-911.635 642,-907 461.196,-681.685 769.179,-470.247 570,-261 550.613,-240.633 522.369,-231.724 494.604,-228.551"/>
<polygon fill="none" stroke="black" points="494.688,-225.044 484.414,-227.63 494.059,-232.016 494.688,-225.044"/>
</g>
<!-- \\AuditDelta -->
<g id="node9" class="node"><title>\\AuditDelta</title>
<polygon fill="none" stroke="black" points="763,-1222 679,-1222 679,-1186 763,-1186 763,-1222"/>
<text text-anchor="middle" x="721" y="-1201.1" font-family="Courier,monospace" font-size="11.00">AuditDelta</text>
</g>
<!-- \\AuditDelta&#45;&gt;\\CakeTestModel -->
<g id="edge17" class="edge"><title>\\AuditDelta&#45;&gt;\\CakeTestModel</title>
<path fill="none" stroke="black" d="M678.711,-1198.85C664.957,-1195.02 650.946,-1188.4 642,-1177 530.74,-1035.16 692.836,-500.937 570,-369 550.75,-348.324 522.39,-339.374 494.483,-336.256"/>
<polygon fill="none" stroke="black" points="494.506,-332.745 484.239,-335.361 493.896,-339.718 494.506,-332.745"/>
</g>
<!-- \\AuditFixture -->
<g id="node10" class="node"><title>\\AuditFixture</title>
<polygon fill="none" stroke="black" points="770,-898 672,-898 672,-862 770,-862 770,-898"/>
<text text-anchor="middle" x="721" y="-877.1" font-family="Courier,monospace" font-size="11.00">AuditFixture</text>
</g>
<!-- \\CakeTestFixture -->
<g id="node36" class="node"><title>\\CakeTestFixture</title>
<ellipse fill="none" stroke="black" cx="403" cy="-180" rx="92.1303" ry="18.3848"/>
<text text-anchor="middle" x="403" y="-176.4" font-family="Times Roman,serif" font-size="14.00" fill="gray">\CakeTestFixture</text>
</g>
<!-- \\AuditFixture&#45;&gt;\\CakeTestFixture -->
<g id="edge19" class="edge"><title>\\AuditFixture&#45;&gt;\\CakeTestFixture</title>
<path fill="none" stroke="black" d="M671.843,-872.529C660.48,-868.52 649.529,-862.383 642,-853 461.196,-627.685 769.179,-416.247 570,-207 552.034,-188.126 526.463,-179.092 500.715,-175.343"/>
<polygon fill="none" stroke="black" points="500.814,-171.83 490.469,-174.119 499.984,-178.781 500.814,-171.83"/>
</g>
<!-- \\AuthorFixture -->
<g id="node11" class="node"><title>\\AuthorFixture</title>
<polygon fill="none" stroke="black" points="773,-844 669,-844 669,-808 773,-808 773,-844"/>
<text text-anchor="middle" x="721" y="-823.1" font-family="Courier,monospace" font-size="11.00">AuthorFixture</text>
</g>
<!-- \\AuthorFixture&#45;&gt;\\CakeTestFixture -->
<g id="edge21" class="edge"><title>\\AuthorFixture&#45;&gt;\\CakeTestFixture</title>
<path fill="none" stroke="black" d="M668.636,-817.258C658.461,-813.258 648.846,-807.444 642,-799 475.081,-593.113 753.703,-398.061 570,-207 552.03,-188.31 526.594,-179.299 500.978,-175.515"/>
<polygon fill="none" stroke="black" points="501.135,-172.009 490.785,-174.274 500.288,-178.957 501.135,-172.009"/>
</g>
<!-- \\ArticleFixture -->
<g id="node12" class="node"><title>\\ArticleFixture</title>
<polygon fill="none" stroke="black" points="776,-790 666,-790 666,-754 776,-754 776,-790"/>
<text text-anchor="middle" x="721" y="-769.1" font-family="Courier,monospace" font-size="11.00">ArticleFixture</text>
</g>
<!-- \\ArticleFixture&#45;&gt;\\CakeTestFixture -->
<g id="edge23" class="edge"><title>\\ArticleFixture&#45;&gt;\\CakeTestFixture</title>
<path fill="none" stroke="black" d="M665.475,-761.855C656.508,-757.933 648.161,-752.507 642,-745 488.951,-558.521 738.244,-379.893 570,-207 552.008,-188.511 526.702,-179.531 501.218,-175.712"/>
<polygon fill="none" stroke="black" points="501.432,-172.212 491.077,-174.453 500.57,-179.158 501.432,-172.212"/>
</g>
<!-- \\AuditDeltaFixture -->
<g id="node13" class="node"><title>\\AuditDeltaFixture</title>
<polygon fill="none" stroke="black" points="786,-736 656,-736 656,-700 786,-700 786,-736"/>
<text text-anchor="middle" x="721" y="-715.1" font-family="Courier,monospace" font-size="11.00">AuditDeltaFixture</text>
</g>
<!-- \\AuditDeltaFixture&#45;&gt;\\CakeTestFixture -->
<g id="edge25" class="edge"><title>\\AuditDeltaFixture&#45;&gt;\\CakeTestFixture</title>
<path fill="none" stroke="black" d="M655.478,-702.517C650.415,-699.362 645.804,-695.566 642,-691 502.801,-523.906 722.808,-361.747 570,-207 552.056,-188.828 527.033,-179.886 501.812,-176"/>
<polygon fill="none" stroke="black" points="502.138,-172.513 491.774,-174.71 501.246,-179.456 502.138,-172.513"/>
</g>
<!-- \\AuditHelperTest -->
<g id="node14" class="node"><title>\\AuditHelperTest</title>
<polygon fill="none" stroke="black" points="780,-682 662,-682 662,-646 780,-646 780,-682"/>
<text text-anchor="middle" x="721" y="-661.1" font-family="Courier,monospace" font-size="11.00">AuditHelperTest</text>
</g>
<!-- \\CakeTestCase -->
<g id="node41" class="node"><title>\\CakeTestCase</title>
<ellipse fill="none" stroke="black" cx="403" cy="-126" rx="82.0244" ry="18.3848"/>
<text text-anchor="middle" x="403" y="-122.4" font-family="Times Roman,serif" font-size="14.00" fill="gray">\CakeTestCase</text>
</g>
<!-- \\AuditHelperTest&#45;&gt;\\CakeTestCase -->
<g id="edge27" class="edge"><title>\\AuditHelperTest&#45;&gt;\\CakeTestCase</title>
<path fill="none" stroke="black" d="M661.984,-652.121C654.378,-648.377 647.381,-643.459 642,-637 502.801,-469.906 722.808,-307.747 570,-153 549.325,-132.063 519.255,-123.378 490.31,-120.563"/>
<polygon fill="none" stroke="black" points="490.369,-117.057 480.136,-119.801 489.847,-124.038 490.369,-117.057"/>
</g>
<!-- \\User -->
<g id="node15" class="node"><title>\\User</title>
<polygon fill="none" stroke="black" points="748,-1006 694,-1006 694,-970 748,-970 748,-1006"/>
<text text-anchor="middle" x="721" y="-985.1" font-family="Courier,monospace" font-size="11.00">User</text>
</g>
<!-- \\User&#45;&gt;\\AppModel -->
<g id="edge29" class="edge"><title>\\User&#45;&gt;\\AppModel</title>
<path fill="none" stroke="black" d="M693.715,-985.961C676.179,-983.131 654.428,-976.487 642,-961 461.196,-735.685 769.179,-524.247 570,-315 544.935,-288.668 505.066,-281.488 470.568,-281.095"/>
<polygon fill="none" stroke="black" points="470.504,-277.595 460.529,-281.165 470.553,-284.595 470.504,-277.595"/>
</g>
<!-- \\AuditControllerTest -->
<g id="node16" class="node"><title>\\AuditControllerTest</title>
<polygon fill="none" stroke="black" points="793,-574 649,-574 649,-538 793,-538 793,-574"/>
<text text-anchor="middle" x="721" y="-553.1" font-family="Courier,monospace" font-size="11.00">AuditControllerTest</text>
</g>
<!-- \\ControllerTestCase -->
<g id="node44" class="node"><title>\\ControllerTestCase</title>
<ellipse fill="none" stroke="black" cx="403" cy="-72" rx="106.773" ry="18.3848"/>
<text text-anchor="middle" x="403" y="-68.4" font-family="Times Roman,serif" font-size="14.00" fill="gray">\ControllerTestCase</text>
</g>
<!-- \\AuditControllerTest&#45;&gt;\\ControllerTestCase -->
<g id="edge31" class="edge"><title>\\AuditControllerTest&#45;&gt;\\ControllerTestCase</title>
<path fill="none" stroke="black" d="M651.579,-537.777C648.052,-535.225 644.813,-532.315 642,-529 516.623,-381.256 707.401,-235.632 570,-99 556.167,-85.2447 538.27,-76.8096 519.349,-71.8601"/>
<polygon fill="none" stroke="black" points="519.906,-68.3972 509.377,-69.5798 518.345,-75.221 519.906,-68.3972"/>
</g>
<!-- \\Article -->
<g id="node17" class="node"><title>\\Article</title>
<polygon fill="none" stroke="black" points="753,-1168 689,-1168 689,-1132 753,-1132 753,-1168"/>
<text text-anchor="middle" x="721" y="-1147.1" font-family="Courier,monospace" font-size="11.00">Article</text>
</g>
<!-- \\Article&#45;&gt;\\CakeTestModel -->
<g id="edge33" class="edge"><title>\\Article&#45;&gt;\\CakeTestModel</title>
<path fill="none" stroke="black" d="M688.931,-1147.2C672.325,-1143.99 653.227,-1137.22 642,-1123 537.697,-990.895 685.083,-491.828 570,-369 550.685,-348.385 522.308,-339.45 494.406,-336.328"/>
<polygon fill="none" stroke="black" points="494.433,-332.817 484.166,-335.429 493.822,-339.79 494.433,-332.817"/>
</g>
<!-- \\Author -->
<g id="node18" class="node"><title>\\Author</title>
<polygon fill="none" stroke="black" points="749,-1114 693,-1114 693,-1078 749,-1078 749,-1114"/>
<text text-anchor="middle" x="721" y="-1093.1" font-family="Courier,monospace" font-size="11.00">Author</text>
</g>
<!-- \\Author&#45;&gt;\\CakeTestModel -->
<g id="edge35" class="edge"><title>\\Author&#45;&gt;\\CakeTestModel</title>
<path fill="none" stroke="black" d="M692.124,-1093.74C674.855,-1090.78 654.001,-1084.09 642,-1069 544.65,-946.622 677.334,-482.723 570,-369 550.7,-348.551 522.477,-339.621 494.706,-336.454"/>
<polygon fill="none" stroke="black" points="494.785,-332.947 484.512,-335.537 494.159,-339.919 494.785,-332.947"/>
</g>
<!-- \\AuditableBehaviorTest -->
<g id="node19" class="node"><title>\\AuditableBehaviorTest</title>
<polygon fill="none" stroke="black" points="800,-628 642,-628 642,-592 800,-592 800,-628"/>
<text text-anchor="middle" x="721" y="-607.1" font-family="Courier,monospace" font-size="11.00">AuditableBehaviorTest</text>
</g>
<!-- \\AuditableBehaviorTest&#45;&gt;\\CakeTestCase -->
<g id="edge37" class="edge"><title>\\AuditableBehaviorTest&#45;&gt;\\CakeTestCase</title>
<path fill="none" stroke="black" d="M651.579,-591.777C648.052,-589.225 644.813,-586.315 642,-583 516.623,-435.256 707.401,-289.632 570,-153 549.228,-132.345 519.293,-123.686 490.486,-120.811"/>
<polygon fill="none" stroke="black" points="490.602,-117.31 480.361,-120.025 490.061,-124.289 490.602,-117.31"/>
</g>
<!-- \\AllAuditLogTest -->
<g id="node20" class="node"><title>\\AllAuditLogTest</title>
<polygon fill="none" stroke="black" points="780,-520 662,-520 662,-484 780,-484 780,-520"/>
<text text-anchor="middle" x="721" y="-499.1" font-family="Courier,monospace" font-size="11.00">AllAuditLogTest</text>
</g>
<!-- \\PHPUnit_Framework_TestSuite -->
<g id="node49" class="node"><title>\\PHPUnit_Framework_TestSuite</title>
<ellipse fill="none" stroke="black" cx="403" cy="-18" rx="166.877" ry="18.3848"/>
<text text-anchor="middle" x="403" y="-14.4" font-family="Times Roman,serif" font-size="14.00" fill="gray">\PHPUnit_Framework_TestSuite</text>
</g>
<!-- \\AllAuditLogTest&#45;&gt;\\PHPUnit_Framework_TestSuite -->
<g id="edge39" class="edge"><title>\\AllAuditLogTest&#45;&gt;\\PHPUnit_Framework_TestSuite</title>
<path fill="none" stroke="black" d="M717.604,-483.93C702.719,-406.681 640.819,-105.378 570,-45 564.315,-40.153 558.111,-36.0027 551.547,-32.4585"/>
<polygon fill="none" stroke="black" points="552.91,-29.2295 542.388,-27.9926 549.842,-35.5213 552.91,-29.2295"/>
</g>
</g>
</svg>
